<?xml version="1.0" encoding="UTF-8"?>
<svg xmlns="http://www.w3.org/2000/svg" viewBox="0 0 2365.27 211.32">
  <defs>
    <style>
      .cls-1 {
        fill: #fff;
      }
    </style>
  </defs>
  <g id="Camada_2" data-name="Camada 2">
    <path class="cls-1" d="M2365.27,2.52c-6.09,.76-12.66,1.84-19.63,3.36-8.33,1.82-15.91,3.98-22.68,6.24-6.81-3-19.17-7.38-35.16-7.32-15.46,.06-27.45,4.26-34.2,7.2-5.09-2.82-17.57-8.85-34.32-7.92-14.36,.8-24.81,6.31-29.76,9.36-5.38-3.12-16.83-8.79-32.4-9.24-17.28-.5-30.07,5.71-35.52,8.76-5.85-3.17-16.75-8.06-31.2-8.76-18.7-.91-32.73,5.7-38.76,9-5.09-2.86-15.84-8-30.36-8.28-15.96-.31-27.76,5.41-32.88,8.28-5.24-3-17.35-8.98-33.84-8.88-16.72,.1-28.89,6.39-34.08,9.48-5.6-3.18-17-8.67-32.4-9.24-17.69-.66-30.89,5.53-36.6,8.64-5.38-3.02-15.42-7.69-28.8-8.52-17.62-1.09-30.89,5.13-36.49,8.16-5.78-2.9-15.36-6.77-27.71-7.56-18.84-1.22-33.14,5.4-39.36,8.76-5.99-3.43-19.84-10.28-38.52-9.84-14.9,.35-26.19,5.17-32.16,8.25-5.1-2.93-14.97-7.69-28.2-8.37-17.93-.93-31.17,6.18-36.24,9.27-4.96-3.14-15.17-8.64-29.16-9.51-19.42-1.2-33.56,7.3-38.28,10.44-5.51-3.25-15.43-8.1-28.68-9.36-19.05-1.81-33.59,4.89-39.48,8.02-4.84-3.03-14.67-8.24-28.08-9.1-18.65-1.19-32.29,6.8-36.96,9.84-5.67-3.22-16.33-8.28-30.6-9.24-18.09-1.22-31.82,4.82-37.8,7.9-5.1-3.07-15.56-8.41-29.76-9.1-18.44-.89-31.95,6.59-36.96,9.72-5.22-3-13.82-7.02-25.08-8.28-19.75-2.2-34.86,5.53-40.44,8.76-5.75-3.4-17.11-9.07-32.52-10.08-18.42-1.21-32.36,4.91-38.4,8.02-5.18-2.82-16.37-8.01-31.44-8.02-15.62,0-27.13,5.57-32.28,8.47-6.54-2.96-18.08-7.17-33-7.39-16.85-.25-29.77,4.73-36.48,7.88-5.92-2.98-16.41-7.29-30.12-7.88-17.79-.77-31.26,5.14-37.44,8.36-5.28-2.95-16.32-8.19-31.2-8.48-16.87-.32-29.29,5.9-34.56,8.94-4.83-2.97-17.67-9.99-35.28-9.3-15.28,.6-26.3,6.69-31.14,9.77-5.98-3.5-19.51-10.33-37.86-10.25-14.5,.07-25.64,4.42-31.68,7.32-5.69-2.84-15.97-7.02-29.4-7.44-17.15-.53-30.03,5.37-35.88,8.52-5.94-2.9-16.73-7.2-30.84-7.56-16.65-.43-29.28,4.86-35.4,7.92-6.39-3.09-18.02-7.7-33.24-8.16-16.31-.49-28.91,4.02-35.52,6.94-5.4-2.66-16.12-7.03-30.24-6.88-15.83,.17-27.48,5.95-32.76,9-6.03-3.17-18.24-8.57-34.56-8.82-16.95-.25-29.71,5.18-35.82,8.28-5.8-3.2-19.19-9.55-37.08-8.82-13.88,.57-24.39,5.16-30.06,8.16-5.87-2.94-16.86-7.47-31.32-7.8-16.68-.38-29.28,5.03-35.28,8.1-4.48-2.83-17.94-10.53-36.36-9.18-15.51,1.14-26.33,8.1-30.78,11.34-5.98-3.41-18.74-9.61-36-9.9-14.96-.25-26.47,4.04-32.58,6.84-4.32-2.72-15.7-9.09-31.5-8.82-16.56,.28-28.11,7.69-32.22,10.62-5.19-3-12.86-6.66-22.68-8.82C12.05,2.61,5.23,2.34,0,2.52V211.32H2365.27V2.52Z"/>
  </g>
  <g id="Camada_1" data-name="Camada 1">
    <g>
      <g>
        <path d="M2119.04,50.92c3.85-.11,6.77-3.33,6.77-7.45,0-4.64-3.81-11.57-6.45-11.72-2.69-.16-6.99,6.84-6.93,11.29,.07,5.09,2.5,8,6.61,7.88Z"/>
        <path d="M2320.31,50.54c4,0,6.8-2.93,6.87-7.21,.09-5.22-4.71-13.11-6.48-11.58-3.02,2.61-5.69,6.54-6.65,10.38-1.24,4.94,2.05,8.41,6.26,8.41Z"/>
        <path d="M2255.22,29.96c-2.57,.05-6.65,6.77-6.67,10.99-.03,5.14,2.25,8.04,6.35,8.08,3.89,.03,6.93-3.05,7.04-7.14,.13-4.84-3.89-11.98-6.71-11.92Z"/>
        <path d="M710.87,49.66c3.85-.11,6.77-3.32,6.77-7.44,0-4.64-3.81-11.55-6.45-11.71-2.69-.16-6.98,6.84-6.92,11.28,.07,5.09,2.5,7.99,6.6,7.87Z"/>
        <path d="M1113.2,49.66c3.86-.08,6.81-3.28,6.82-7.38,.01-5.09-4.05-12.04-6.88-11.77-2.53,.25-6.53,7.16-6.49,11.21,.05,5.18,2.4,8.02,6.54,7.93Z"/>
        <path d="M509.45,49.67c4.03,.02,7.03-3.31,6.96-7.71-.09-4.95-3.92-11.54-6.66-11.46-2.53,.08-6.67,6.94-6.66,11.05,.01,5.12,2.34,8.1,6.36,8.12Z"/>
        <path d="M441.94,50.41c4.03,.02,7.03-3.31,6.96-7.71-.09-4.95-3.92-11.54-6.66-11.46-2.53,.08-6.67,6.94-6.66,11.05,.01,5.12,2.34,8.1,6.36,8.12Z"/>
        <path d="M106.36,49.68c3.77,.03,6.92-3.18,7.04-7.21,.15-4.71-3.95-12.02-6.71-11.95-2.55,.06-6.65,6.82-6.68,11.01-.04,5.06,2.34,8.11,6.34,8.15Z"/>
        <path d="M172.43,50.35c3.97,.05,6.86-2.92,6.95-7.13,.1-5.09-3.73-12-6.62-11.92-2.56,.07-6.66,6.82-6.68,10.98-.02,5.13,2.25,8.01,6.36,8.06Z"/>
        <path d="M39.24,50.74c3.97,.05,6.86-2.92,6.95-7.13,.1-5.09-3.73-12-6.62-11.92-2.56,.07-6.66,6.82-6.68,10.98-.02,5.13,2.25,8.01,6.36,8.06Z"/>
        <path d="M374.67,50.34c3.89-.12,6.73-3.26,6.72-7.42-.02-4.68-3.84-11.49-6.51-11.61-2.73-.12-6.92,6.79-6.84,11.27,.09,5.1,2.47,7.88,6.64,7.75Z"/>
        <path d="M307.87,48.74c3.89-.12,6.73-3.26,6.72-7.42-.02-4.68-3.84-11.49-6.51-11.61-2.73-.12-6.92,6.79-6.84,11.27,.09,5.1,2.47,7.88,6.64,7.75Z"/>
        <path d="M240.26,50.34c3.89-.12,6.73-3.26,6.72-7.42-.02-4.68-3.84-11.49-6.51-11.61-2.73-.12-6.92,6.79-6.84,11.27,.09,5.1,2.47,7.88,6.64,7.75Z"/>
        <path d="M1179.88,50.36c4.13,0,6.98-3.19,6.89-7.7-.1-5.07-3.9-11.48-6.72-11.34-2.55,.13-6.63,6.97-6.59,11.05,.05,5.15,2.34,8,6.42,8Z"/>
        <path d="M575.82,50.33c4.01-.12,6.66-3.07,6.66-7.42,0-4.83-3.7-11.51-6.43-11.62-2.7-.1-6.96,6.89-6.87,11.27,.1,5.12,2.47,7.88,6.65,7.76Z"/>
        <path d="M1045.53,50.34c4,0,6.79-2.92,6.86-7.2,.09-5.22-4.7-13.1-6.47-11.57-3.01,2.61-5.68,6.53-6.64,10.37-1.24,4.94,2.05,8.4,6.25,8.4Z"/>
        <path d="M977.35,50.34c4,0,6.79-2.92,6.86-7.2,.09-5.22-4.7-13.1-6.47-11.57-3.01,2.61-5.68,6.53-6.64,10.37-1.24,4.94,2.05,8.4,6.25,8.4Z"/>
        <path d="M643.34,50.36c3.94-.09,6.67-3.11,6.67-7.39,0-4.95-3.58-11.5-6.37-11.65-2.75-.14-6.95,6.73-6.87,11.22,.09,5.13,2.43,7.91,6.57,7.82Z"/>
        <path d="M844.57,50.34c3.92-.12,6.72-3.2,6.72-7.41,0-4.65-3.83-11.51-6.5-11.63-2.72-.12-6.95,6.83-6.87,11.27,.09,5.11,2.47,7.89,6.65,7.76Z"/>
        <path d="M776.37,50.35c3.92-.12,6.72-3.2,6.72-7.41,0-4.65-3.83-11.51-6.5-11.63-2.72-.12-6.95,6.83-6.87,11.27,.09,5.11,2.47,7.89,6.65,7.76Z"/>
        <path d="M912.33,48.83c3.92-.12,6.72-3.2,6.72-7.41,0-4.65-3.83-11.51-6.5-11.63-2.72-.12-6.95,6.83-6.87,11.27,.09,5.11,2.47,7.89,6.65,7.76Z"/>
        <path d="M2053.51,49.86c3.85-.11,6.77-3.33,6.77-7.45,0-4.64-3.81-11.57-6.45-11.72-2.69-.16-6.99,6.84-6.93,11.29,.07,5.09,2.5,8,6.61,7.88Z"/>
        <path d="M1851.85,49.86c4.03,.02,7.04-3.31,6.96-7.71-.09-4.96-3.92-11.55-6.67-11.47-2.53,.08-6.67,6.95-6.66,11.06,.01,5.13,2.34,8.11,6.37,8.13Z"/>
        <path d="M1448.28,49.87c3.78,.03,6.93-3.19,7.05-7.21,.15-4.72-3.96-12.03-6.72-11.96-2.55,.06-6.66,6.83-6.69,11.02-.04,5.07,2.34,8.12,6.35,8.16Z"/>
        <path d="M1381.02,50.6c3.78,.03,6.93-3.19,7.05-7.21,.15-4.72-3.96-12.03-6.72-11.96-2.55,.06-6.66,6.83-6.69,11.02-.04,5.07,2.34,8.12,6.35,8.16Z"/>
        <path d="M1313.52,50.61c3.78,.03,6.93-3.19,7.05-7.21,.15-4.72-3.96-12.03-6.72-11.96-2.55,.06-6.66,6.83-6.69,11.02-.04,5.07,2.34,8.12,6.35,8.16Z"/>
        <path d="M1246.73,31.49c-2.75-.21-7,6.62-6.95,11.17,.06,5.14,2.39,7.95,6.53,7.88,.59,0,1.16-.08,1.69-.22,3.03-.77,5.06-3.51,5.07-7.11,.01-4.7-3.46-11.24-6.17-11.7-.06-.01-.11-.02-.17-.02Z"/>
        <path d="M1514.43,50.55c3.97,.05,6.87-2.93,6.95-7.14,.1-5.1-3.74-12.01-6.63-11.93-2.56,.07-6.67,6.83-6.69,11-.02,5.14,2.26,8.02,6.36,8.07Z"/>
        <path d="M1581.82,50.55c3.97,.05,6.87-2.93,6.95-7.14,.1-5.1-3.74-12.01-6.63-11.93-2.56,.07-6.67,6.83-6.69,11-.02,5.14,2.26,8.02,6.36,8.07Z"/>
        <path d="M1716.91,50.54c3.9-.12,6.74-3.26,6.72-7.43-.02-4.69-3.84-11.51-6.52-11.62-2.73-.12-6.93,6.8-6.85,11.29,.09,5.11,2.48,7.89,6.65,7.76Z"/>
        <path d="M1650.03,49.37c3.9-.12,6.74-3.26,6.72-7.43-.02-4.69-3.84-11.51-6.52-11.62-2.73-.12-6.93,6.8-6.85,11.29,.09,5.11,2.48,7.89,6.65,7.76Z"/>
        <path d="M1783.93,50.54c3.9-.12,6.74-3.26,6.72-7.43-.02-4.69-3.84-11.51-6.52-11.62-2.73-.12-6.93,6.8-6.85,11.29,.09,5.11,2.48,7.89,6.65,7.76Z"/>
        <path d="M1918.3,50.53c4.01-.12,6.66-3.07,6.67-7.43,0-4.83-3.7-11.53-6.44-11.63-2.7-.1-6.97,6.9-6.88,11.29,.1,5.12,2.48,7.89,6.65,7.77Z"/>
        <path d="M1985.9,50.55c3.95-.09,6.68-3.12,6.68-7.4,0-4.96-3.59-11.52-6.37-11.66-2.75-.14-6.96,6.74-6.88,11.23,.09,5.14,2.43,7.92,6.58,7.83Z"/>
        <path d="M2187.37,50.54c3.93-.12,6.73-3.21,6.73-7.42,0-4.66-3.83-11.52-6.51-11.64-2.72-.12-6.96,6.83-6.88,11.29,.09,5.11,2.48,7.9,6.66,7.77Z"/>
      </g>
      <path d="M2360.2,.53c-.5,.01-.97,.02-1.46,.03-11.24,.35-22.09,2.75-32.15,8.24-1.36,.74-3.66,.48-5.28-.07-5.79-1.97-11.36-4.63-17.22-6.38-14.59-4.39-28.6-.04-42.46,3.86-5.14,1.45-9.64,1.64-14.54-.29-4.8-1.89-9.69-3.98-14.73-4.72-13.2-1.93-25.69,1.13-37.58,7-1.32,.65-3.16,1.3-4.42,.9-5.97-1.88-11.75-4.35-17.74-6.16-4.15-1.27-8.54-2.59-12.81-2.51-12.06,.2-23.76,2.4-34.57,8.33-1.38,.75-3.69,.55-5.27,0-5.49-1.91-10.67-4.84-16.26-6.21-16.61-4.06-32.8-1.51-48.69,4.2-1.93,.68-4.44,.67-6.43,.11-5.9-1.69-11.52-4.68-17.49-5.61-13.36-2.1-26.01,1.07-38.02,7.07-1.3,.65-3.15,1.07-4.44,.65-6.41-2.05-12.69-4.61-19.11-6.59-3.52-1.11-7.31-2.1-10.95-2-12.07,.34-23.8,2.31-34.6,8.28-1.46,.8-3.96,.5-5.7-.09-5.65-1.89-11.07-4.54-16.77-6.21-14.75-4.32-28.92-.17-42.93,3.88-4.96,1.43-9.33,1.6-14.09-.25-4.95-1.94-10-4.1-15.18-4.83-13.21-1.86-25.7,1.2-37.57,7.12-1.31,.65-3.15,1.14-4.43,.73-6.27-2-12.37-4.54-18.65-6.49-3.69-1.16-7.62-2.24-11.42-2.16-12.05,.28-23.82,2.24-34.57,8.33-1.17,.66-2.86,1.22-4.02,.87-3.98-1.24-7.92-2.73-11.73-4.47-17.71-8.03-35.17-5.46-52.34,1.55-3.52,1.44-6.24,1.63-9.63,.35-5.72-2.18-11.47-4.8-17.45-5.74-13.37-2.13-26,1.13-38.03,7.06-1.3,.64-3.15,1.09-4.43,.67-6.26-2.01-12.36-4.54-18.64-6.5-3.69-1.13-7.61-2.19-11.42-2.11-12.07,.26-23.79,2.32-34.59,8.28-1.45,.8-3.94,.51-5.69-.08-5.81-1.91-11.4-4.53-17.26-6.25-14.42-4.29-28.3-.16-41.98,3.75-5.3,1.52-9.9,1.77-14.98-.26-4.77-1.94-9.7-3.94-14.74-4.65-13.21-1.86-25.68,1.25-37.57,7.1-1.31,.65-3.17,1.17-4.43,.77-6.11-1.96-12.03-4.55-18.19-6.35-4.29-1.25-8.88-2.22-13.32-2.17-11.78,.14-23.11,2.55-33.59,8.35-1.25,.7-3.39,.54-4.86,.03-5.76-2.04-11.29-4.96-17.18-6.48-16.73-4.35-32.08-.47-46.69,7.65-9.16-6.24-20.5-10.23-30.22-9.92-11.97,.4-23.39,2.72-34,8.5-1.16,.64-2.86,1.05-4.04,.69-3.83-1.19-7.64-2.59-11.27-4.28-17.84-8.26-35.41-5.51-52.7,1.56-3.36,1.38-5.99,1.5-9.18,.33-5.75-2.12-11.45-4.85-17.42-5.81-13.32-2.16-25.99,.95-38.01,6.92-1.32,.64-3.16,1.24-4.42,.84-6.11-1.94-12.01-4.52-18.16-6.33-4.3-1.24-8.87-2.28-13.3-2.2-11.75,.16-23.08,2.53-33.58,8.25-1.35,.76-3.64,.5-5.26-.05-5.78-1.98-11.35-4.63-17.2-6.38-14.58-4.38-28.58-.04-42.41,3.86-5.14,1.45-9.63,1.63-14.53-.29-4.77-1.89-9.66-3.98-14.7-4.71-13.19-1.94-25.67,1.12-37.54,6.99-1.33,.65-3.16,1.3-4.42,.9-5.96-1.88-11.73-4.35-17.7-6.16-4.15-1.25-8.53-2.57-12.8-2.51-12.06,.21-23.74,2.4-34.53,8.32-1.38,.76-3.67,.56-5.27,0-5.47-1.91-10.66-4.82-16.25-6.18-16.59-4.06-32.75-1.52-48.62,4.18-1.93,.69-4.43,.68-6.43,.12-5.89-1.69-11.51-4.68-17.47-5.61-13.33-2.09-25.96,1.07-37.98,7.07-1.29,.65-3.14,1.07-4.43,.65-6.41-2.05-12.66-4.61-19.09-6.59-3.53-1.1-7.31-2.1-10.94-1.99-12.04,.34-23.76,2.3-34.57,8.26-1.45,.81-3.94,.51-5.68-.09-5.64-1.89-11.07-4.53-16.77-6.19-14.72-4.31-28.88-.17-42.87,3.87-4.94,1.44-9.31,1.61-14.07-.24-4.95-1.93-9.98-4.1-15.17-4.82-13.19-1.87-25.67,1.19-37.52,7.11-1.3,.64-3.15,1.13-4.42,.73-6.26-2-12.34-4.54-18.63-6.48-3.69-1.14-7.61-2.26-11.4-2.17-12.05,.28-23.8,2.26-34.53,8.32-1.17,.66-2.86,1.23-4.02,.88-3.98-1.24-7.91-2.74-11.71-4.47-17.7-8.02-35.14-5.46-52.28,1.55-3.51,1.43-6.23,1.64-9.62,.35-5.72-2.17-11.46-4.8-17.43-5.74-13.35-2.12-25.96,1.13-37.99,7.06-1.3,.64-3.14,1.08-4.42,.66-6.26-2-12.34-4.53-18.62-6.47-3.69-1.14-7.61-2.21-11.41-2.12-12.06,.25-23.75,2.31-34.55,8.27-1.45,.81-3.93,.51-5.69-.08-5.8-1.91-11.39-4.53-17.24-6.26-14.4-4.27-28.26-.15-41.94,3.76-5.28,1.52-9.89,1.77-14.95-.26-4.77-1.94-9.7-3.93-14.74-4.64-13.18-1.87-25.66,1.25-37.52,7.09-1.31,.64-3.16,1.18-4.44,.76-6.08-1.96-11.99-4.54-18.14-6.34C19.44,1.31,14.86,.34,10.41,.39c-3.51,.04-6.99,.29-10.41,.77V7.03c10.72-1.12,22.92,1.5,32.69,7.64-4.32,7.02-9.3,13.7-12.76,21.09-4.16,8.9,.2,22.63,7.62,27.5,6.61,4.36,13.73,4.39,20.34,.81,7.66-4.15,11.39-11.31,11.83-20,.57-11.18-2.84-21.02-10.43-29.29,9.88-8.32,34.63-11.12,46.78-2.49-3.67,7.39-8.01,14.34-10.65,21.87-2.95,8.45-.04,16.72,5.93,22.85,6.78,6.93,15.51,9.3,25.06,5.65,7.29-2.78,11.58-10.69,11.44-20.13-.18-11.42-4.68-20.88-12.98-28.57,10.67-9.65,40.1-8.87,52.24,1.39-6.66,5.54-11.56,12.29-14.57,20.42-3.39,9.19,.44,22.73,7.97,27.57,6.65,4.29,13.81,4.32,20.35,.68,7.39-4.09,11.25-11.11,11.75-19.62,.68-11.35-2.83-21.35-10.52-29.78,13.21-10.3,38.5-9.78,53.02,1.06-6.68,5.42-11.53,12.2-14.24,20.28-2.48,7.37-1.41,19.17,5.81,25.68,6.38,5.74,13.74,6,21.4,2.96,6.93-2.74,12.62-12.25,12.89-20.38,.37-11.38-2.98-21.31-10.69-29.7,12.83-8.52,33.45-10.9,48.33-1.29-5.82,5.98-10.41,12.65-12.23,20.94-1.9,8.74,.16,16.77,6.22,22.89,6.66,6.77,15.35,9.54,24.55,5.63,6.41-2.73,10.78-7.54,11.6-15.31,1.4-13.6-3.3-24.61-12.98-33.85,13.9-8.21,41.89-9.04,53.27,2-6.9,5.4-11.66,12.36-14.64,20.53-3.29,8.97,.64,22.42,7.89,27.17,6.6,4.33,13.79,4.49,20.35,.86,7.54-4.17,11.71-11.2,11.84-19.99,.18-12.86-1.02-15.92-10.12-29.51,11.35-10.43,35.08-10.13,52.8,.88-6.69,5.63-11.54,12.45-14.48,20.61-3.22,8.94,.68,22.43,7.91,27.16,6.8,4.43,14.08,4.44,20.8,.65,7.37-4.18,10.99-11.22,11.45-19.76,.62-11.35-3.03-21.26-10.91-30.06,16.29-8.76,32.1-9.8,48.51-1.38-2.72,3.75-5.67,7.13-7.86,10.94-4.65,8.12-6.59,16.55-2.83,25.88,4.66,11.61,18.58,18.24,29.98,12.97,5.96-2.75,10.19-7.47,10.94-14.82,1.28-12.59-2.41-23.22-11.05-32.32-.53-.55-1-1.17-1.53-1.78,13.28-9.34,41.23-8.28,52.14,1.96-6.76,5.34-11.71,12.04-14.42,20.14-3.14,9.42-.62,22.04,7.7,27.56,6.6,4.39,13.79,4.49,20.35,.85,7.55-4.17,11.46-11.24,11.87-19.99,.52-11.19-2.82-21.04-10.45-29.26,11.33-10.46,36.52-10.12,51.69-.17-4.36,7.07-9.63,13.69-12.75,21.22-3.78,9.12-.78,21.87,7.67,27.43,6.61,4.35,13.8,4.36,20.38,.77,7.61-4.17,11.34-11.35,11.76-20.07,.57-11.2-2.86-21.02-10.5-29.28,10.44-8.55,35.38-10.91,47.91-1.45-5.72,6.03-10.19,12.82-11.96,21.06-1.86,8.7,.24,16.76,6.36,22.88,6.73,6.74,15.3,9,24.67,5.56,7.45-2.75,11.74-10.85,11.65-20.42-.09-10.77-4.37-19.59-11.58-27.27-.64-.67-1.18-1.43-1.76-2.13,9.8-8.87,42.52-7.77,52.57,2.49-6.66,5.53-11.56,12.33-14.54,20.49-3.26,8.9,.52,22.39,7.72,27.22,6.59,4.43,13.75,4.57,20.35,1.01,7.6-4.1,11.52-11.21,12-19.95,.65-11.35-3-21.27-10.74-29.9,18.21-9.71,35.68-9.52,52.56,.77-3.69,5.03-7.75,9.96-11.13,15.33-6.46,10.18-4.11,27.36,6.19,33.34,6.67,3.87,13.61,3.78,19.95,.14,7.35-4.2,11.03-11.21,11.46-19.76,.55-11.2-2.83-21.04-10.42-29.31,10.03-8.64,31.88-11.35,47.84-1.94-2.61,3.59-5.54,6.98-7.72,10.79-4.64,8.13-6.54,16.56-2.78,25.88,4.68,11.63,18.53,18.22,29.99,12.96,5.96-2.74,10.17-7.48,10.94-14.81,1.3-12.59-2.44-23.21-11-32.35-.43-.46-.84-.96-1.23-1.45-.09-.12-.06-.32-.08-.48,15.28-8.49,39-9.03,51.82,2.13-6.73,5.36-11.63,12.09-14.38,20.18-3.16,9.31-.5,22.11,7.79,27.55,6.6,4.35,13.77,4.43,20.33,.77,7.53-4.19,11.71-11.23,11.74-20.01,.04-13.32-.75-15.08-10.29-29.76,16.68-10.44,38-9.85,52.86,1.42-6.63,5.47-11.68,12.16-14.25,20.3-2.97,9.42-.56,21.53,7.7,27.15,6.7,4.58,14.04,4.54,20.77,.8,7.42-4.13,11.12-11.21,11.56-19.69,.61-11.32-2.85-21.33-10.61-29.67,11.79-9.12,35.21-10.7,48.21-1.23-5.95,5.87-10.32,12.67-12.17,20.9-1.93,8.55,.22,16.44,5.93,22.58,6.22,6.69,14.6,9.16,23.64,6.49,6.91-2.02,13.58-9.15,13.16-20.89-.39-10.75-4.4-19.63-11.58-27.34-.44-.46-.83-.97-1.22-1.46-.07-.1-.01-.31-.01-.46,14.09-7.78,40.48-8.67,52.79,2.24-6.74,5.48-11.83,12.24-14.49,20.46-3.01,9.29-.63,21.54,7.55,27.22,12,8.33,28.55,.97,31.76-14.43,2.29-10.96-.2-21.19-6.82-30.31-.94-1.3-1.98-2.52-2.97-3.78,13.18-10.04,35.96-9.71,52.32,.46-.11,.14-.22,.28-.33,.42-.94,1.28-1.89,2.55-2.85,3.82-2.77,3.64-5.54,7.28-7.97,11.16-6.66,10.61-4.21,28.75,7.92,34.27,2.7,1.22,5.35,1.77,8.02,1.76,1.53-.13,3.05-.45,4.6-.91,.01,0,.02,0,.03-.01,8.58-2.82,14.87-11.23,15.08-21.21,.17-7.21-1.09-13.84-3.99-19.85-1.64-3.34-3.78-6.52-6.5-9.48l.12-.12c9.76-10.44,40.22-9.98,51.61,.83-6.89,5.43-11.65,12.42-14.61,20.61-3.28,9.04,.67,22.41,7.92,27.17,6.63,4.36,13.81,4.44,20.4,.85,7.59-4.15,11.47-11.25,11.89-19.99,.52-11.17-2.78-21.06-10.37-29.32,11.47-10.88,35.07-10.62,51.68-.18-4.31,7.03-9.31,13.72-12.77,21.12-4.17,8.9,.19,22.64,7.64,27.54,6.61,4.35,13.75,4.38,20.36,.8,7.67-4.15,11.4-11.31,11.84-20.02,.58-11.2-2.84-21.05-10.44-29.32,9.9-8.33,34.68-11.13,46.83-2.49-3.69,7.4-8.01,14.36-10.66,21.89-2.95,8.46-.06,16.74,5.94,22.87,6.78,6.94,15.53,9.31,25.1,5.67,7.29-2.78,11.6-10.7,11.45-20.14-.19-11.45-4.69-20.91-12.99-28.63,10.68-9.65,40.13-8.87,52.29,1.4-6.66,5.56-11.58,12.31-14.58,20.45-3.4,9.2,.44,22.75,7.97,27.59,6.66,4.28,13.83,4.32,20.39,.69,7.39-4.1,11.25-11.13,11.76-19.66,.68-11.35-2.84-21.37-10.53-29.8,13.24-10.32,38.54-9.79,53.08,1.06-6.71,5.43-11.54,12.21-14.26,20.31-2.48,7.37-1.42,19.19,5.83,25.71,6.38,5.73,13.75,5.98,21.41,2.96,6.93-2.76,12.63-12.26,12.92-20.41,.37-11.38-2.98-21.33-10.72-29.74,12.84-8.53,33.49-10.91,48.4-1.29-5.83,5.98-10.42,12.67-12.25,20.96-1.94,8.75,.15,16.78,6.19,22.93,6.68,6.78,15.38,9.54,24.59,5.63,6.43-2.73,10.8-7.54,11.6-15.34,1.41-13.61-3.28-24.63-12.98-33.89,13.92-8.22,41.95-9.05,53.34,2-6.9,5.41-11.67,12.38-14.68,20.55-3.28,8.98,.66,22.45,7.92,27.21,6.6,4.33,13.8,4.5,20.36,.86,7.56-4.17,11.74-11.2,11.86-20.01,.18-12.87-1.01-15.93-10.13-29.54,11.36-10.44,35.12-10.15,52.85,.88-6.69,5.63-11.55,12.48-14.49,20.63-3.22,8.96,.67,22.47,7.92,27.2,6.79,4.42,14.09,4.44,20.83,.65,7.38-4.18,11-11.22,11.45-19.78,.63-11.38-3.01-21.28-10.9-30.1,16.3-8.75,32.11-9.8,48.55-1.36-2.73,3.74-5.67,7.12-7.86,10.95-4.66,8.14-6.59,16.56-2.85,25.91,4.68,11.63,18.6,18.25,30.02,12.99,5.96-2.76,10.21-7.48,10.96-14.85,1.28-12.61-2.43-23.25-11.06-32.35-.55-.56-1.01-1.18-1.53-1.78,13.3-9.36,41.28-8.31,52.18,1.95-6.75,5.35-11.72,12.05-14.42,20.17-3.16,9.44-.64,22.07,7.7,27.6,6.6,4.38,13.8,4.48,20.39,.84,7.55-4.17,11.47-11.24,11.87-20.01,.53-11.2-2.81-21.06-10.46-29.3,11.35-10.47,36.57-10.14,51.75-.17-4.36,7.09-9.64,13.71-12.76,21.24-3.8,9.13-.78,21.9,7.67,27.46,6.63,4.35,13.82,4.36,20.41,.77,7.61-4.17,11.34-11.36,11.78-20.09,.56-11.21-2.88-21.05-10.51-29.31,10.44-8.56,35.4-10.92,47.97-1.45-5.72,6.03-10.22,12.83-11.98,21.08-1.86,8.71,.24,16.78,6.36,22.91,6.76,6.77,15.33,9.02,24.7,5.57,7.46-2.75,11.75-10.86,11.67-20.44-.1-10.79-4.39-19.63-11.61-27.31-.64-.67-1.19-1.43-1.76-2.13,9.81-8.88,42.58-7.78,52.63,2.49-6.68,5.53-11.57,12.34-14.58,20.51-3.26,8.92,.53,22.41,7.76,27.26,6.58,4.42,13.76,4.55,20.36,1,7.64-4.1,11.53-11.21,12.02-19.96,.64-11.38-3.03-21.3-10.76-29.95,18.23-9.74,35.72-9.53,52.62,.77-3.7,5.05-7.75,9.98-11.14,15.34-6.46,10.2-4.13,27.39,6.19,33.39,6.68,3.86,13.62,3.77,19.98,.14,7.36-4.21,11.05-11.23,11.46-19.79,.56-11.21-2.81-21.07-10.43-29.34,10.06-8.65,31.93-11.36,47.9-1.95-2.61,3.6-5.54,6.99-7.72,10.81-4.65,8.14-6.56,16.58-2.81,25.9,4.69,11.65,18.56,18.24,30.02,12.99,5.98-2.75,10.2-7.49,10.96-14.84,1.3-12.61-2.45-23.25-11.01-32.38-.43-.45-.84-.96-1.23-1.45-.08-.11-.07-.32-.08-.48,15.3-8.49,39.05-9.05,51.87,2.13-6.73,5.37-11.64,12.11-14.39,20.21-3.16,9.32-.5,22.12,7.79,27.57,6.62,4.36,13.8,4.43,20.36,.78,7.53-4.2,11.72-11.25,11.75-20.05,.04-13.35-.75-15.11-10.3-29.79,8.63-5.39,18.47-7.84,28.04-7.4,2.2,.09,4.39,.34,6.54,.76V.88c-1.69-.25-3.4-.39-5.07-.35ZM51.51,45.03c-.59,7.05-5.38,14.45-10.64,15.03-5.3,.59-12.49-5.16-14.53-11.58-1.68-5.26-1.11-10.44,1.89-14.85,3.58-5.26,7.9-10,12.12-15.24,8.54,8.04,12.04,16.35,11.16,26.65Zm69.15-4.27c1,8.53-3.78,16.16-10.7,16.9-8.26,.88-15.8-5.32-16.79-13.88-.17-1.44-.15-2.89-.23-4.35-.75-9.13,3.75-15.81,10.33-21.31,.89-.74,3.52-.65,4.48,.13,7.15,5.81,11.82,13.16,12.92,22.51Zm65.08,4.32c-.2,5.57-5.14,13.31-10.4,14.5-2.66,.59-6.25-.21-8.64-1.66-6.93-4.24-9.59-11.95-7.62-19.77,1.47-5.86,9.43-15.67,15.41-18.82,6.7,7.28,11.61,15.33,11.24,25.76Zm67.64,.08c-.51,6.52-5.79,14.12-11.02,14.89-5.28,.78-12.65-4.9-14.75-11.3-1.76-5.43-1.24-10.76,1.94-15.33,3.61-5.2,7.91-9.9,12.15-15.08,8,8.17,12.53,16.26,11.69,26.82Zm68.71-2.38c.61,8.28-5.36,15-13,14.89-6.92-.1-13.26-5.48-14.51-12.61-1.8-10.28,.79-19.12,8.61-26.39,2.13-2,3.73-2.11,5.82-.42,7.82,6.34,12.34,14.47,13.08,24.53Zm65.53,1.52c-.12,6.06-4.61,13.36-10.14,15.31-1.69,.59-3.91,.4-5.65-.13-6.88-2.09-12.33-10.85-11.42-17.9,1.02-7.84,8.59-18.43,16.07-22.25,6.38,7.11,11.33,14.82,11.14,24.96Zm67.06,1.08c-.61,6.77-5.5,14.06-10.54,14.68-5.31,.66-12.65-5.12-14.68-11.44-1.68-5.27-1.2-10.45,1.85-14.86,3.67-5.34,8.08-10.17,12.2-15.26,8.68,7.92,12.09,16.46,11.17,26.89Zm69.28-3.72c.81,7.51-3.98,14.91-10.32,15.94-7.73,1.27-15.68-4.42-17.05-12.32-.33-1.9-.35-3.85-.52-5.78-.66-9.07,3.61-15.88,10.24-21.35,.92-.75,3.52-.68,4.5,.08,7.54,5.97,12.11,13.74,13.15,23.43Zm64.87,2.84c-.13,5.89-4.76,13.58-10.3,15.06-2.49,.66-5.91-.01-8.23-1.31-7.35-4.11-10.68-13.04-7.83-20.91,2.77-7.62,8.36-13.18,14.73-18.58,6.93,7.92,11.85,15.66,11.63,25.74Zm67.08-8.87c2.46,5.98-.34,18.95-7.53,23.27-3.65,2.18-6.93,1.23-10.01-.66-8.17-5.05-11.18-15.34-6.24-23.68,3.37-5.72,8.06-10.65,12.17-15.92,.84,.09,1.67,.17,2.51,.25,3.08,5.57,6.69,10.89,9.1,16.73Zm69.3,9.98c-.64,6.04-6.02,11.71-11.44,12.06-7.22,.47-14.01-4.14-15.68-11.11-2.94-12.26,.97-22.25,10.45-30.23,9.9,4.77,17.78,18.68,16.67,29.29Zm64.81-.42c-.19,5.39-5.52,13.46-10.57,14.46-2.56,.53-5.93-.21-8.23-1.57-6.81-4.07-9.62-11.62-7.91-19.3,1.39-6.23,9.22-16.15,15.44-19.42,6.8,7.27,11.66,15.37,11.28,25.83Zm67.07,.45c-.47,6.13-3.3,10.72-8.22,13.38-2.26,1.22-6.48,.58-8.99-.74-7.55-3.99-10.85-13.22-7.79-21.31,2.82-7.42,8.26-12.89,14.39-18.03,8.19,7.71,11.41,16.28,10.61,26.7Zm69.33-2.96c.66,8.26-5.29,15.06-12.89,14.98-6.84-.07-13.19-5.15-14.52-11.96-2.11-10.84,.46-20.24,9.36-27.26,1.07-.84,3.85-.97,4.84-.19,7.91,6.18,12.42,14.38,13.21,24.42Zm64.76,1.82c-.13,5.93-4.75,13.59-10.29,15.06-2.51,.66-5.94,.01-8.25-1.29-7.28-4.11-10.36-12.99-7.88-20.96,1.69-5.5,9.47-14.85,15.12-18.03,6.6,7.12,11.51,14.95,11.3,25.22Zm67.65,2.62c-.98,8.78-10.89,15.33-17.61,11.44-7.34-4.22-11-13.44-8.01-21.43,2.81-7.47,8.31-12.94,14.5-18.23,8.24,8.31,12.36,17.2,11.12,28.22Zm68.56-6.05c.97,8.25-3.82,15.79-10.61,16.58-8.05,.95-15.74-5.03-16.91-13.25-.25-1.76-.22-3.55-.32-5.34-.36-8.41,3.4-14.87,9.24-20.55,2.19-2.13,3.89-1.78,5.86-.15,7.17,5.93,11.62,13.38,12.73,22.71Zm65.75,3.5c-.11,5.91-4.85,13.59-10.37,15.02-2.5,.64-5.92-.04-8.24-1.34-7.09-3.98-10.46-12.74-7.87-20.52,2.62-7.89,8.43-13.46,14.74-18.92,7.05,7.65,11.94,15.52,11.74,25.77Zm68.15-3.64c.28,1.57,.13,3.45-.33,5.39-.26,1.12-2.11,9.86-9.27,12.96-2.37,1.01-4.46,1.07-5.04,1.07-.08,0-3.4-.01-6.56-1.78-5.81-3.23-9.46-13.35-7.01-21.35,.99-3.26,3.74-6.66,9.27-13.46,1.88-2.33,3.53-4.19,4.68-5.47,.29-.24,.57-.47,.87-.7,.25,.22,.51,.45,.75,.68,7.76,6.99,11.21,14.35,12.64,22.66Zm65.03,4.69c-.42,9.91-11.19,17.53-18.59,13.03-7.27-4.42-10.51-13.46-7.72-21.53,1.93-5.58,9.24-14.31,15.01-17.73,6.99,7.6,11.73,15.78,11.31,26.24Zm67.07-.4c-.59,7.06-5.38,14.46-10.65,15.05-5.3,.59-12.5-5.18-14.54-11.6-1.69-5.28-1.11-10.45,1.89-14.86,3.58-5.27,7.91-10.02,12.14-15.26,8.56,8.04,12.07,16.36,11.17,26.67Zm69.23-4.27c1.01,8.55-3.8,16.18-10.72,16.92-8.27,.88-15.83-5.34-16.81-13.91-.18-1.44-.15-2.92-.23-4.35-.75-9.15,3.77-15.83,10.35-21.34,.89-.74,3.52-.65,4.48,.14,7.16,5.82,11.84,13.17,12.93,22.53Zm65.14,4.33c-.2,5.57-5.13,13.31-10.41,14.5-2.66,.61-6.25-.2-8.64-1.65-6.93-4.25-9.6-11.96-7.64-19.79,1.47-5.87,9.45-15.69,15.44-18.85,6.71,7.28,11.62,15.34,11.24,25.79Zm67.74,.07c-.52,6.54-5.8,14.14-11.05,14.91-5.28,.78-12.69-4.91-14.78-11.31-1.75-5.45-1.23-10.78,1.95-15.35,3.6-5.21,7.92-9.9,12.16-15.11,8.01,8.2,12.54,16.28,11.72,26.86Zm68.78-2.38c.61,8.3-5.36,15.01-13.03,14.91-6.92-.1-13.27-5.49-14.52-12.62-1.8-10.29,.79-19.15,8.61-26.44,2.16-2,3.74-2.1,5.82-.41,7.86,6.34,12.38,14.48,13.11,24.56Zm65.6,1.51c-.12,6.08-4.62,13.39-10.15,15.35-1.68,.59-3.91,.4-5.67-.14-6.89-2.09-12.33-10.85-11.43-17.92,1.01-7.84,8.61-18.44,16.07-22.27,6.41,7.12,11.36,14.84,11.18,24.99Zm67.13,1.1c-.61,6.77-5.5,14.06-10.56,14.69-5.3,.65-12.66-5.14-14.68-11.45-1.69-5.28-1.2-10.46,1.84-14.89,3.67-5.35,8.1-10.18,12.23-15.28,8.68,7.93,12.1,16.48,11.17,26.93Zm69.37-3.73c.8,7.53-3.99,14.93-10.32,15.96-7.78,1.25-15.71-4.43-17.1-12.33-.32-1.91-.34-3.87-.51-5.79-.67-9.09,3.61-15.89,10.26-21.39,.9-.75,3.52-.68,4.49,.09,7.55,5.98,12.13,13.75,13.17,23.46Zm64.94,2.85c-.14,5.89-4.77,13.59-10.32,15.06-2.49,.67-5.92-.01-8.23-1.31-7.36-4.1-10.7-13.05-7.84-20.94,2.77-7.62,8.37-13.19,14.75-18.6,6.93,7.93,11.86,15.69,11.64,25.79Zm67.17-8.88c2.46,5.98-.35,18.97-7.56,23.29-3.64,2.19-6.93,1.23-10-.66-8.19-5.06-11.21-15.36-6.26-23.71,3.37-5.72,8.08-10.66,12.2-15.95,.83,.09,1.66,.18,2.5,.28,3.09,5.56,6.71,10.9,9.12,16.76Zm69.37,9.98c-.63,6.05-6.03,11.73-11.45,12.08-7.23,.47-14.03-4.14-15.69-11.12-2.94-12.27,.98-22.27,10.47-30.29,9.9,4.79,17.78,18.7,16.67,29.33Zm64.9-.41c-.19,5.39-5.54,13.46-10.58,14.47-2.57,.53-5.94-.22-8.24-1.57-6.81-4.07-9.64-11.64-7.92-19.33,1.39-6.23,9.23-16.16,15.45-19.43,6.82,7.27,11.67,15.39,11.3,25.87Zm67.14,.44c-.47,6.15-3.31,10.74-8.23,13.4-2.27,1.23-6.48,.57-9-.75-7.56-3.98-10.86-13.24-7.79-21.32,2.81-7.43,8.26-12.92,14.4-18.06,8.19,7.72,11.41,16.32,10.62,26.73Zm69.42-2.95c.66,8.26-5.3,15.07-12.91,15-6.85-.08-13.22-5.16-14.56-11.97-2.11-10.85,.47-20.28,9.38-27.3,1.07-.85,3.85-.98,4.85-.19,7.9,6.18,12.42,14.38,13.22,24.46Zm64.82,1.8c-.12,5.94-4.75,13.61-10.3,15.07-2.51,.67-5.94,.01-8.26-1.29-7.29-4.1-10.36-13-7.89-20.98,1.71-5.5,9.51-14.86,15.15-18.04,6.6,7.12,11.52,14.97,11.3,25.24Z"/>
    </g>
  </g>
</svg>