<svg id="Camada_1" data-name="Camada 1" xmlns="http://www.w3.org/2000/svg" viewBox="0 0 2224.58 856.44"><path d="M1583.46,113.18a84.21,84.21,0,0,1,3.32-12l-.08,0a78.34,78.34,0,0,1,14.41-24.37A71,71,0,0,1,1612,66.69a75.4,75.4,0,0,1,12.79-7.61,72.12,72.12,0,0,1,27.52-6.69V25.65h68.3l41.7,19.45v6.73c1.25.2,2.5.42,3.77.68a75.31,75.31,0,0,1,14.77,4.68c.83.37,1.65.73,2.45,1.11l21.23,9.89a48.47,48.47,0,0,1,9.54,1l.68.2a58.33,58.33,0,0,1,6.62,2c1.67.62,3.25,1.28,4.76,2l.5.23,41.31,19.26c.55.25,1.08.51,1.61.78l12.19,6.18,7.64,78.47L1867.13,168a72.7,72.7,0,0,1-3.55,10.06,79.51,79.51,0,0,1-7.15,12.93,78.1,78.1,0,0,1-9.38,11.4l0,0a76.84,76.84,0,0,1-11.47,9.42,80.89,80.89,0,0,1-13.1,7.06,75.31,75.31,0,0,1-14.77,4.68,76.49,76.49,0,0,1-15.43,1.63,77.3,77.3,0,0,1-15.46-1.63,74.7,74.7,0,0,1-14.92-4.68c-.76-.33-1.52-.67-2.27-1l-8.89-4.14-3,1.39a105.65,105.65,0,0,1-10.8,4.27,104,104,0,0,1-11.14,3.14,105.38,105.38,0,0,1-11.1,1.8,100.14,100.14,0,0,1-11.15.67,91.32,91.32,0,0,1-14.56-1.23c-1.19-.19-2.37-.41-3.53-.64v77.64l-41.7-19.44-7.53-4.31a73.12,73.12,0,0,0-8.27,1.18,156.51,156.51,0,0,0-15.78,4.17c-22.45,7-50.36,6.77-74.07,6.6h-.28l0,0s-1.47,0-9.6,0h-24.91l-41.7-19.45v-3.36a104.52,104.52,0,0,1-11.64,2.77,107.7,107.7,0,0,1-18.84,1.66,106.15,106.15,0,0,1-15.63-1.19,111.23,111.23,0,0,1-15.52-3.48,95.88,95.88,0,0,1-12.83-4.92l-41.45-19.32-.32-.15c-.84-.39-1.68-.8-2.52-1.22-1.1-.55-2.18-1.12-3.25-1.7-1.92,4.44-3.64,8.27-4.94,10.88l-7,13.81h-63.61l-21-9.77v12.6h-78.85a104.17,104.17,0,0,1-11.74,2.8,107.7,107.7,0,0,1-18.84,1.66,106,106,0,0,1-15.12-1.11v45h-24.9c-19.13,0-34.31-3.2-46.37-8.82l-41.7-19.44c-.41-.19-.79-.41-1.19-.6l-1.46-.74q-2-1-3.93-2.19l-.63-.37c-39.1-24-39.41-77.63-39.66-123.8,0-3.8,0-7.53-.09-11.12-.08.31-.15.63-.22,1a41,41,0,0,0-.72,7c0,36-1.75,73-2.62,109.19H941.47v49.9h-24.9a96.47,96.47,0,0,1-41.27-8.95l-41.7-19.43q-2.24-1.05-4.44-2.22a136.88,136.88,0,0,1-18.09-11.41c-3.31-2.45-6.52-5.06-9.62-7.8H672.3a104.26,104.26,0,0,1-11.74,2.81,108.87,108.87,0,0,1-18.85,1.66,106.15,106.15,0,0,1-15.63-1.19H626a112.37,112.37,0,0,1-15.44-3.49,95.09,95.09,0,0,1-12.84-4.91l-36.84-17.18c-1.74,1.4-3.54,2.76-5.38,4.07a116.2,116.2,0,0,1-15.1,9.11,119.75,119.75,0,0,1-16.44,6.8v0a114.15,114.15,0,0,1-17.67,4.23,115.46,115.46,0,0,1-18.12,1.5,113.54,113.54,0,0,1-22.69-2.34,110.81,110.81,0,0,1-21.66-6.74c-1.12-.49-2.23-1-3.32-1.49L398.8,238.2a119.1,119.1,0,0,1-32.86-22.65,111.47,111.47,0,0,1-14.3-16.93,117.86,117.86,0,0,1-10.74-19.47,110.51,110.51,0,0,1-7-22,114,114,0,0,1-2.39-23,112,112,0,0,1,2.39-22.83,110.59,110.59,0,0,1,7-21.8,122.24,122.24,0,0,1,10.65-19.49,120.12,120.12,0,0,1,31-31.3A122.25,122.25,0,0,1,402,27.85a107.75,107.75,0,0,1,22.15-7.2A112.25,112.25,0,0,1,466,19.77a108.5,108.5,0,0,1,17.86,4.46,113.37,113.37,0,0,1,11.34,4.57l41.38,19.29a81,81,0,0,1,10.85-9.86,92.55,92.55,0,0,1,14.23-8.82,97.89,97.89,0,0,1,15.72-6.24,110.17,110.17,0,0,1,16.14-3.72A112.52,112.52,0,0,1,610,18.21a125.7,125.7,0,0,1,18.19,1.33,116,116,0,0,1,17.63,4A92.11,92.11,0,0,1,657.36,28l.57.26,29.85,13.92v-24l21.41-3.06c2.16-.3,5.17-.64,9-1,3.49-.32,6.74-.57,9.75-.73,2.64-.15,5.92-.28,9.8-.39q7.8-.22,9.26-.23,9.42,0,20.83,1,10.62,1,20.93,2.87A150.46,150.46,0,0,1,810,22.08a137.63,137.63,0,0,1,13.8,5.47l.77.36,15.68,7.31h68.14c2.14-.8,4.3-1.52,6.44-2.14a84.61,84.61,0,0,1,10.5-2.38q4.68-.73,8-1.08c3.17-.32,5.65-.49,7.43-.49a153.26,153.26,0,0,1,21.48,1.48,108.79,108.79,0,0,1,19.72,4.62,83.44,83.44,0,0,1,8.86,3.54l.4.18,33.28,15.51c.75-1,1.53-1.89,2.33-2.82a82,82,0,0,1,12.74-12,93.33,93.33,0,0,1,14.23-8.82,100.44,100.44,0,0,1,15.71-6.24,110.65,110.65,0,0,1,32.63-4.95A125.67,125.67,0,0,1,1120.27,21a115.81,115.81,0,0,1,17.64,4l1.45.46h75.26l41.69,19.44,7.37,11.57q3.15,4.95,5.83,9.53c.63-1.63,1.28-3.3,2-5q3.49-8.73,6.64-15.85,3.67-8.28,8.31-16.87,4.17-7.74,9.87-16.67L1303.66,0h99.19l41.7,19.44-5,6.92c2.57.93,5.08,2,7.54,3.11l14.64,6.83V3.67h80.06l41.7,19.45v90.06ZM484.58,130.65l-.15-.07-5.2-9.93a28.46,28.46,0,0,0-2.79,1,39.55,39.55,0,0,0-6.29,3.31,37.14,37.14,0,0,0-5.29,4.26,33.22,33.22,0,0,0-4.31,5,38.76,38.76,0,0,0-3.47,6.23,34,34,0,0,0-2.21,19.35v.1a33.45,33.45,0,0,0,2,6l0,0a38.59,38.59,0,0,0,7.06-3.1,38.16,38.16,0,0,0,7.61-5.61,33.11,33.11,0,0,0,5.4-6.92l7.23-12.26h16.45l-16.05-7.48Zm1098.88,48v-34a72.73,72.73,0,0,0,5.21,16.55,75.54,75.54,0,0,0,8,13.58c.73,1,1.48,2,2.26,2.9A101.56,101.56,0,0,0,1583.46,178.7Z" style="fill-rule:evenodd"/><path d="M1606.88,128.24a54.91,54.91,0,0,1,3.28-18.68,50.3,50.3,0,0,1,9.63-16.38,47.33,47.33,0,0,1,15.6-11.62,49.43,49.43,0,0,1,21.35-4.37,87.08,87.08,0,0,1,11,.79,25.32,25.32,0,0,1,9.45,2.79V50.57h18.47V173.14a81.37,81.37,0,0,1-16.79,5.66,80.09,80.09,0,0,1-17,1.88,64.34,64.34,0,0,1-20.85-3.37,52.92,52.92,0,0,1-17.59-9.93,46.66,46.66,0,0,1-12.11-16.4,54.41,54.41,0,0,1-4.47-22.74ZM891,83.81a29.68,29.68,0,0,1,9-15.06,50.5,50.5,0,0,1,14.21-9.13,65,65,0,0,1,15.05-4.4A78.39,78.39,0,0,1,940.71,54Q960,54,974,58.77a52.3,52.3,0,0,1,23,14.89q9,10.16,13.37,26.55C1020,136,996.4,240,1052.11,240v30.24c-99.84,0-53.43-132.89-75.88-168.17a35.64,35.64,0,0,0-12.85-12q-8.11-4.56-21.32-5.57a52.13,52.13,0,0,0-18.26,3.38,48.22,48.22,0,0,0-16.24,10,52.88,52.88,0,0,0-11.67,16.08c-3,6.31-4.39,13.53-4.57,21.64l-2,84.77H858.5l2-160.21h30.78L891,83.81Zm583.41,68v25.6q0,12.54-.17,22.34t-.18,15.8v6.35h-31.61v-18a54.23,54.23,0,0,1-24,17.34,84.64,84.64,0,0,1-28.86,5.1,83.16,83.16,0,0,1-24-3.61,68.39,68.39,0,0,1-21.64-10.82,54.72,54.72,0,0,1-15.47-18q-5.83-10.83-5.84-25.25,0-14.78,5-25.43a45.84,45.84,0,0,1,13.75-17.35,57.4,57.4,0,0,1,20.61-9.79,102.74,102.74,0,0,1,26-3.1,180.2,180.2,0,0,1,26.27,2.07,190.19,190.19,0,0,1,28.35,6.53v-1.37a20.19,20.19,0,0,0,.69-4.81v-4.48a33.31,33.31,0,0,0-13.05-27.48,41.23,41.23,0,0,0-13.24-6.7,52.46,52.46,0,0,0-15.28-2.23,63.21,63.21,0,0,0-14.77,1.72,41.52,41.52,0,0,0-13.07,5.49,33,33,0,0,0-9.62,9.45A26.09,26.09,0,0,0,1360,104.7h-31.61q1-15.12,7.39-26.45a59.48,59.48,0,0,1,16.15-18.73,70.69,70.69,0,0,1,22.16-11.17,86.52,86.52,0,0,1,25.42-3.78A96.57,96.57,0,0,1,1428,48.7a61.62,61.62,0,0,1,39.68,35.9q6,13.92,6.35,33.85v1.72q5.16-.69,10.48-1.72l2.09-.41V28.58h30.23V213.86c15.19,1.79,30.34.21,46.39-4.76,12-3.72,24.48-7,37.11-6.53a34.33,34.33,0,0,1,7.74,1.23,49.07,49.07,0,0,1,10.8,4.84v29.88q-9.62-5.49-18.54-5.83c-12.63-.49-25.15,2.81-37.11,6.52-21.88,6.8-53,5.49-76.62,5.49V149.8l-12.22,2Zm-31.61.74a35.84,35.84,0,0,1-7.39-1.37c-3.55-.92-7.67-1.89-12.37-3s-9.74-2-15.12-2.92a92.66,92.66,0,0,0-15.63-1.37,71.41,71.41,0,0,0-12.54,1.2,39.15,39.15,0,0,0-12.37,4.35,29.52,29.52,0,0,0-9.45,8,18.89,18.89,0,0,0-3.78,12.08,18.68,18.68,0,0,0,3.27,10.7,31,31,0,0,0,8.75,8.48,46.3,46.3,0,0,0,12.72,5.72,56.25,56.25,0,0,0,15.46,2.06,51,51,0,0,0,18.21-3.26,68.83,68.83,0,0,0,15.29-8.13,47,47,0,0,0,10.65-10.36c2.64-3.72,4.07-7,4.3-10.08V152.51Zm-265.8-.74v25.6q0,12.54-.17,22.34t-.17,15.8v6.35H1145v-18A54.2,54.2,0,0,1,1121,221.23a84.62,84.62,0,0,1-28.85,5.1,83.22,83.22,0,0,1-24.06-3.61,68.39,68.39,0,0,1-21.64-10.82,54.72,54.72,0,0,1-15.47-18q-5.84-10.83-5.84-25.25,0-14.78,5-25.43a45.84,45.84,0,0,1,13.75-17.35,57.4,57.4,0,0,1,20.61-9.79,102.69,102.69,0,0,1,26-3.1,180.44,180.44,0,0,1,26.28,2.07,190.47,190.47,0,0,1,28.35,6.53v-1.37a20.65,20.65,0,0,0,.68-4.81v-4.48a34.31,34.31,0,0,0-3.6-16.14,33.91,33.91,0,0,0-9.45-11.34,41.13,41.13,0,0,0-13.24-6.7,52.46,52.46,0,0,0-15.28-2.23,63.8,63.8,0,0,0-14.77,1.71,41.78,41.78,0,0,0-13.07,5.5,32.92,32.92,0,0,0-9.61,9.45,26,26,0,0,0-4.13,13.57H1031q1-15.12,7.39-26.45a59.61,59.61,0,0,1,16.15-18.73,70.79,70.79,0,0,1,22.16-11.17,86.54,86.54,0,0,1,25.43-3.78,96.5,96.5,0,0,1,28.52,4.13,61.62,61.62,0,0,1,39.68,35.9q6,13.92,6.36,33.85v1.72q5.14-.69,10.48-1.72,5.05-1,10.57-2.27-5.49-14.46-11.59-27.55-10.81-23.17-21.82-38.31h36.76a229.06,229.06,0,0,1,16.33,30.24q6.69,15.12,12,30.06t10,30.06c4.07,13.25,9,27.16,15.41,40.18,6.46-13,11.35-26.93,15.41-40.18,3.09-10.07,15.13-45.51,18.68-55.47s7.56-20,12-30.07a232.06,232.06,0,0,1,16.32-30.24H1354Q1343,40,1332.15,63.21a445.92,445.92,0,0,0-19.75,50.69q-4.47,13.39-9.28,28.17a232.4,232.4,0,0,1-11.69,29c-3.67,7.62-16.73,40.31-20.55,47.92h-32.5c-3.63-7.79-7.86-14.84-11.55-22.52a232.07,232.07,0,0,1-11.68-29c-2.4-7.38-4.78-14.51-7.05-21.38a86.16,86.16,0,0,1-31.11,5.66Zm-31.61.74a36,36,0,0,1-7.39-1.37c-3.55-.92-7.67-1.89-12.36-3s-9.74-2-15.13-2.92a92.66,92.66,0,0,0-15.63-1.37,71.41,71.41,0,0,0-12.54,1.2,39.15,39.15,0,0,0-12.37,4.35,29.52,29.52,0,0,0-9.45,8,20.2,20.2,0,0,0-.51,22.79,31,31,0,0,0,8.76,8.47,46.1,46.1,0,0,0,12.71,5.72,56.32,56.32,0,0,0,15.47,2.06,50.93,50.93,0,0,0,18.2-3.26,69.55,69.55,0,0,0,15.3-8.13,47.46,47.46,0,0,0,10.65-10.36c2.63-3.72,4.06-7,4.29-10.08V152.51ZM684.87,175.92q0,12.54-.17,22.34t-.17,15.8v6.36H652.92v-18a54.28,54.28,0,0,1-24,17.35,84.68,84.68,0,0,1-28.86,5.1A83.62,83.62,0,0,1,576,221.28a68.7,68.7,0,0,1-21.64-10.82,54.63,54.63,0,0,1-15.46-18.05Q533,181.59,533,167.16q0-14.76,5-25.42a45.84,45.84,0,0,1,13.74-17.35,57.23,57.23,0,0,1,20.61-9.79,102.34,102.34,0,0,1,25.95-3.1,177.92,177.92,0,0,1,26.29,2.07,190.58,190.58,0,0,1,28.34,6.52v-1.37a20.51,20.51,0,0,0,.68-4.81v-4.48A34.19,34.19,0,0,0,650,93.29,33.73,33.73,0,0,0,640.55,82a41.18,41.18,0,0,0-13.23-6.7A52.53,52.53,0,0,0,612,73a63.81,63.81,0,0,0-14.77,1.72,41.72,41.72,0,0,0-13.06,5.5,33,33,0,0,0-9.62,9.44,26,26,0,0,0-4.13,13.57h-31.6q1-15.1,7.39-26.45a59.43,59.43,0,0,1,16.14-18.73,70.93,70.93,0,0,1,22.17-11.16A86.47,86.47,0,0,1,610,43.13a96.41,96.41,0,0,1,28.52,4.12,61.54,61.54,0,0,1,39.68,35.91C687.46,104.66,684.87,152.38,684.87,175.92Zm-31.61-24.85a35.37,35.37,0,0,1-7.39-1.38c-3.55-.91-7.67-1.89-12.36-3s-9.74-2-15.12-2.92a92.91,92.91,0,0,0-15.64-1.38,71.21,71.21,0,0,0-12.53,1.2A39.65,39.65,0,0,0,577.85,148a29.7,29.7,0,0,0-9.46,8A18.93,18.93,0,0,0,564.61,168a18.71,18.71,0,0,0,3.27,10.71,30.64,30.64,0,0,0,8.77,8.47,45.82,45.82,0,0,0,12.71,5.73A56.17,56.17,0,0,0,604.81,195,51,51,0,0,0,623,191.73a69.67,69.67,0,0,0,15.29-8.13A47.49,47.49,0,0,0,649,173.23c2.63-3.72,4.06-7,4.29-10.07V151.07Zm32.63-13.8a41.19,41.19,0,0,1,7.39-21.12,37,37,0,0,1,17-13.93,5.65,5.65,0,0,1,2.4-.68V39.7q7.21-1,16.67-1.55t17.69-.51a206.09,206.09,0,0,1,37.27,3.43A116.4,116.4,0,0,1,818,52.41a68.48,68.48,0,0,1,24.4,21.3q9.45,13.4,9.44,33.32,0,25.1-11.79,41.58T804.6,174.72q6.45,11.68,13.86,23.54a146.93,146.93,0,0,0,15.92,21.3A83.12,83.12,0,0,0,852.87,235a41.77,41.77,0,0,0,22,6v29.2A71.68,71.68,0,0,1,840.74,262a116.9,116.9,0,0,1-28.3-21,180.92,180.92,0,0,1-22.79-28.18Q779.6,197.41,772,183a46.48,46.48,0,0,1-7.67,1.2c-3.55.34-9.91.74-19,1.2a8.32,8.32,0,0,0-1.55.17,7.53,7.53,0,0,1-1.54.17v34.71H712.69V179.19a22.78,22.78,0,0,1-6-3.78c-1.48-1.37-3.16-3-5-4.81A45.34,45.34,0,0,1,689.84,155a42.71,42.71,0,0,1-4-17.69Zm82-16.83a69.27,69.27,0,0,1,9.38,12q4.63,7.22,9.79,15.8c13.47-4.8,22.68-10.76,27.72-17.86s7.5-14.2,7.5-21.31q0-14.76-8.36-23.18a52.14,52.14,0,0,0-20.55-12.54,98.84,98.84,0,0,0-25.83-5c-9.1-.57-17.35-.86-24.63-.86a15.49,15.49,0,0,0-.34,4.48q0,3.44-.17,10.47t-.17,20.1a73.06,73.06,0,0,1,12.31,6.7,86.17,86.17,0,0,1,13.35,11.17Zm-8.14,35.73a82.82,82.82,0,0,0-6.18-9.63,84.06,84.06,0,0,0-8.42-9.78,48.87,48.87,0,0,0-10-7.73,21.32,21.32,0,0,0-10.82-3.09,11.61,11.61,0,0,0-8.59,3.95q-3.76,3.95-3.77,7.73a12.08,12.08,0,0,0,3.77,9.1,29.87,29.87,0,0,0,9.11,5.84,46.17,46.17,0,0,0,10.82,3.09,59.61,59.61,0,0,0,8.94.87l15.11-.35ZM532.37,163a92.09,92.09,0,0,1-13.23,24.56,89.7,89.7,0,0,1-19.75,19.25,92.66,92.66,0,0,1-24.91,12.54,89,89,0,0,1-28,4.46,86.12,86.12,0,0,1-34.52-7,94.24,94.24,0,0,1-28.69-19.06,89.42,89.42,0,0,1-19.58-28.52,87.84,87.84,0,0,1,0-69.75,95.59,95.59,0,0,1,19.58-29,94,94,0,0,1,28.86-19.92,85.65,85.65,0,0,1,35.38-7.39,87,87,0,0,1,28.35,4.64,88.12,88.12,0,0,1,24.57,12.88A97.06,97.06,0,0,1,520,80.41a101.67,101.67,0,0,1,13.75,25.25H499.39A56,56,0,0,0,477.91,83a58.49,58.49,0,0,0-30.41-8.24A56.53,56.53,0,0,0,425,79.38a63.28,63.28,0,0,0-19.07,12.54,60.13,60.13,0,0,0-13.23,18.89,56.89,56.89,0,0,0-.52,45.36,58,58,0,0,0,12.54,18.73,63,63,0,0,0,18.73,12.88,55.35,55.35,0,0,0,23,4.81,59.55,59.55,0,0,0,29.73-8.08A58.65,58.65,0,0,0,498.36,163Zm1195.27-42.33c18.48,6,35.13,5.81,52.82-.94l3.14-1.17a34.17,34.17,0,0,1,1.4,9.84,32.94,32.94,0,0,1-2.68,13.31,34.65,34.65,0,0,1-18.27,18.18,33.68,33.68,0,0,1-13.42,2.68,34.6,34.6,0,0,1-24.52-10,36.27,36.27,0,0,1-7.45-10.82,33.25,33.25,0,0,1,0-26.62,34.57,34.57,0,0,1,18.47-18,34.35,34.35,0,0,1,13.5-2.68,33.68,33.68,0,0,1,13.42,2.68,36.64,36.64,0,0,1,7.36,4.21,72.4,72.4,0,0,1-34.36,1.55,42.35,42.35,0,0,0-7.11,11,37.54,37.54,0,0,0-2.3,6.8Zm73.67-6.64c1.39-.16,2.79-.25,4.2-.28a28.71,28.71,0,0,1,13.13,3.28l-2-20.61a35.18,35.18,0,0,0-7.75-2.91,23.54,23.54,0,0,0-5.4-.53A53.89,53.89,0,0,0,1791,94.85c-1-1.23-2.11-2.42-3.25-3.56A53.45,53.45,0,0,0,1771,80a52.28,52.28,0,0,0-40.92,0,54.88,54.88,0,0,0-16.89,11.32A53,53,0,0,0,1701.77,108a50.6,50.6,0,0,0-4.17,20.47,50,50,0,0,0,4.17,20.26,53.07,53.07,0,0,0,11.42,16.69,54.88,54.88,0,0,0,16.89,11.32,52.28,52.28,0,0,0,40.92,0,53.3,53.3,0,0,0,28.1-28,49.7,49.7,0,0,0,4.18-20.26,51.53,51.53,0,0,0-2-14.37ZM1624,131.22a34.29,34.29,0,0,0,3.67,13.7,29.57,29.57,0,0,0,8,9.54,32.64,32.64,0,0,0,10.92,5.57,44.38,44.38,0,0,0,12.61,1.79,50.29,50.29,0,0,0,9.34-.9,46.27,46.27,0,0,0,8.75-2.48v-59a25.88,25.88,0,0,0-8-2.38,54.24,54.24,0,0,0-8.34-.79q-17.09,0-27,8T1624,131.22Z" style="fill:#fff"/><path d="M197.24,214.44H268l1.46.1q38.64,2.37,68,14.65,30.9,12.94,51.49,36.69a147.46,147.46,0,0,1,13.78,18.68c3.79-2.38,7.74-4.6,11.81-6.65a155.33,155.33,0,0,1,24.54-9.77,175.27,175.27,0,0,1,51.79-7.79H549a204.36,204.36,0,0,1,29.27,2.1,185.54,185.54,0,0,1,28,6.3,139.46,139.46,0,0,1,26.84,11.38,133.65,133.65,0,0,1,23.58,16.58,124.6,124.6,0,0,1,15.12,15.91c1.15-.45,2.32-.89,3.5-1.33Q684.06,308,692,305.6c5.21-1.6,10.79-3.11,16.7-4.53q9.62-2.29,16.3-3.47,7.56-1.34,16-2.23,7.68-.81,14.65-1.23c5.38-.31,9.92-.47,13.59-.47h58.13q39.79,0,72.8,13.69a170,170,0,0,1,30.69,16.52q4.44,3,8.63,6.32A134.88,134.88,0,0,1,954,309.91a125.71,125.71,0,0,1,19.47-18.29,146,146,0,0,1,22.09-13.71,156,156,0,0,1,24.56-9.77,175.14,175.14,0,0,1,51.79-7.79H1130a204.08,204.08,0,0,1,29.25,2.1,185.79,185.79,0,0,1,28.06,6.3,139.9,139.9,0,0,1,26.83,11.38,133.65,133.65,0,0,1,23.58,16.58,127.77,127.77,0,0,1,19.87,22.22,137.49,137.49,0,0,1,8.21,13.22h58.81q6.74-2.7,13.45-4.65a130.79,130.79,0,0,1,16.34-3.7c5-.81,9.43-1.41,13.11-1.78,4.67-.48,8.43-.73,11.27-.73h58.13q38.19,0,67.23,9.81a126.5,126.5,0,0,1,28.39,13.56,112.37,112.37,0,0,1,23.29,20q3.33,3.78,6.35,7.86a196.24,196.24,0,0,1,20.28-16.32,207.28,207.28,0,0,1,23.78-14.13,6,6,0,0,0,.65-.37,203.87,203.87,0,0,1,42.68-15.28,193.67,193.67,0,0,1,44.48-5.18h58.12a195.74,195.74,0,0,1,27.08,1.92l1.19.16v-63h83c145.47,0,146.15,122.85,146.7,223.79.21,38.59.41,73.24,9.38,87.33h.1a36.62,36.62,0,0,0,5.85,7.12,41.53,41.53,0,0,0,6.78,5.09c1.33-.69,2.64-1.44,3.93-2.23h.1a60.39,60.39,0,0,0,9.57-7.31,64.92,64.92,0,0,0,8.32-9.43,76.76,76.76,0,0,0,7-11.79,52.35,52.35,0,0,0,4-12.24,89.91,89.91,0,0,0,1.66-16l4.17-190.36h162.36l-4.23,350.12H2116q-6.72,2.7-13.43,4.66a132.68,132.68,0,0,1-16.35,3.69c-5.06.8-9.43,1.4-13.11,1.77q-7,.74-11.26.73h-58.14a252.3,252.3,0,0,1-35.5-2.4,177.11,177.11,0,0,1-31.72-7.4,126.17,126.17,0,0,1-28.4-13.57,111.66,111.66,0,0,1-20.81-17.34c-1.81,1.76-3.66,3.48-5.58,5.17a178.74,178.74,0,0,1-28.55,20.73,187.43,187.43,0,0,1-32.4,15,207.35,207.35,0,0,1-34.47,8.93,212.83,212.83,0,0,1-35.63,3h-58.13a203.7,203.7,0,0,1-27.4-1.9c-1.65-.23-3.29-.47-4.93-.74v51.4h-83c-145.48,0-146.15-122.85-146.7-223.8-.21-38.58-.41-73.23-9.37-87.33a36.78,36.78,0,0,0-6-7.11,42,42,0,0,0-6.78-5.09c-1.33.69-2.64,1.44-3.93,2.23a61.56,61.56,0,0,0-9.67,7.3,65,65,0,0,0-8.31,9.44,76.76,76.76,0,0,0-7,11.79,52.35,52.35,0,0,0-4,12.24,88.87,88.87,0,0,0-1.67,16l-4.17,190.36H1207.22l.74-61.18h-44.39a173.69,173.69,0,0,1-21.24,5.21,171.44,171.44,0,0,1-29.82,2.62h-58.12a166.32,166.32,0,0,1-24.7-1.87,176.83,176.83,0,0,1-24.58-5.53,148.32,148.32,0,0,1-24-9.57,141,141,0,0,1-20.94-12.82l-.69.81a169.52,169.52,0,0,1-25.17,23.7,181.49,181.49,0,0,1-29.93,18.49,152.8,152.8,0,0,1-36,12.43,189.53,189.53,0,0,1-39.73,4.05H793.85v97.62h-164V621.09H582.57a169.58,169.58,0,0,1-51.06,7.83H473.38a166,166,0,0,1-24.68-1.87,176.45,176.45,0,0,1-24.6-5.53,149.41,149.41,0,0,1-24-9.57,141.6,141.6,0,0,1-21.72-13.4,120,120,0,0,1-19.2-17.93,123.55,123.55,0,0,1-14.92-21.78,107,107,0,0,1-10-26.79q-1-4.15-1.64-8.41-5.41,2.4-11,4.48a184.27,184.27,0,0,1-31.88,8.64,190.79,190.79,0,0,1-33.13,2.87H198.34v169h-161V325.09a97.73,97.73,0,0,1-9.73-2,103.53,103.53,0,0,1-12-4L0,312.78V213.5H58.13l30.95,7.74c3.5.88,7,1.61,10.32,2.17,1.42.24,2.79.45,4.12.65,2.66-.16,5.59-.45,8.81-.86,6.42-.84,13.18-1.87,18.13-2.47q8-1.51,15.43-2.61t16.38-2q8.14-.81,17-1.22,10.24-.48,17.94-.48Z" style="fill-rule:evenodd"/><path d="M209.9,239.35q68.68,4.23,102.12,42.79t33.44,104.23a109.78,109.78,0,0,1-11.74,50.31,132.64,132.64,0,0,1-31.94,40.67,151.36,151.36,0,0,1-47,27.42,160.68,160.68,0,0,1-56.33,9.94H115.3v169h-53V302.62Q52,302,43,300.81A75.41,75.41,0,0,1,24.91,296V245.38a166.07,166.07,0,0,0,25,4.22q12.94,1.2,23.8,1.2a251,251,0,0,0,30.42-1.8q14.77-1.81,29.83-3.62,15.66-3,30.74-4.52t32.53-1.51ZM1782.72,578.12a44,44,0,0,1-5.87-1.52q-5.24-1.76-10.51-3.35-5.8-1.75-11.68-3.33a43.88,43.88,0,0,0-11.41-1.41,53.85,53.85,0,0,0-12.19,1.48,71.32,71.32,0,0,0-13.89,5L1705,580.75v-64.4l5.11-2.26a72.31,72.31,0,0,1,29.28-6.08,105,105,0,0,1,20.69,2.12q10,2,19.89,4.47,9.58,2.4,19.29,4.29a100.24,100.24,0,0,0,19.08,1.79,84.79,84.79,0,0,0,13.5-1.11,63.6,63.6,0,0,0,14-4.09l11.82-4.87v12.78c0,23.32-3.9,46.41-13.7,67.68a150.52,150.52,0,0,1-36.69,50.09,158.39,158.39,0,0,1-52.8,30.91,184.51,184.51,0,0,1-61.82,10.48,172.13,172.13,0,0,1-47.17-6.42,165.51,165.51,0,0,1-42.13-18.5,168.57,168.57,0,0,1-35.17-29,163.45,163.45,0,0,1-26.49-38.57,169.08,169.08,0,0,1-13.09-37,164.77,164.77,0,0,1,2.06-83.2,175.23,175.23,0,0,1,18.19-42.26,162.8,162.8,0,0,1,29.3-36,176.36,176.36,0,0,1,39.45-27.42l.16-.08A173.19,173.19,0,0,1,1694,346.21a167.28,167.28,0,0,1,123.49,53.92A165.46,165.46,0,0,1,1844,438.59a157,157,0,0,1,9.24,21.06l4,11.39h-12.07c-9,0-18,0-27-.24-4.47-.12-9-.25-13.42-.25a34.16,34.16,0,0,1-7.44-.49l-1-.25-3.88-1-1.74-3.6a101.71,101.71,0,0,0-39.39-43.69,111.18,111.18,0,0,0-106.93-4.06,105.15,105.15,0,0,0-25.48,17.78A112.16,112.16,0,0,0,1600,458.83a113.56,113.56,0,0,0-11.79,27.41,107.32,107.32,0,0,0,7.26,77.27c9,18.4,21.9,33.06,39.4,43.7,17.68,10.77,37,15.82,57.67,15.82a122.18,122.18,0,0,0,29.61-3.64,110.91,110.91,0,0,0,27.36-10.87,100.53,100.53,0,0,0,23.36-18.19,91.07,91.07,0,0,0,9.83-12.21Zm309.6,39.22a53,53,0,0,1-16,26.82,90.38,90.38,0,0,1-25.31,16.26,114.63,114.63,0,0,1-26.81,7.84,139.56,139.56,0,0,1-20.49,2.11q-34.34,0-59.34-8.44t-41-26.51q-16-18.07-23.8-47.3c-17.09-63.8,24.92-249-74.29-249V285.27c177.83,0,95.17,236.7,135.15,299.54a63.54,63.54,0,0,0,22.89,21.39q14.46,8.13,38,9.93a93,93,0,0,0,32.54-6,86.12,86.12,0,0,0,28.93-17.77,94.72,94.72,0,0,0,20.78-28.62c5.42-11.25,7.82-24.1,8.13-38.57l3.63-165.94h54.84l-3.63,300.31h-54.84l.6-42.18ZM1290.19,399.23a53,53,0,0,1,16-26.81,90.8,90.8,0,0,1,25.3-16.27,115.42,115.42,0,0,1,26.82-7.83,139.56,139.56,0,0,1,20.49-2.11q34.34,0,59.35,8.43t41,26.52q16,18.07,23.8,47.3c17.1,63.79-24.91,249,74.3,249v53.88c-177.83,0-95.17-236.7-135.16-299.54a63.49,63.49,0,0,0-22.9-21.39q-14.46-8.14-38-9.94a93.06,93.06,0,0,0-32.54,6,86.07,86.07,0,0,0-28.92,17.78,94.43,94.43,0,0,0-20.78,28.62c-5.43,11.25-7.83,24.1-8.15,38.56l-3.63,165.94h-54.82l2.28-189.17-31.41,5.06v44.89q0,22-.3,39.17t-.3,27.72v11.14h-55.44V564.64q-17.46,21.54-42.17,30.43a148.61,148.61,0,0,1-50.61,8.93,146,146,0,0,1-42.18-6.32,120.16,120.16,0,0,1-38-19,96.18,96.18,0,0,1-27.12-31.63q-10.25-19-10.24-44.29,0-25.92,8.73-44.59a80.59,80.59,0,0,1,24.11-30.43,100.61,100.61,0,0,1,36.15-17.17,179.72,179.72,0,0,1,45.49-5.43,314,314,0,0,1,46.1,3.63,333.35,333.35,0,0,1,49.7,11.44v-2.41a35,35,0,0,0,1.21-8.43v-7.84q0-16.26-6.33-28.31a59.19,59.19,0,0,0-16.56-19.89,72.44,72.44,0,0,0-23.2-11.75,92.18,92.18,0,0,0-26.82-3.91,111.26,111.26,0,0,0-25.9,3,72.72,72.72,0,0,0-22.9,9.64,57.57,57.57,0,0,0-16.87,16.57q-6.63,9.94-7.23,23.8H947.13q1.8-26.5,13-46.4a104.73,104.73,0,0,1,28.31-32.84,124.51,124.51,0,0,1,38.87-19.58,152,152,0,0,1,44.59-6.62,169.15,169.15,0,0,1,50,7.23,111,111,0,0,1,41.27,22.89q17.77,15.67,28.32,40.07t11.15,59.35v3q9-1.2,18.38-3c4.6-.89,9.38-1.89,14.31-3l.67-54.76h54.83l-.61,42.18Zm-142.41,75.33q-3.62,0-13-2.41c-6.23-1.61-13.47-3.31-21.7-5.22s-17.07-3.51-26.51-5.12a163,163,0,0,0-27.42-2.41,124.6,124.6,0,0,0-22,2.11,68.6,68.6,0,0,0-21.69,7.63A52,52,0,0,0,999,483.09c-4.43,5.63-6.64,12.66-6.64,21.2a32.81,32.81,0,0,0,5.73,18.77,54.75,54.75,0,0,0,15.36,14.87,81,81,0,0,0,22.29,10,98.42,98.42,0,0,0,27.12,3.62,89.1,89.1,0,0,0,31.94-5.73,120.55,120.55,0,0,0,26.8-14.26,82.79,82.79,0,0,0,18.69-18.18c4.62-6.52,7.13-12.35,7.53-17.67V474.56Zm-378.53-156q34.95,0,63.27,11.76a138,138,0,0,1,48.2,32.83,144.22,144.22,0,0,1,30.43,49.72q10.54,28.62,10.55,63a171.64,171.64,0,0,1-10,57.24,155.44,155.44,0,0,1-29.22,50.62,149.12,149.12,0,0,1-47.3,36.14q-28,13.88-64.77,13.87-15.06,0-32.24-1.51a202.22,202.22,0,0,1-27.41-3.91v103h-56V468l-32.56,5.25v44.89q0,22-.3,39.17t-.3,27.72v11.14H566.17V564.64Q548.69,586.18,524,595.07A148.57,148.57,0,0,1,473.38,604a146.06,146.06,0,0,1-42.18-6.32,120.37,120.37,0,0,1-38-19,96.15,96.15,0,0,1-27.11-31.63q-10.25-19-10.25-44.29,0-25.92,8.75-44.59a80.45,80.45,0,0,1,24.09-30.43,100.66,100.66,0,0,1,36.16-17.17,179.66,179.66,0,0,1,45.49-5.43,315.12,315.12,0,0,1,46.09,3.62,334.78,334.78,0,0,1,49.71,11.45v-2.41a35.49,35.49,0,0,0,1.2-8.44v-7.83q0-16.26-6.32-28.31a59.33,59.33,0,0,0-16.57-19.89,72.33,72.33,0,0,0-23.2-11.75,92.12,92.12,0,0,0-26.81-3.91,111.34,111.34,0,0,0-25.91,3,73,73,0,0,0-22.9,9.64,57.66,57.66,0,0,0-16.87,16.56q-6.63,10-7.23,23.81H366.13q1.81-26.5,12.95-46.4a104.64,104.64,0,0,1,28.32-32.84,124.35,124.35,0,0,1,38.86-19.58,152.1,152.1,0,0,1,44.59-6.62,169.22,169.22,0,0,1,50,7.23,111.11,111.11,0,0,1,41.27,22.89q17.77,15.67,28.31,40.07t11.16,59.35v3q9-1.2,18.37-3,7.13-1.38,14.79-3.11v-63A170.54,170.54,0,0,1,684,334.55a262.15,262.15,0,0,1,30.43-9.34,226.71,226.71,0,0,1,29.22-5.13,245.61,245.61,0,0,1,25.61-1.51ZM869.87,466.8q0-24.1-9.94-41.87A87,87,0,0,0,834.33,396a110.83,110.83,0,0,0-35.85-16.56A156,156,0,0,0,757.81,374a141.87,141.87,0,0,0-47,8.44V571.64A146.38,146.38,0,0,0,734.3,575q13.26.9,23.51.91,25.89,0,46.69-6.33T839.75,550Q854.21,536.7,862,516.21T869.87,466.8Zm-303.1,7.76q-3.62,0-12.95-2.41c-6.23-1.61-13.45-3.31-21.69-5.22s-17.07-3.51-26.51-5.12a163.12,163.12,0,0,0-27.42-2.41,124.43,124.43,0,0,0-22,2.11,68.51,68.51,0,0,0-21.69,7.63A52,52,0,0,0,418,483.09c-4.42,5.63-6.63,12.66-6.63,21.2a32.81,32.81,0,0,0,5.73,18.77,54.48,54.48,0,0,0,15.36,14.87,80.64,80.64,0,0,0,22.3,10,98.17,98.17,0,0,0,27.1,3.62,89,89,0,0,0,31.94-5.73,120.7,120.7,0,0,0,26.82-14.26,82.88,82.88,0,0,0,18.67-18.18c4.62-6.52,7.13-12.35,7.53-17.67V474.56Zm-268.91-90.9a172.42,172.42,0,0,0-3-32.14A66.76,66.76,0,0,0,282.2,323c-6.43-8.43-15.67-15.46-27.72-21s-28.12-9-48.2-10.24q-16.87,0-40.07,1.2a283.13,283.13,0,0,0-50.91,7.83V462.29h83.15a125.21,125.21,0,0,0,37.35-5.42,98.34,98.34,0,0,0,31-15.87,83.87,83.87,0,0,0,21.7-24.9,75.75,75.75,0,0,0,9.33-32.44Z" style="fill:#fff"/><path d="M1174.42,698.52l17.21,12.06a52.62,52.62,0,0,1,5.67,4.59,50.79,50.79,0,0,1,6.61,7.53,52.49,52.49,0,0,1,5.07,8.67,47.21,47.21,0,0,1,3,8.77l30.81-40,5.64-7.33c11.2,0,22.31,0,33.43,0l17.22,12.06v70l.18.06,17.21,12v38.64l-13.74-3.51c-1.25-.32-2.46-.6-3.65-.85v27.29h-39.07l-17.22-12V825.32q-3.91.43-8.49.56c-3,.07-5.87,0-8.65-.15a66.5,66.5,0,0,1-9.55-1.3c-.78-.16-1.57-.34-2.36-.54V839.3l-5,3.28a48.44,48.44,0,0,1-8.82,4.63,42.09,42.09,0,0,1-9.39,2.6,70.41,70.41,0,0,1-8.53.72,73.25,73.25,0,0,1-8.59-.29c-2.7-.24-5.42-.58-8.17-1-3.07-.48-5.79-1-8.15-1.49q-3.78-.82-7-1.36t-7-1c-2.36-.27-4.5-.43-6.44-.46s-4.12,0-6.47.21a25,25,0,0,0-5.13.93,29.07,29.07,0,0,0-5.29,2.12l-16,8.23-17.21-12.05V844c-1.33.7-2.7,1.35-4.13,2A49.35,49.35,0,0,1,1072,849a62.71,62.71,0,0,1-11.26,1,55.24,55.24,0,0,1-10.71-1,52.2,52.2,0,0,1-10.22-3.15,56.25,56.25,0,0,1-9-4.82c-.48-.31-.95-.62-1.41-.95L1018,832v7.28l-5,3.28a48.77,48.77,0,0,1-8.82,4.63,42,42,0,0,1-9.4,2.6,70.41,70.41,0,0,1-8.53.72,73.18,73.18,0,0,1-8.59-.29c-2.7-.24-5.42-.58-8.16-1-3.07-.48-5.79-1-8.16-1.49s-4.85-1-7-1.36-4.55-.7-7-1-4.51-.43-6.44-.46-4.12,0-6.47.21a25,25,0,0,0-5.13.93,29.28,29.28,0,0,0-5.28,2.12l-16,8.23-17.21-12.05v-35.8a50.09,50.09,0,0,1,4.13-21,50.63,50.63,0,0,1,4.56-8,47.66,47.66,0,0,1,5.92-7c.41-.39.82-.78,1.24-1.15l-13-9.07V740.93l0-.73a69,69,0,0,1,1.4-10,62.66,62.66,0,0,1,2.95-9.51,54,54,0,0,1,4.48-8.86,51.57,51.57,0,0,1,6.07-7.82,48.53,48.53,0,0,1,16.71-11.38,51.14,51.14,0,0,1,10.38-3,61.71,61.71,0,0,1,11.14-1,54.75,54.75,0,0,1,20.53,3.91,56.05,56.05,0,0,1,9,4.58c.76.48,1.51,1,2.24,1.49l17.21,12.06c.9.63,1.77,1.27,2.62,1.95l.46-.74A51.57,51.57,0,0,1,1005,704a47.06,47.06,0,0,1,7.71-6.51,49.82,49.82,0,0,1,19.37-7.91,61.74,61.74,0,0,1,11.15-1,54.15,54.15,0,0,1,10.61,1,51.82,51.82,0,0,1,10.12,3.15,57,57,0,0,1,9,4.81l1.32.9.11.07,17.19,12a53.68,53.68,0,0,1,5.16,4.1c.53-1,1.09-1.94,1.67-2.86a50.51,50.51,0,0,1,6.08-7.82,46.56,46.56,0,0,1,7.7-6.51,49.78,49.78,0,0,1,19.38-7.91,61.8,61.8,0,0,1,11.14-1,54.7,54.7,0,0,1,20.52,3.91,56.16,56.16,0,0,1,9,4.58c.77.48,1.52,1,2.25,1.49Z" style="fill-rule:evenodd"/><path d="M901.77,808.59a39.39,39.39,0,0,1,3.09-16.43,37.41,37.41,0,0,1,8.12-11.6,46.46,46.46,0,0,1,11.41-8q6.38-3.19,13-5.8t13.05-4.83a67,67,0,0,0,11.41-5.12,27.74,27.74,0,0,0,8.12-6.86,15.42,15.42,0,0,0,3.09-9.77,20.46,20.46,0,0,0-2-9.27,29.31,29.31,0,0,0-5.61-7.64,26.34,26.34,0,0,0-18.65-7.63,24.21,24.21,0,0,0-9.86,2,26.54,26.54,0,0,0-13.82,13.91,25,25,0,0,0-2,10v9.87H904.67V740.93a53.64,53.64,0,0,1,3.57-16.23,40.8,40.8,0,0,1,8.32-13.14,37.59,37.59,0,0,1,13-8.8,44.43,44.43,0,0,1,17.3-3.19,43.87,43.87,0,0,1,16.43,3.09,43.33,43.33,0,0,1,13.53,8.51A40.52,40.52,0,0,1,986,723.93a37.47,37.47,0,0,1,3.38,15.84q0,11.61-5.12,19a46.21,46.21,0,0,1-12.85,12.37,83.09,83.09,0,0,1-16.63,8.31q-8.9,3.29-16.52,6.76a52.92,52.92,0,0,0-12.76,7.94,14.41,14.41,0,0,0-5.12,11.4,32.47,32.47,0,0,1,11-1.16,81.8,81.8,0,0,1,10.91,1.54q5.52,1.17,11,2.42a60,60,0,0,0,11.41,1.45,48.92,48.92,0,0,0,12.08-1.16,43.61,43.61,0,0,0,13-5.41v18.16a34.38,34.38,0,0,1-13.82,5.51,60.25,60.25,0,0,1-14.49.39,122.86,122.86,0,0,1-15-2.32,151.77,151.77,0,0,0-15.07-2.51,77.53,77.53,0,0,0-15-.29,38.09,38.09,0,0,0-14.59,4.25V808.59Zm183.93-23.2a56.15,56.15,0,0,1-3.49,16.34A38.45,38.45,0,0,1,1073.9,815a38.94,38.94,0,0,1-12.94,8.79,44.49,44.49,0,0,1-17.4,3.19,42.11,42.11,0,0,1-16.63-3.29,43.92,43.92,0,0,1-13.52-8.89A40.37,40.37,0,0,1,1001,785.39V740.93a53.64,53.64,0,0,1,3.57-16.23,40.94,40.94,0,0,1,8.31-13.14,37.43,37.43,0,0,1,12.95-8.79,44.26,44.26,0,0,1,17.31-3.2,41.37,41.37,0,0,1,16.42,3.29,44,44,0,0,1,13.53,8.89,43.58,43.58,0,0,1,9.28,13.14,42.61,42.61,0,0,1,3.87,16l-.58,44.46Zm-68.43-.39a25.11,25.11,0,0,0,2,10,26.26,26.26,0,0,0,5.6,8.3,25.94,25.94,0,0,0,8.41,5.61,26.26,26.26,0,0,0,10.25,2,25.45,25.45,0,0,0,18.17-7.64,28.62,28.62,0,0,0,5.6-8.3,24,24,0,0,0,2.13-10V741.51a25,25,0,0,0-2-10,26.23,26.23,0,0,0-24.25-15.94,24.22,24.22,0,0,0-9.87,2,26.54,26.54,0,0,0-13.82,13.91,25,25,0,0,0-2,10v6.78l-.19,36.71Zm80.32,23.59a39.39,39.39,0,0,1,3.09-16.43,37.69,37.69,0,0,1,8.12-11.6,46.21,46.21,0,0,1,11.4-8q6.38-3.19,13.06-5.8t13-4.83a66.86,66.86,0,0,0,11.4-5.12,27.62,27.62,0,0,0,8.12-6.86,15.35,15.35,0,0,0,3.1-9.77,20.46,20.46,0,0,0-2-9.27,29.77,29.77,0,0,0-5.61-7.64,26.39,26.39,0,0,0-18.65-7.63,24.21,24.21,0,0,0-9.86,2,26.71,26.71,0,0,0-8.22,5.6,26.3,26.3,0,0,0-5.6,8.31,24.88,24.88,0,0,0-2,10v9.87h-16.43V740.93a53.35,53.35,0,0,1,3.58-16.23,40.6,40.6,0,0,1,8.31-13.14,37.4,37.4,0,0,1,12.95-8.8,44.46,44.46,0,0,1,17.3-3.19,43.6,43.6,0,0,1,16.42,3.1,43.06,43.06,0,0,1,13.54,8.5,40.21,40.21,0,0,1,9.18,12.76,37.32,37.32,0,0,1,3.38,15.84q0,11.61-5.12,19a46,46,0,0,1-12.86,12.37,83.27,83.27,0,0,1-16.62,8.31q-8.88,3.29-16.52,6.76a53,53,0,0,0-12.77,7.94,14.41,14.41,0,0,0-5.12,11.4,32.47,32.47,0,0,1,11-1.16,81.63,81.63,0,0,1,10.93,1.54q5.51,1.17,11,2.42a59.85,59.85,0,0,0,11.4,1.45,49,49,0,0,0,12.09-1.16,43.61,43.61,0,0,0,13-5.41v18.16a34.38,34.38,0,0,1-13.82,5.51,60.34,60.34,0,0,1-14.5.39,123.3,123.3,0,0,1-15-2.32,151.48,151.48,0,0,0-15.08-2.51,77.44,77.44,0,0,0-15-.29,38.09,38.09,0,0,0-14.59,4.25V808.59Zm173.29,16.81h-17V703.83h17Zm-17-121.57,5.6,17-54.71,73.64L1193,782.88l60.89-79Zm34.4,95.48a78.14,78.14,0,0,0-17.4-2.51,109.09,109.09,0,0,0-16,.77q-7.75,1-15.28,2.42t-15.07,2.32a87.37,87.37,0,0,1-15.38.39,60.21,60.21,0,0,1-16.13-3.39V782.88a61.16,61.16,0,0,0,16.23,3,85.41,85.41,0,0,0,15.28-.77q7.53-1.07,15.07-2.61t15.28-2.51a86.65,86.65,0,0,1,16-.48,70.89,70.89,0,0,1,17.4,3.38v16.43Z" style="fill:#fff"/></svg>