<svg id="Camada_13" data-name="Camada 13" xmlns="http://www.w3.org/2000/svg" viewBox="0 0 1157.1 366.9"><path d="M50.4,337.26a6.6,6.6,0,0,1-.45-.78c-.89-1.83-.06-3.39,1-4.82a6.2,6.2,0,0,1,1.53-1.29c1.83-1.34,3.77-1.45,5.25-.46l-3.2,7Z" style="fill:#fdcb08"/><path d="M115.36,364.72c1.82-.22,3.64-.48,5.46-.8h0c1-.17,2.08-.36,3.13-.59a108.45,108.45,0,0,0,17-4.91,136.44,136.44,0,0,0,30.09-15.73,84.88,84.88,0,0,0,16.43-14.62,25.66,25.66,0,0,0,3.36-5.16q3.49-6.93,7.07-13,3.08-5.22,4.64-14.24,3.19-18.54,2.58-31.85c0-.92.14-1,.52-.13q5,10.49,3.62,19.19a72.44,72.44,0,0,1-7.94,22.5c-2.19,4.08-3.91,9-3.51,13.53.92,10.33,8.65,22,20.11,22.75,2,.13,4,.27,6,.43,6.82.51,14.1-3.51,19.3-7.75,1.4-1.14,2.15-2.73,3.45-4,3.83-3.86,6.25-10.84,7.08-15.86a63.06,63.06,0,0,0-2.24-30.66c-1.8-5.34-5.35-10.16-8-15.09-.37-.67-.19-.87.52-.62a54.71,54.71,0,0,0,16.38,3.13c15.31.48,28-1.53,41.15-10q12-7.74,18.95-16.17,9.4-11.43,13.15-29.65A100.3,100.3,0,0,0,332,166.83a.63.63,0,0,1,.55-.92,180,180,0,0,1,22.17-3.42c9.77-.78,19.94-1.77,29.8-2,8.81-.26,17.64-.74,26.59-.66q25.47.28,50.23-.67,8.11-.28,18.3-.3,7.8,0,17.78-.28c14.91-.44,27.89-5.1,41.42-10.7A44.16,44.16,0,0,0,553.72,138c7.92-8.47,16.3-17.35,20.45-28,1-2.52,2-5.07,2.88-7.62a38.54,38.54,0,0,0,1.55-5.59c.59-3,.85-5.9,1.22-9a31.38,31.38,0,0,0,.14-6.18q-.44-5.82-1.35-11.37a105.8,105.8,0,0,0-7.94-26.39c-1.6-3.58-3.22-7.18-4.82-10.81a50.09,50.09,0,0,0-9.8-14.28C550.91,13.34,545,7.85,538.62,4.39A37.86,37.86,0,0,0,517.32.13a84.77,84.77,0,0,0-24.08,5.55c-4.58,1.74-8.6,4.53-12.86,6.78C471.72,17,463,28.19,459.68,36q-10.47,24.74,5.71,45.69c.39.51.26.79-.38.85a24.28,24.28,0,0,1-4.62-.15q-21-2.53-45.92-7c-8.23-1.5-16.25-3.82-24.44-5.88-6.26-1.58-12.29-3.32-18.1-5.28Q356.45,59,340.79,53.87c-1.47-.47-2.92-.88-4.38-1.23-3.69-.85-7.09-2.46-10.81-3.4s-7.12-1.93-10.76-2.57a69.64,69.64,0,0,1-8.14-2,261.82,261.82,0,0,0-35.87-8,173.31,173.31,0,0,0-46.64-1.38A332.52,332.52,0,0,0,170,46.51a111.59,111.59,0,0,0-20.67,8.2,183.73,183.73,0,0,0-18.89,11.16Q106.7,82.33,89.48,111.19c-7.07,11.86-12.3,24.54-18,37a24.5,24.5,0,0,0-2.4,8.76,36.44,36.44,0,0,1-1,7.67A122.16,122.16,0,0,0,64,185.57q-3.13,32.93-1.35,73.77c.47,10.47-.36,19-3.58,28.37q-3.13,9.18-7.45,19.57c-4.44,10.69-11.06,18.4-18.72,26.87a67.07,67.07,0,0,1-13.51,11.67,69.16,69.16,0,0,1-18.3,8.33.54.54,0,0,0-.19.07,1.25,1.25,0,0,0-.6,1.66c1.14,2.33,2.91,3.28,5.58,3.72,9.29,1.57,18.31,3,27.7,3.81.7.06,1.4.12,2.11.15h0c.64.06,1.28.1,1.92.14q10.92.66,21.57,1.82a203.61,203.61,0,0,0,21,1.27A280.08,280.08,0,0,0,115.36,364.72Zm132-78a75.71,75.71,0,0,1,1.42,25.65,26.53,26.53,0,0,1-2.46,9c-2,4.05-5.56,6-8.52,9.35a17.19,17.19,0,0,1-20.27,4.27c-3.6-1.58-7.91-3.7-10.28-6.91q-8.08-10.81-.82-21.92a50.06,50.06,0,0,0,7.52-33.39,42.28,42.28,0,0,0-7.39-18.67,8.4,8.4,0,0,1-1.61-4.42c-.12-2.09-.27-4.26-.43-6.52a.36.36,0,0,1,0-.15.73.73,0,0,1,.23-.29l.12,0a.33.33,0,0,1,.24,0l.12,0a138.67,138.67,0,0,1,18.89,13.65,163.13,163.13,0,0,1,12.22,11.17C241.45,273.09,245.5,279.33,247.34,286.76ZM330.73,186a111.64,111.64,0,0,1-.45,19.39c-1.46,15.76-8.62,31.41-19.42,42.19-18.4,18.32-46.11,24.42-70.25,14.14-2.74-1.16-4.36-3.26-6.63-5s-4.65-3.77-6.86-5.74a83.35,83.35,0,0,0-22.62-13.84,1.24,1.24,0,0,1-.8-1.09c-1-9.8-2.46-19.34-2.55-29a137,137,0,0,1,8.09-46.87c.51-1.45.83-1.41,1,.13.24,3.19.16,6.35.58,9.59q3.45,25.66,28,37.64a55.36,55.36,0,0,0,29.32,5.09c16-1.3,32.87-16.52,35.55-32.26,1.56-9.16.45-20.57-5.55-27.69a39.93,39.93,0,0,1-2.53-3.29c-3.88-5.55-10.58-9.55-17-11.45q-5.87-1.72.25-1.63a95.61,95.61,0,0,1,17.43,1.95,19.61,19.61,0,0,1,6.95,3c3.3,2.22,6.88,3.35,10.05,6.05a39,39,0,0,1,10.41,13.27A74.9,74.9,0,0,1,330.73,186ZM296,174.91q-3.77,11.76-15.32,15c-13.26,3.71-25.56-3.08-29.73-16.18-3.41-10.75-1.38-21.88,7-29.79a10.81,10.81,0,0,1,6.48-2.81q16.71-1.68,27.12,10.4C297.26,158.07,298.64,166.71,296,174.91ZM574.59,74.39c.48,8.48.07,18.1-3.32,26-3.16,7.37-5.8,15.66-10.82,22-15.29,19.3-32.84,27.16-56.1,29.6a304.1,304.1,0,0,1-32.57,1.66q-12.66,0-26.85.51-23.16.87-32.55.77-34.29-.39-56.16,1.63-6.15.58-25.61,4.38a1.19,1.19,0,0,1-1.42-.73A60.74,60.74,0,0,0,318,145a48.48,48.48,0,0,0-26.28-13.86c-5.95-1-12.09-2-17.92-.28-3.16.95-6.3,1.95-9.46,3-7.61,2.61-13.8,9.81-16.64,16.94q-5.62,14.11,1.75,30.53a17.74,17.74,0,0,0,6.39,7.63c6.21,4.18,15,7.78,22.11,6.07a50.4,50.4,0,0,0,7.62-2,24.59,24.59,0,0,0,13.17-12.58c.88-1.84,1.13-1.76.71.25-2,9.88-7.88,15.61-15.57,21.52-8.49,6.48-21.57,7.31-31.2,5.36q-12.56-2.55-24-12.35c-8.35-7.14-14.17-22.92-13.88-33.12.16-6.2,3.12-19.79,8.52-25.7,3-3.31,5.85-7.46,9.64-9.92q3.82-2.49,7.57-5,22.29-14.83,52.19-16.62c7.92-.47,14.46.68,22,1.69q21.72,2.91,27.9,4.88c7.78,2.47,15.53,4.56,23.25,6.2,11.58,2.49,21.61,5.68,32.55,7.46,14.71,2.37,28.95,5.15,44,6.61a203.77,203.77,0,0,0,22,.86c14-.15,28.07.55,41.73-1.08a150.72,150.72,0,0,0,19.82-4q15.66-4.06,25.58-12.5A77.8,77.8,0,0,0,566,98.19c4.8-7.37,6-15.21,6.95-23.84Q574,64.45,574.59,74.39ZM528.35,7.48q5.11,1.63,11,7.46a22.55,22.55,0,0,1,7.05,13.46c.19,1.41.88,2.82.8,4.25-.3,5.66-2.09,16.46-6.59,19.7-2.6,1.85-6.08,2.9-9,4.08A34.12,34.12,0,0,1,525,58.28q-16.71,3-27.35-11.4a14.91,14.91,0,0,1-2.77-6.82c-.54-3.54-1.63-6.67-1.4-10.43.7-10.91,7.48-20.43,18.5-22.7A31.8,31.8,0,0,1,528.35,7.48ZM474,81.67q-7.35-3.54-10.34-13.88A36.62,36.62,0,0,1,462,55.48q1.21-20,16.16-34.47,5-4.85,13.93-8c.59-.22.74,0,.46.54a44.75,44.75,0,0,0-5,22.31q.51,10.49,8.7,19.46,12.47,13.65,31.47,8.91c2.87-.72,5.26-2.31,8.07-3.2.68-.22.77-.07.29.45a50.73,50.73,0,0,1-9.19,7.82q-2.57,1.68-5,3.53c-8.51,6.51-21.11,9.46-31.39,10.77Q480.54,84.85,474,81.67ZM16.32,354a.05.05,0,0,1,0,0v-.05s0-.07,0-.12-.16-.33,0-.42a76.74,76.74,0,0,0,26.09-21.33,160.62,160.62,0,0,0,11.46-17.52,84.73,84.73,0,0,0,7.27-15.78Q64.62,287.9,67,277.92a45.41,45.41,0,0,0,1.14-8.78,245.75,245.75,0,0,0-.71-29.52c-.72-8.36-1.17-17.87-.14-26.25s1.93-16.8,2.6-25.27A121.7,121.7,0,0,1,73,167.5a183.79,183.79,0,0,1,13.29-35.89c8.94-18,18.19-33.57,32.47-46.59q6.92-6.31,18.15-15c5.45-4.19,11.67-7.07,17.4-10.57a61.74,61.74,0,0,1,11.42-5.35c5.52-2,10.74-4,16.52-5.47a327.54,327.54,0,0,1,41.39-7.57,125.34,125.34,0,0,1,25.72-.4q14,1.32,24.79,2.17a36.73,36.73,0,0,1,5.2.85c.11,0,.17.08.17.2a.3.3,0,0,1,0,.13c0,.06,0,.07-.08.07-9.42,0-20,.27-28.5,2.76q-8.76,2.59-17,5A110,110,0,0,0,204.55,66c-5.92,3.9-12.47,6.79-17.8,11.59a182.79,182.79,0,0,0-20.22,21,130.72,130.72,0,0,0-13.95,21.47c-4.25,8.42-8.75,16.23-11.9,25.44a91.2,91.2,0,0,0-2.94,10.88c-2.15,10.37-4.38,20.73-4.47,31.08,0,.76.1,5.57.35,14.39.2,7.85,1,15.91,1,23.83,0,4.09.2,8.11-.19,12.2-.61,6.28-1,12.62-1.09,19a84.13,84.13,0,0,1-.92,11.11q-.94,5.89-2,11-3.65,17.75-13.31,29.71a140.53,140.53,0,0,1-10.06,11,67.18,67.18,0,0,1-11.51,9.34Q80.71,338.57,74,341.68a131.31,131.31,0,0,1-40.87,11.06q-7.63.86-16.73,1.31Zm58.84-6.16c6.28-2.17,11.8-6.52,17.75-9.81,6.8-3.78,12.6-9.22,18.69-14.17a48.68,48.68,0,0,0,9.26-9.82c12.63-18.09,17.93-38.39,19.43-60.73a220.22,220.22,0,0,0-.6-38.38c-1.26-11.65-.59-23,.69-34.66a1.91,1.91,0,0,0-.25-1.14,2.09,2.09,0,0,1-.29-1.24q3.84-43.72,31.69-76.5a91.21,91.21,0,0,1,8.77-9c4.16-3.71,7.79-7.52,12.22-10.84A158.44,158.44,0,0,1,239.76,57a169.26,169.26,0,0,1,22-4.82,114.3,114.3,0,0,1,36.6-.54q18.57,2.88,28.18,5a97.22,97.22,0,0,1,16.18,4.92q6.69,2.69,12.8,4.51,34.8,10.53,62,16.14c6.48,1.33,13.26,2.59,20.34,3.83a175.48,175.48,0,0,0,24.21,2.65c5.18.16,10,1.42,15.14,1.23a167.81,167.81,0,0,0,22.42-2.39c6.57-1.12,13-3.67,19.32-6a42.86,42.86,0,0,0,11.39-7q9.33-7.55,17.36-20.71c3-4.84,3.47-9.48,4.37-14.92a43.37,43.37,0,0,0,.16-14.18c-.48-3.08.15-3.32,1.9-.77a80,80,0,0,1,13.58,37.22,83.11,83.11,0,0,1-.33,11.73q-1.8,25.14-22.14,39c-6.65,4.53-13.46,6.75-20.65,9.88a50.75,50.75,0,0,1-9.74,3.16,92,92,0,0,1-13.37,1.91c-25.61,1.13-47.66,1.6-71.35-1.72-22.2-3.1-45.6-7-67.52-13-14.61-4-28.53-7.51-43.2-10.39-12.9-2.53-24-1.89-36.73-1.11-12.47.79-22.53,4.64-34.12,10.23q-18.42,8.91-29.35,22a90.55,90.55,0,0,0-10.72,16.9c-8.34,16.35-12,36-12.49,53.95-.32,12.31,2.35,24.4,3.48,36.77a206.2,206.2,0,0,1-.18,39.59c-1.06,10.62-4.59,20-8.24,29.91a46.39,46.39,0,0,1-9.29,15.68q-11.54,12.5-22.9,18.65a130.26,130.26,0,0,1-42.28,14.23c-2,.32-4.09.6-6.17.83-.73.09-1.47.16-2.2.23-6.19.69-12.48,1.29-18.92,1.82a123.53,123.53,0,0,1-20.35,0q-12-1-24.14-2.08h0l-3.09-.28q-4.75-.44,0-1.22a57.82,57.82,0,0,0,5.7-1.24l.49-.13Q62.47,352.27,75.16,347.87Z"/><path d="M314.68,106.62q21.72,2.91,27.9,4.87,11.67,3.74,23.25,6.21c11.58,2.49,21.61,5.68,32.54,7.45,14.72,2.38,29,5.17,44,6.62a203.77,203.77,0,0,0,22,.86c14-.15,28.07.56,41.73-1.08a152.37,152.37,0,0,0,19.82-4q15.68-4.06,25.58-12.51A77.36,77.36,0,0,0,566,98.18c4.79-7.37,5.95-15.2,6.93-23.83q1.14-9.9,1.7,0c.48,8.48.08,18.1-3.32,26-3.17,7.38-5.8,15.65-10.83,22-15.28,19.29-32.83,27.16-56.09,29.6a306.67,306.67,0,0,1-32.56,1.66q-12.68,0-26.87.51-23.15.87-32.55.77-34.26-.41-56.16,1.63-6.12.58-25.6,4.38a1.2,1.2,0,0,1-1.42-.73A60.65,60.65,0,0,0,318.05,145a48.6,48.6,0,0,0-26.3-13.88c-5.94-1-12.08-2-17.91-.27q-4.72,1.41-9.46,3c-7.61,2.61-13.8,9.81-16.64,16.94q-5.62,14.13,1.76,30.53a17.87,17.87,0,0,0,6.38,7.64c6.22,4.17,15,7.77,22.12,6.06a52.73,52.73,0,0,0,7.61-1.94,24.66,24.66,0,0,0,13.16-12.59c.89-1.84,1.14-1.76.72.24-2,9.89-7.89,15.62-15.58,21.52-8.48,6.5-21.56,7.32-31.18,5.37q-12.57-2.55-24-12.36c-8.34-7.12-14.17-22.92-13.88-33.11.16-6.2,3.12-19.8,8.52-25.7,3-3.31,5.85-7.46,9.64-9.92q3.82-2.49,7.57-5,22.28-14.82,52.19-16.61C300.63,104.46,307.18,105.61,314.68,106.62Z" style="fill:#fff"/><path d="M140.14,179.16a2,2,0,0,1-.3-1.23q3.85-43.76,31.7-76.52a92.11,92.11,0,0,1,8.76-9c4.16-3.71,7.79-7.51,12.22-10.84A158.25,158.25,0,0,1,239.77,57a168.34,168.34,0,0,1,22-4.83,114.81,114.81,0,0,1,36.59-.53q18.57,2.88,28.2,5a95.58,95.58,0,0,1,16.16,4.93q6.71,2.67,12.81,4.52,34.8,10.53,62,16.13,9.72,2,20.34,3.83a174.27,174.27,0,0,0,24.21,2.65c5.19.16,10,1.42,15.14,1.23a167.49,167.49,0,0,0,22.41-2.39c6.58-1.12,13-3.67,19.34-6a43.15,43.15,0,0,0,11.38-7q9.33-7.51,17.36-20.7c3-4.84,3.46-9.49,4.38-14.92a43.71,43.71,0,0,0,.16-14.19c-.49-3.06.14-3.32,1.89-.76a79.94,79.94,0,0,1,13.58,37.22,83.66,83.66,0,0,1-.34,11.73q-1.78,25.14-22.12,39c-6.66,4.53-13.46,6.75-20.65,9.87a49.41,49.41,0,0,1-9.76,3.17,91.85,91.85,0,0,1-13.36,1.91c-25.61,1.14-47.65,1.59-71.35-1.72-22.19-3.1-45.6-7-67.52-13-14.62-4-28.53-7.5-43.2-10.39-12.9-2.54-24-1.89-36.74-1.1-12.46.78-22.53,4.63-34.11,10.22q-18.42,8.91-29.36,21.94a91.38,91.38,0,0,0-10.7,16.91c-8.35,16.34-12.05,36-12.51,53.94-.32,12.32,2.36,24.41,3.49,36.78a206.21,206.21,0,0,1-.18,39.59c-1.07,10.61-4.58,20-8.25,29.92a46.21,46.21,0,0,1-9.28,15.66q-11.54,12.49-22.89,18.67a131.56,131.56,0,0,1-48.46,15.05q-10.33,1.17-21.12,2a122.31,122.31,0,0,1-20.34,0q-13.57-1.11-27.28-2.36-4.77-.44,0-1.22a58.68,58.68,0,0,0,6.18-1.37q14.59-4.08,27.28-8.48c6.27-2.17,11.8-6.52,17.76-9.82,6.8-3.77,12.6-9.21,18.67-14.16a48.54,48.54,0,0,0,9.28-9.82c12.62-18.09,17.92-38.39,19.41-60.73a218.3,218.3,0,0,0-.59-38.38c-1.26-11.65-.6-23,.69-34.66A1.91,1.91,0,0,0,140.14,179.16Z" style="fill:#003eaa"/><path d="M546.45,28.39c.18,1.42.87,2.83.8,4.26-.31,5.66-2.09,16.46-6.6,19.71-2.59,1.85-6.07,2.9-9,4.08A35,35,0,0,1,525,58.29q-16.72,3-27.36-11.41a15,15,0,0,1-2.77-6.81c-.53-3.55-1.63-6.67-1.39-10.44.7-10.9,7.46-20.43,18.49-22.71a31.91,31.91,0,0,1,16.4.57q5.1,1.63,11,7.44A22.66,22.66,0,0,1,546.45,28.39Z" style="fill:#fff"/><path d="M521.9,72.79c-8.5,6.51-21.1,9.46-31.39,10.78q-10,1.29-16.54-1.89-7.35-3.56-10.34-13.89A36.88,36.88,0,0,1,462,55.48q1.23-20,16.17-34.47,5-4.86,13.92-8c.6-.21.75,0,.47.54a44.71,44.71,0,0,0-5,22.32q.49,10.49,8.69,19.45,12.48,13.66,31.47,8.91c2.87-.72,5.26-2.31,8.08-3.2.68-.22.77-.07.28.45a50.34,50.34,0,0,1-9.18,7.82Q524.31,70.94,521.9,72.79Z" style="fill:#fff"/><path d="M234,256.65q-3.54-2.77-6.87-5.73a82.47,82.47,0,0,0-22.61-13.83,1.25,1.25,0,0,1-.8-1.1c-1-9.8-2.46-19.34-2.55-29a136.88,136.88,0,0,1,8.09-46.85c.51-1.46.83-1.42.95.12.26,3.19.16,6.36.59,9.58q3.43,25.68,28,37.65,13.14,6.42,29.3,5.09c16-1.3,32.88-16.52,35.56-32.26,1.56-9.17.45-20.57-5.55-27.68-.91-1.07-1.75-2.17-2.54-3.3-3.86-5.55-10.56-9.56-17-11.45q-5.87-1.72.25-1.62a95.57,95.57,0,0,1,17.43,1.94,19.18,19.18,0,0,1,6.95,3c3.3,2.21,6.88,3.35,10.05,6.05a39.15,39.15,0,0,1,10.41,13.27A75,75,0,0,1,330.73,186a111.64,111.64,0,0,1-.45,19.39c-1.45,15.76-8.62,31.42-19.42,42.19-18.4,18.32-46.11,24.42-70.26,14.14C237.86,260.52,236.25,258.42,234,256.65Z" style="fill:#fdcb08"/><path d="M296,174.91q-3.73,11.75-15.31,15c-13.26,3.71-25.56-3.08-29.73-16.19-3.41-10.74-1.39-21.87,7-29.77a10.71,10.71,0,0,1,6.48-2.82q16.69-1.68,27.1,10.4C297.27,158.08,298.65,166.71,296,174.91Z" style="fill:#fff"/><path d="M186.75,77.6a182,182,0,0,0-20.22,21,129,129,0,0,0-13.94,21.47c-4.26,8.42-8.76,16.23-11.9,25.44a90.91,90.91,0,0,0-3,10.89c-2.14,10.37-4.37,20.72-4.46,31.07q0,1.14.34,14.39c.22,7.85,1.06,15.9,1,23.83,0,4.09.21,8.12-.18,12.2q-.91,9.43-1.09,19a80.79,80.79,0,0,1-.93,11.11q-.93,5.91-2,11-3.66,17.76-13.31,29.73a148.93,148.93,0,0,1-10.07,11,67.18,67.18,0,0,1-11.51,9.34q-14.85,9.48-21.6,12.6a131.79,131.79,0,0,1-40.88,11.05q-7.65.86-16.73,1.3a.06.06,0,0,1-.07-.06v0a.1.1,0,0,0,0-.12c-.17-.19-.16-.33,0-.43a76.69,76.69,0,0,0,26.08-21.34,160.89,160.89,0,0,0,11.46-17.51,83.71,83.71,0,0,0,7.26-15.78Q64.61,287.9,67,277.92a44,44,0,0,0,1.12-8.79,243.74,243.74,0,0,0-.71-29.52c-.71-8.36-1.17-17.86-.12-26.23s1.91-16.82,2.59-25.28A121.7,121.7,0,0,1,73,167.5a184.42,184.42,0,0,1,13.28-35.89c9-18,18.2-33.56,32.48-46.59q6.9-6.31,18.15-15c5.45-4.19,11.66-7.08,17.41-10.56a60.24,60.24,0,0,1,11.42-5.36c5.51-1.94,10.73-4,16.51-5.47a326.09,326.09,0,0,1,41.39-7.57,125.32,125.32,0,0,1,25.72-.4q14,1.3,24.78,2.17a38.1,38.1,0,0,1,5.21.85.2.2,0,0,1,.17.2.59.59,0,0,1,0,.13.07.07,0,0,1-.08.08c-9.42-.05-20,.26-28.5,2.75q-8.78,2.59-17,5A110.18,110.18,0,0,0,204.54,66C198.64,69.91,192.08,72.79,186.75,77.6Z" style="fill:#fdcb08"/><path d="M206.41,306.23a50,50,0,0,0,7.51-33.39,41.91,41.91,0,0,0-7.38-18.67,8.47,8.47,0,0,1-1.62-4.41c-.12-2.1-.25-4.27-.42-6.53a.49.49,0,0,1,.46-.5.42.42,0,0,1,.27.06,139.3,139.3,0,0,1,18.89,13.65,163.37,163.37,0,0,1,12.23,11.18c5.1,5.47,9.15,11.71,11,19.14a76,76,0,0,1,1.42,25.65,26.53,26.53,0,0,1-2.46,9c-2,4.05-5.57,6-8.52,9.35a17.19,17.19,0,0,1-20.27,4.27c-3.6-1.57-7.91-3.71-10.28-6.9Q199.15,317.34,206.41,306.23Z" style="fill:#ff040f"/><path d="M496.93,30.07c0,.58,0,1.18.06,1.77.16,2.33.65,9.42,3.56,13.31C509,56.48,520.3,58.43,536,51.27A9.13,9.13,0,0,0,541.27,46a38.68,38.68,0,0,0,2.48-12.76c0-8.88-4.52-15.86-13.84-21.34-6.72-3.94-19.73-2.94-25.3,2C499.44,18.41,496.93,23.7,496.93,30.07Z" style="fill:#ffcd00"/><path d="M537.94,33.26a32.75,32.75,0,0,1-2.15,10.82c-.13.37-.39,1.08-2.19,1.9C517.06,53.52,510,48,505.19,41.66c-.69-.92-1.94-3.51-2.4-10.21,0-.47-.05-.92-.05-1.38,0-4.72,1.75-8.37,5.69-11.81,3.74-3.29,14-4,18.55-1.32,9.71,5.71,11,11.72,11,16.32Zm11.62,0q0-16.51-16.7-26.35c-8.71-5.11-24.42-4.13-32.09,2.61q-9.64,8.45-9.65,20.55c0,.72,0,1.44.08,2.17.37,5.42,1.34,11.9,4.69,16.39Q511.13,69,538.42,56.55A14.82,14.82,0,0,0,546.74,48a44.1,44.1,0,0,0,2.82-14.72Z" style="fill:#010101"/><path d="M253.1,164.07c0,7.11,2.85,13.91,7.62,18.21a19.62,19.62,0,0,0,15.7,4.77c11.82-1.23,17.2-10.88,17.2-19.34a21.07,21.07,0,0,0-5.22-13.9c-5.35-6.21-12.41-9.22-21.58-9.18a9.48,9.48,0,0,0-7.27,2.8A23.84,23.84,0,0,0,253.1,164.07Z" style="fill:#ffcd00"/><path d="M287.85,167.71h0c0,6.15-3.72,12.74-12,13.61A13.93,13.93,0,0,1,264.58,178a18.86,18.86,0,0,1-5.71-13.93,18.06,18.06,0,0,1,4.86-12.65c.35-.37,1-1,3.11-1,7.49,0,13,2.25,17.2,7.18a15.38,15.38,0,0,1,3.81,10.13Zm11.54,0a27,27,0,0,0-6.61-17.66q-9.69-11.25-26-11.19a15.21,15.21,0,0,0-11.4,4.57,29.62,29.62,0,0,0-8.07,20.64c0,15.52,11.2,30.66,29.69,28.72,14.12-1.47,22.37-12.95,22.37-25.08Z" style="fill:#010101"/><circle cx="224.7" cy="315.44" r="10.9" style="fill:#fff"/><path d="M1104,329.06c2.83.86,4.63,3.17,3.47,6.16a6.09,6.09,0,0,1-2.12,2.64l-8.26-5.73a2,2,0,0,0,.19-.35C1098.9,328.57,1100.55,328,1104,329.06Z" style="fill:#010101"/><path d="M1040.87,114.27a13.42,13.42,0,0,0,1.26-1.77A11.8,11.8,0,0,1,1040.87,114.27Z" style="fill:#010101"/><path d="M1100.89,365.29c4-.39,8-.76,11.91-1.09,1-.07,2-.16,3-.25,3.8-.29,7.54-.57,11.2-.81q6-.4,25-3.62a6.65,6.65,0,0,0,4.84-3.32,1.46,1.46,0,0,0,.21-.7,1.57,1.57,0,0,0-1.47-1.66,10.16,10.16,0,0,1-2.82-.61,69.65,69.65,0,0,1-28.4-19c-4.07-4.47-7.82-9-11.3-13.55-5.65-7.4-8.77-16.73-12.27-25.46a88.73,88.73,0,0,1-5.63-19.6q-1-6.4-.4-20.23a524.17,524.17,0,0,0-1.58-70.4,133,133,0,0,0-4.46-21.79c-.85-3.12,0-6.58-1.11-9.49q-3.06-8.2-7.86-18.76a236.09,236.09,0,0,0-17.09-31.85,133.06,133.06,0,0,0-11-14.32,177.61,177.61,0,0,0-13.12-13.62c-10.43-9.55-23.38-16.67-36.49-23.16a57.32,57.32,0,0,0-7.79-3.18,311.6,311.6,0,0,0-63.16-13.68c-.1,0-.12-.06-.07-.15s0-.05.08-.07c.31,0,.29-.09,0-.1q-23.5-1.15-40.18,1.16Q876.27,38,853.78,43.57c-3.27.82-8.78,3-13.77,3.67a84.32,84.32,0,0,0-12.09,3.12q-20.85,6.53-41.29,13.41Q777,67,766.94,69.54q-10.29,2.59-19.9,5-9,2.3-51.34,8a23.59,23.59,0,0,1-4.09.22.29.29,0,0,1-.17-.07.31.31,0,0,1-.06-.44Q707,62.8,698.78,39c-3-8.68-9.73-16.64-16.33-22.73C680,14,676.77,12.67,673.9,10.9,663.82,4.7,653.12,1.45,641.07.21c-7.31-.77-15.91.56-22.09,4a74.84,74.84,0,0,0-16.11,12.73,56.23,56.23,0,0,0-12.59,18.34c-1.59,3.89-3.3,7.86-5.09,11.91a93.84,93.84,0,0,0-6.58,23c-.51,3.13-.86,6.28-1.09,9.38a64.63,64.63,0,0,0,1.08,17.2c.24,1.14.52,2.23.84,3.28a113.75,113.75,0,0,0,4.44,11.87c4.08,9.32,11,16.6,17.86,24.19,8,8.85,17.85,12.65,28.85,16.56,7,2.49,15.63,4.93,22.73,5.47,14.25,1.05,27.56.44,41.35,1q30.44,1.17,61.23.85c5.17-.05,10.28.48,15.47.46a105.56,105.56,0,0,1,11.59.67c5.74.62,11.58.57,17.4,1.18,8.33.86,16.5,2.09,24.51,3.63h.06a.55.55,0,0,1,.37.67q-5.53,18.49-3.21,40c1.41,13.28,6.34,29.57,15.57,39.6,14.24,15.45,31.4,25,53,25.14,7.69.06,14.48-.35,21.77-3.07,1.34-.51,1.68-.15,1,1.12-2.36,4.44-5.52,8.47-7.26,13.21a59.72,59.72,0,0,0-3.55,23.14c.34,8.07,1.6,15.55,6,22.18a32.28,32.28,0,0,0,17.75,13.33c4.33,1.34,8.94.75,13.31.46,11.62-.77,21.06-15,19.62-26.2a22.06,22.06,0,0,0-2.1-7.63c-4.86-8.59-10.67-21.69-9.3-31.78a50.71,50.71,0,0,1,2.56-10.25c1.12-3.13,1.65-3.05,1.6.28a150.22,150.22,0,0,0,4,35.65q1.4,6.08,8.33,16.73c2.26,3.47,3.29,7.46,6.09,10.49q14.22,15.42,36.47,25.57a125.85,125.85,0,0,0,19.5,7.27c1,.26,2,.5,2.88.7h0c.52.12,1.05.22,1.56.32a237.29,237.29,0,0,0,43.79,4.05Q1083.44,367,1100.89,365.29ZM911.38,48.35a73.08,73.08,0,0,0-11.78-2.86,131.26,131.26,0,0,0-21.71-1.22c-.18,0-.27-.07-.28-.25v-.36a.21.21,0,0,1,.2-.25q14.55-1.29,29.1-2.69a109.51,109.51,0,0,1,13.6-.47c18.74.54,37.71,4.24,56.32,8.83q5.52,1.35,21.41,7.79c1.81.73,3.2,2.18,5,3.06A109,109,0,0,1,1021,70.59q8.43,6.51,16.08,13.12A119.86,119.86,0,0,1,1054,102.5q7.21,9.59,17.29,29.72a188.09,188.09,0,0,1,12.7,34.29,113.44,113.44,0,0,1,3.35,20.9q1,13.18,2.91,27.64.91,7.14-.45,24.16-.95,11.35-.84,25.82c.1,11.48,3.42,21.78,6.83,32.58,3.74,11.78,11.28,23.84,18.36,33.47,6.88,9.38,16.15,16.43,26.41,22.17.75.42.71.62-.16.61q-30.75-.53-56.13-11.71c-7-3.1-14.28-8.32-21.52-12.38-6.91-3.87-12.33-9.73-17.94-15.57A69.85,69.85,0,0,1,1027.18,281q-1.4-6.15-3.08-18.25c-.47-3.36,0-6.59-.22-10-.73-9.21-1.61-18.44-1.27-27.82q.43-11.68,1.08-25.37a140.82,140.82,0,0,0-.45-21.92,181.79,181.79,0,0,0-4.82-25.94,106.79,106.79,0,0,0-3.57-10.85,83,83,0,0,0-4.94-10.52q-4.27-7.59-7.66-14.7c-1.37-2.86-3.53-5.28-5.23-8.06-6.19-10-15.31-19.17-24.13-27.67a57.38,57.38,0,0,0-11.51-8.62q-7.89-4.53-15.61-9.31a79.11,79.11,0,0,0-17.19-8C923.22,52.16,917.5,50.31,911.38,48.35ZM665,13C678.2,17.28,687,27.61,692,40.29q6.08,15.41.82,29.95C689.78,78.71,682.82,84,674,83.9A82,82,0,0,1,644.73,78c-1.85-.7-3.52-2.13-5.46-2.71-2.52-.74-5-3.26-7.28-4.69a57.63,57.63,0,0,1-10.72-9c-.53-.56-.42-.73.3-.54,2.7.71,4.88,2.47,7.56,3.13q18.95,4.68,31.43-8.3a33.5,33.5,0,0,0,9-17.84c.89-5.09-.38-9.59-1.15-14.55a32.93,32.93,0,0,0-3.8-10.1C664.38,13,664.49,12.81,665,13ZM644.18,6.71c11.3,2.13,18.44,10.81,19.51,21.85.47,4.76-.84,8.25-1.58,12.71-1,6-7.46,11.68-12.41,14.59-10.21,6-22.18,2-31.81-2.68-6-2.91-7.89-15.8-7.68-20.92a24.83,24.83,0,0,1,5.61-15Q627.07,3.47,644.18,6.71Zm182.59,154.2c-11.76-2.12-23.31-4.47-35.34-5.12q-20.49-1.12-28.67-1-27.48.45-52.58-.72-8.19-.39-26.85-.42a267.77,267.77,0,0,1-36.44-2.45c-21.91-3-39.76-13.63-52.26-32-3.82-5.61-6-12.73-8.69-18.92-3.37-7.68-3.3-15.45-3.49-23.55a23.83,23.83,0,0,1,.85-6.66c.26-.93.42-.92.49,0,.85,9.45,1.94,19.12,7.13,27.32a73.43,73.43,0,0,0,15.38,18.07,58.76,58.76,0,0,0,20.56,10.75q20.34,6,37.62,6.25c16,.2,31.73.42,47.22-.45,3.13-.18,6.11-.47,8.91-.86q34-4.82,45.24-7.49,14.85-3.54,29.47-6.81c8.17-1.84,16-4.75,24.11-6.4q12.86-2.62,28.86-4.76a85.25,85.25,0,0,1,22-.35,117,117,0,0,1,30.63,7.65q10.34,4.34,23.34,13.56a29.69,29.69,0,0,1,6,5.59c2.61,3.17,5.72,6,7.25,9.81a89.07,89.07,0,0,1,4.59,15.73c1.72,8.77-1.67,18.91-5.65,27-4.22,8.58-10.56,13.65-18.89,18.16q-15.46,8.4-33.93,4.3a22.9,22.9,0,0,1-8.2-3.47A56,56,0,0,1,863,192.49a26.73,26.73,0,0,1-5.24-12.05c-.31-1.7-.11-1.76.62-.19a23.76,23.76,0,0,0,15.29,13.45c3.53,1.06,7.77,2.14,11.55,1.63a36.57,36.57,0,0,0,18-7.78c5.43-4.25,8.58-16,8.75-22.56a33.24,33.24,0,0,0-11.31-26.67c-4.43-4-10.75-5.53-16.27-7.26-7.09-2.25-14.58-.88-21.77.67a42.42,42.42,0,0,0-10.49,3.83Q837.32,143,827.9,160.37A1.09,1.09,0,0,1,826.77,160.91Zm80-4.66c2.84,10.88-.53,24.88-10.66,31.1-9,5.5-21.41,4.56-29-2.61-.3-.29-.6-.6-.89-.9a20.18,20.18,0,0,1-2.84-3.88c-6.89-12.23-3.55-25.34,7.91-33.62q9.12-6.6,21.45-5.17a11,11,0,0,1,6.35,2.73l.18.18c.67.61,1.28,1.24,1.86,1.88A24.66,24.66,0,0,1,906.8,156.25ZM879.23,265.32q-29.15-6.1-44.06-33a65.08,65.08,0,0,1-7.56-21.95,117.69,117.69,0,0,1-1.22-22.76A69.56,69.56,0,0,1,833.52,161a38.59,38.59,0,0,1,11.83-14.7c2.86-2.1,6.16-3.35,9.13-5.23a13.93,13.93,0,0,1,3.66-2,82,82,0,0,1,20.58-2.78c3.8,0,3.89.49.22,1.57a33.73,33.73,0,0,0-15,8.9q-15,15.38-9.58,36.79c3.44,13.51,19.6,27.6,33.35,29q16.93,1.68,30.44-4.84Q947.32,193.58,947,160.8c0-2.36.35-2.42,1.15-.21A130.67,130.67,0,0,1,956,209.12q-.39,10.88-2.57,27.09a1.15,1.15,0,0,1-.72.93c-12.58,5.19-21.58,12.75-31.56,21.47a21.34,21.34,0,0,1-7.31,4.24Q895.92,268.8,879.23,265.32Zm71.48,40.48c5.39,8.52,4.63,17.56-3.05,24.83-1.47,1.37-4.16,2.88-8.12,4.51-8.73,3.64-15,.66-21.24-5.41-3.07-3-6.58-5.54-8.14-10a29,29,0,0,1-1.34-5.26,73.61,73.61,0,0,1,.64-25.82c2.36-11.43,9.48-20,18-27.37,3.38-2.91,6.78-5.78,10.24-8.63a123.29,123.29,0,0,1,14.21-9.79c.57-.36.85-.2.8.48-.13,1.92-.26,3.93-.38,6.06a10.51,10.51,0,0,1-2.07,5.4C939.58,270.1,941.08,290.61,950.71,305.8Zm57,43.14a88.47,88.47,0,0,1-35.32-27.09,42.07,42.07,0,0,1-6.07-11.39c-3.9-10.52-7.34-19.56-8.49-31.66a196.07,196.07,0,0,1-.16-38.42q.93-9.23,2.36-18.78c2.74-18.41.42-37.91-4.79-55.57a105.76,105.76,0,0,0-13.56-28.29c-10.62-16-27.86-25.18-45.22-32.2a66.73,66.73,0,0,0-19.3-4.69q-17.83-1.53-28-.67a156.84,156.84,0,0,0-26.35,4.71q-24.23,6.28-45.41,11.33-15.3,3.61-47.23,8.43c-21,3.16-40.33,3.17-62.25,2.82a139.73,139.73,0,0,1-24.55-2.41,64.13,64.13,0,0,1-11.54-3.66c-3.73-1.51-7.47-3.06-11.23-4.6a53,53,0,0,1-7.34-4.14q-16.41-10-21.76-29a65.1,65.1,0,0,1-2-14.19,62.49,62.49,0,0,1,.74-13.75,77.48,77.48,0,0,1,13.18-32.24c1.58-2.19,2.11-1.95,1.65.7a40.24,40.24,0,0,0-.13,13.28c1,6.25,1.41,11.51,5.07,17.16,7,10.89,15.19,20.84,26.37,26A121.23,121.23,0,0,0,647.89,85c9.82,3.26,20.81,4.35,31,4.85,5.83.27,11.42-1.15,17.25-1.26a124.12,124.12,0,0,0,16.35-1.53Q732.42,84,745.25,81q15.06-3.47,30.89-7.59A345,345,0,0,0,810.4,62.94,143.32,143.32,0,0,1,831,56.59q17.24-3.68,31.82-5.47a101.45,101.45,0,0,1,21.87-.28,208.18,208.18,0,0,1,22.5,3.48A117.45,117.45,0,0,1,928.44,61a166.83,166.83,0,0,1,23,11.59c6.94,4.21,14.76,9.59,20.71,15.44,3.86,3.8,8,7.15,11.76,11.36q29.26,33.15,33.41,77.6c.15,1.7-.46,2.78-.27,4.59a168.16,168.16,0,0,1,.33,35.77,215.88,215.88,0,0,0-.61,33.52,157.07,157.07,0,0,0,5.93,35.07,96.28,96.28,0,0,0,13.53,28,38.5,38.5,0,0,0,5.63,6.51c7.65,7.05,15.78,14,24.87,19a49.82,49.82,0,0,1,4.87,3.18,48.91,48.91,0,0,0,6.92,3.86,52.27,52.27,0,0,0,7.34,2.84q10.68,3.22,21.63,6.61c.7.22,1.41.41,2.11.57,2.29.55,4.6.93,6.9,1.41l.34.07c1.69.38,1.69.69,0,.86l-.42,0-2.28.21q-12.3,1.14-24.66,2.18a126,126,0,0,1-21,.15q-11.4-.92-21.32-2c-1.48-.18-3-.36-4.44-.57-2.52-.36-5-.8-7.5-1.29A138,138,0,0,1,1007.71,348.94Z"/><path d="M583.31,70.09c.25-.93.41-.91.49,0,.83,9.46,1.93,19.12,7.11,27.32q7.22,11.43,15.38,18.08a58.72,58.72,0,0,0,20.57,10.75q20.34,6,37.61,6.25c16,.2,31.74.41,47.22-.46,3.14-.17,6.12-.45,8.93-.86q34-4.8,45.23-7.48,14.83-3.54,29.47-6.81c8.17-1.84,16-4.75,24.11-6.4q12.86-2.62,28.86-4.76a85.7,85.7,0,0,1,22-.35,117,117,0,0,1,30.63,7.65q10.32,4.34,23.34,13.55a30.32,30.32,0,0,1,6,5.6c2.61,3.18,5.73,6,7.26,9.82a89.41,89.41,0,0,1,4.58,15.73c1.72,8.76-1.67,18.9-5.64,27-4.23,8.58-10.57,13.65-18.9,18.16q-15.46,8.38-33.93,4.31a22.83,22.83,0,0,1-8.2-3.48A56.19,56.19,0,0,1,863,192.5a26.83,26.83,0,0,1-5.25-12.05c-.3-1.7-.09-1.77.63-.19a23.74,23.74,0,0,0,15.3,13.44c3.52,1.06,7.76,2.14,11.54,1.63a36.57,36.57,0,0,0,18-7.79c5.42-4.24,8.57-16,8.75-22.55a33.23,33.23,0,0,0-11.33-26.66c-4.41-4-10.73-5.53-16.26-7.28-7.1-2.24-14.57-.87-21.77.67a43.72,43.72,0,0,0-10.49,3.84Q837.32,143,827.9,160.37a1.09,1.09,0,0,1-1.13.54c-11.76-2.12-23.31-4.47-35.33-5.13q-20.51-1.11-28.68-1-27.48.45-52.58-.72-8.19-.39-26.85-.42a269.64,269.64,0,0,1-36.45-2.45c-21.9-3-39.76-13.62-52.25-32-3.81-5.61-6-12.74-8.69-18.92-3.37-7.68-3.29-15.45-3.48-23.55A23.12,23.12,0,0,1,583.31,70.09Z" style="fill:#fff"/><path d="M613.3,112.67q-16.41-10-21.76-29.06a64.59,64.59,0,0,1-2-14.19,62.46,62.46,0,0,1,.74-13.75,77.44,77.44,0,0,1,13.18-32.25q2.36-3.26,1.65.7a40.3,40.3,0,0,0-.14,13.29c1,6.25,1.42,11.51,5.07,17.16,7,10.89,15.19,20.84,26.38,26A115.23,115.23,0,0,0,647.89,85c9.82,3.27,20.81,4.36,31,4.86,5.83.27,11.42-1.16,17.25-1.26a124.27,124.27,0,0,0,16.35-1.53Q732.42,84,745.25,81q15-3.48,30.89-7.59A345,345,0,0,0,810.4,62.94,143.63,143.63,0,0,1,831,56.59q17.25-3.66,31.83-5.47a101.45,101.45,0,0,1,21.87-.28,208.35,208.35,0,0,1,22.5,3.47A118.81,118.81,0,0,1,928.44,61a167.88,167.88,0,0,1,23,11.6c7,4.21,14.77,9.59,20.72,15.44,3.86,3.8,8,7.15,11.77,11.37q29.25,33.14,33.41,77.58c.15,1.71-.47,2.79-.28,4.59a167.59,167.59,0,0,1,.33,35.78,217.09,217.09,0,0,0-.62,33.52,157.65,157.65,0,0,0,5.94,35.07,96.38,96.38,0,0,0,13.52,28,39,39,0,0,0,5.64,6.51c7.65,7.06,15.78,14,24.86,19a53.52,53.52,0,0,1,4.89,3.17,47,47,0,0,0,6.91,3.87,52.27,52.27,0,0,0,7.34,2.84q10.7,3.22,21.63,6.6c3,.91,6,1.36,9,2q3.26.67-.06,1-13.46,1.23-27,2.39a127,127,0,0,1-21,.14q-11.4-.92-21.32-2a138.48,138.48,0,0,1-39.39-10.41,88.44,88.44,0,0,1-35.31-27.09,41.8,41.8,0,0,1-6.07-11.39c-3.9-10.52-7.34-19.57-8.49-31.67a195.29,195.29,0,0,1-.16-38.42q.93-9.19,2.36-18.77c2.74-18.41.41-37.91-4.79-55.58a105.11,105.11,0,0,0-13.57-28.27c-10.61-16-27.85-25.19-45.22-32.21a66.67,66.67,0,0,0-19.29-4.69q-17.83-1.53-28-.67a156.74,156.74,0,0,0-26.34,4.71q-24.23,6.27-45.41,11.32-15.3,3.65-47.23,8.44c-21,3.16-40.34,3.17-62.25,2.82a139.79,139.79,0,0,1-24.55-2.42,63,63,0,0,1-11.54-3.65q-5.6-2.28-11.23-4.6A53.93,53.93,0,0,1,613.3,112.67Z" style="fill:#003eaa"/><path d="M644.17,6.7c11.31,2.14,18.45,10.82,19.53,21.86.46,4.75-.85,8.25-1.59,12.71-1,6-7.46,11.69-12.41,14.6-10.21,6-22.18,2-31.82-2.68-6-2.92-7.89-15.81-7.67-20.94a24.84,24.84,0,0,1,5.61-15Q627.05,3.47,644.17,6.7Z" style="fill:#fff"/><path d="M639.27,75.33c-2.52-.76-5.06-3.26-7.28-4.7a58,58,0,0,1-10.72-9q-.78-.84.3-.54c2.7.71,4.89,2.47,7.56,3.13q18.95,4.68,31.43-8.3a33.36,33.36,0,0,0,9-17.84c.88-5.09-.38-9.58-1.16-14.55a32.5,32.5,0,0,0-3.79-10.09c-.24-.44-.11-.58.36-.43C678.2,17.28,687,27.61,692,40.29q6.06,15.41.82,29.95C689.78,78.72,682.82,84,674,83.9A82,82,0,0,1,644.73,78C642.88,77.33,641.21,75.9,639.27,75.33Z" style="fill:#fff"/><path d="M854.48,141.06a13.65,13.65,0,0,1,3.66-2,81.88,81.88,0,0,1,20.57-2.78q5.71,0,.23,1.57a33.74,33.74,0,0,0-15,8.9q-15,15.39-9.59,36.79c3.44,13.51,19.61,27.6,33.35,29q16.93,1.68,30.45-4.84Q947.31,193.58,947,160.8c0-2.36.36-2.43,1.16-.2A130.58,130.58,0,0,1,956,209.12q-.39,10.88-2.58,27.09a1.1,1.1,0,0,1-.71.93c-12.58,5.19-21.59,12.75-31.56,21.47a21.25,21.25,0,0,1-7.31,4.24q-17.91,6-34.61,2.47-29.13-6.12-44.05-33a64.65,64.65,0,0,1-7.56-21.95,116.94,116.94,0,0,1-1.22-22.76A69.79,69.79,0,0,1,833.52,161a38.65,38.65,0,0,1,11.83-14.69C848.2,144.19,851.51,142.94,854.48,141.06Z" style="fill:#fdcb08"/><path d="M907,156.43c2.85,10.88-.52,24.87-10.67,31.09-10.72,6.56-26.27,4-32.67-7.38-6.9-12.24-3.56-25.34,7.9-33.63q9.12-6.58,21.46-5.17a11,11,0,0,1,6.35,2.74A25.26,25.26,0,0,1,907,156.43Z" style="fill:#fff"/><path d="M1062.71,329.77c-6.93-3.88-12.34-9.73-17.94-15.57A69.63,69.63,0,0,1,1027.19,281q-1.41-6.15-3.09-18.24c-.47-3.37,0-6.6-.23-10-.72-9.2-1.59-18.44-1.26-27.83q.43-11.67,1.08-25.36a141,141,0,0,0-.45-21.93,181.93,181.93,0,0,0-4.83-25.93,104.35,104.35,0,0,0-3.57-10.85,80.35,80.35,0,0,0-4.94-10.52q-4.26-7.61-7.66-14.7c-1.37-2.86-3.51-5.28-5.22-8-6.18-10-15.31-19.18-24.14-27.69a57.65,57.65,0,0,0-11.5-8.61q-7.89-4.53-15.62-9.31a79.4,79.4,0,0,0-17.17-8q-8-2.61-17.2-5.56A72.48,72.48,0,0,0,899.6,45.5a130.3,130.3,0,0,0-21.72-1.22.24.24,0,0,1-.27-.26v-.36a.2.2,0,0,1,.2-.24q14.55-1.31,29.1-2.7a109.58,109.58,0,0,1,13.6-.47c18.74.54,37.7,4.24,56.31,8.83q5.55,1.35,21.42,7.78c1.81.74,3.21,2.19,5,3.06A109.86,109.86,0,0,1,1021,70.59q8.44,6.51,16.08,13.12A119.93,119.93,0,0,1,1054,102.5q7.18,9.59,17.28,29.72a188.28,188.28,0,0,1,12.69,34.28,113.78,113.78,0,0,1,3.36,20.91q1,13.18,2.91,27.64.93,7.14-.46,24.16-.91,11.35-.83,25.83c.1,11.47,3.42,21.76,6.83,32.58,3.73,11.78,11.29,23.83,18.36,33.46,6.88,9.38,16.15,16.43,26.41,22.17.76.42.7.62-.16.6q-30.74-.53-56.13-11.7C1077.17,339.05,1069.94,333.83,1062.71,329.77Z" style="fill:#fdcb08"/><path d="M950.29,254.85c-10.71,15.24-9.21,35.76.41,51,5.4,8.52,4.65,17.57-3,24.83q-2.19,2.06-8.12,4.52c-8.72,3.63-15,.65-21.24-5.42-3.08-3-6.58-5.53-8.13-10a28.28,28.28,0,0,1-1.35-5.26,73.2,73.2,0,0,1,.65-25.83c2.35-11.43,9.47-20,18-27.36q5.09-4.35,10.24-8.64a125.59,125.59,0,0,1,14.21-9.78q.87-.54.81.48c-.14,1.92-.26,3.93-.38,6.05A10.46,10.46,0,0,1,950.29,254.85Z" style="fill:#ff040f"/><path d="M660.4,30.1c0,.58,0,1.18-.06,1.77-.16,2.33-.64,9.42-3.55,13.31C648.3,56.51,637,58.46,621.33,51.3a9.08,9.08,0,0,1-5.26-5.25,38.45,38.45,0,0,1-2.49-12.76c0-8.88,4.53-15.86,13.84-21.34,6.72-3.94,19.73-2.94,25.31,2C657.9,18.44,660.4,23.73,660.4,30.1Z" style="fill:#ffcd00"/><path d="M619.39,33.29h0c0-4.6,1.25-10.61,11-16.32,4.59-2.7,14.81-2,18.56,1.32,3.93,3.44,5.68,7.09,5.68,11.81,0,.46,0,.91,0,1.38-.46,6.7-1.71,9.29-2.41,10.21-4.76,6.37-11.86,11.86-28.41,4.32-1.8-.82-2.06-1.53-2.19-1.9a33,33,0,0,1-2.15-10.82Zm-11.62,0A43.88,43.88,0,0,0,610.6,48a14.76,14.76,0,0,0,8.32,8.57Q646.21,69,661.44,48.66c3.35-4.49,4.33-11,4.7-16.39.05-.73.07-1.45.07-2.17q0-12.09-9.65-20.55c-7.67-6.74-23.37-7.72-32.09-2.61q-16.69,9.84-16.7,26.35Z" style="fill:#010101"/><path d="M903.48,164.32c0,7.11-2.85,13.91-7.62,18.21a19.72,19.72,0,0,1-15.7,4.77C868.34,186.07,863,176.41,863,168a21.11,21.11,0,0,1,5.21-13.9c5.35-6.21,12.41-9.22,21.58-9.18a9.46,9.46,0,0,1,7.27,2.8A23.85,23.85,0,0,1,903.48,164.32Z" style="fill:#ffcd00"/><path d="M868.73,168a15.38,15.38,0,0,1,3.81-10.13c4.24-4.93,9.71-7.21,17.2-7.18,2.14,0,2.76.65,3.11,1a18.15,18.15,0,0,1,4.86,12.66A18.87,18.87,0,0,1,892,178.25a13.91,13.91,0,0,1-11.24,3.32c-8.31-.87-12-7.46-12-13.61Zm-11.54,0h0c0,12.13,8.24,23.61,22.37,25.08,18.48,1.94,29.69-13.2,29.69-28.72a29.6,29.6,0,0,0-8.07-20.64,15.21,15.21,0,0,0-11.4-4.57q-16.29-.08-26,11.19a27,27,0,0,0-6.6,17.66Z" style="fill:#010101"/></svg>