<svg id="Camada_13" data-name="Camada 13" xmlns="http://www.w3.org/2000/svg" viewBox="0 0 1039.09 68.6"><path d="M1037.49,49.1c0-3-.16-6.07-.18-9.11,0-1.53.17-3.07.18-4.61,0-5.63,0-11.27,0-16.9a20.67,20.67,0,0,0-1.2-7A13.65,13.65,0,0,0,1027.38,3a15.18,15.18,0,0,0-11.46.34,14.54,14.54,0,0,0-7.86,8.27,19.38,19.38,0,0,0-1.06,8.82,21.34,21.34,0,0,1,0,2.77c0,1.1-.2,2.19-.19,3.29,0,3.34.16,6.68.17,10,0,3-.14,6-.19,9,0,2,0,4,0,6,2.31,1.28,2.68,1.76,2.57,3.67a3.81,3.81,0,0,1-2.19,3.36,2.72,2.72,0,0,1-3-.58,3.82,3.82,0,0,1-1.63-3.4,2.57,2.57,0,0,1,1.85-2.31.92.92,0,0,0,.6-.93c0-.39,0-.79,0-1.18,0-3.35-.12-6.69-.11-10,0-1.63.25-3.25.25-4.87,0-3.91-.09-7.82-.15-11.73-.05-3.47.23-6.93-.7-10.36a13.52,13.52,0,0,0-4.85-7.62,15.48,15.48,0,0,0-6.27-3,15,15,0,0,0-10.27,1.12A13.54,13.54,0,0,0,979,6.24a15.71,15.71,0,0,0-4.3,12.82,30.8,30.8,0,0,1,.1,4.08c0,2-.2,3.94-.22,5.91,0,3.21,0,6.42,0,9.63,0,4,0,8.08,0,12.11a.92.92,0,0,0,.63,1,3,3,0,0,1,1.94,3.47,3.86,3.86,0,0,1-2.36,3.26,2.88,2.88,0,0,1-3-.76,5.93,5.93,0,0,1-1.22-1.55,2.8,2.8,0,0,1,1.05-3.77,1.63,1.63,0,0,0,1-1.76c-.06-2-.05-4,0-6,0-4.18.1-8.36.12-12.53q0-5.09,0-10.15c0-3,.26-6-.54-8.92a13.68,13.68,0,0,0-4.85-7.62,14.56,14.56,0,0,0-6.66-3c-2.27-.34-4.56-.72-6.8,0a31.62,31.62,0,0,0-4.11,1.77c-3.47,1.7-5.4,4.74-6.59,8.22a17.87,17.87,0,0,0-.82,7.14,32.78,32.78,0,0,1,.08,3.29c-.06,3.55-.17,7.11-.21,10.66q-.07,6,0,12c0,2,.08,4,.12,6,2.78,1.47,2.62,2.29,2.35,4.3a3.48,3.48,0,0,1-2.87,2.9,4.16,4.16,0,0,1-3.76-2.84,5.59,5.59,0,0,1,.08-2.19c.22-1.09,1.38-1.23,2.19-1.85.05-.62.13-1.27.12-1.92,0-3.3-.14-6.59-.15-9.89,0-1.71.23-3.42.23-5.14,0-4-.11-8.08-.07-12.13a37.82,37.82,0,0,0-.71-9.55,13.27,13.27,0,0,0-5-7.82,15.52,15.52,0,0,0-6.42-2.94A15.06,15.06,0,0,0,918,3.63a13.93,13.93,0,0,0-4,2.81c-3.32,3.62-4.46,8-4.33,12.76,0,1.22.12,2.45.11,3.68s-.19,2.19-.19,3.29c0,6,0,12.06,0,18.09v7.26c1.78.66,2.79,1.79,2.54,3.7a3.91,3.91,0,0,1-2.33,3.29,3,3,0,0,1-3.06-.72,4.85,4.85,0,0,1-.84-1c-1.26-1.7-.9-3.55,1-4.49A1.45,1.45,0,0,0,907.8,51c0-.3,0-.61,0-.92-.06-3.34-.16-6.68-.17-10,0-1.71.22-3.42.23-5.14,0-3.87,0-7.74-.07-11.62,0-3.37.17-6.74-.7-10.09a13.53,13.53,0,0,0-5-7.82,14.59,14.59,0,0,0-6.43-2.93c-2.31-.36-4.64-.71-6.93,0a17.39,17.39,0,0,0-5.14,2.36,14.12,14.12,0,0,0-5.73,8.41,21.23,21.23,0,0,0-.64,6.79,27.62,27.62,0,0,1,.09,3c0,1.31-.21,2.63-.2,3.94,0,2.91.15,5.81.17,8.71,0,2.15-.11,4.31-.13,6.47,0,3.12,0,6.24,0,9.37l.48.28c2.1,1.09,2.49,2.16,1.8,4.4-.58,1.87-2.11,3.05-4.05,2.3a4.22,4.22,0,0,1-1.88-1.6c-1.27-1.77-.93-3.59,1-4.6a1.28,1.28,0,0,0,.8-1.22c0-.35,0-.7,0-1.06,0-3.34-.14-6.68-.13-10,0-1.58.28-3.15.28-4.73,0-3.91-.1-7.82-.16-11.73-.05-3.47.23-6.92-.69-10.37a13.61,13.61,0,0,0-4.9-7.72,14.51,14.51,0,0,0-6.54-3c-2.27-.34-4.55-.69-6.8,0a22.56,22.56,0,0,0-3.09,1.17,14,14,0,0,0-7.85,9.55,15,15,0,0,0-.37,6.27,35.49,35.49,0,0,1-.14,5.92c-.1,3.6,0,7.21,0,10.82,0,3.42-.08,6.85-.08,10.28,0,1.7.11,3.4.17,5.12,1.7.68,2.77,1.76,2.51,3.69a3.9,3.9,0,0,1-2.32,3.29,2.91,2.91,0,0,1-3-.69,5.28,5.28,0,0,1-.92-1.11,2.8,2.8,0,0,1,.89-4.34,1.37,1.37,0,0,0,.83-1.33c0-2.41,0-4.81,0-7.21q0-7.52.07-15c0-1.84,0-3.69-.07-5.53-.09-3.41.38-6.83-.56-10.23a13.65,13.65,0,0,0-4.77-7.53,14.66,14.66,0,0,0-7-3.14c-2.19-.28-4.38-.61-6.54.06a17.78,17.78,0,0,0-5.13,2.38c-4.81,3.44-6.36,8.4-6.4,14,0,1.71,0,3.42,0,5.13,0,1.23-.11,2.46-.09,3.69,0,2.81.16,5.62.16,8.43,0,4.88-.07,9.76-.15,14.64,0,.56.06.87.62,1.11A3,3,0,0,1,815,55.28a3.87,3.87,0,0,1-2.26,3.19,2.81,2.81,0,0,1-3-.65c-2.1-1.69-2.29-5,.49-5.77a1.9,1.9,0,0,0,.33-.24c0-.55.14-1.2.13-1.85,0-3.33-.13-6.66-.14-10,0-1.71.23-3.42.23-5.13,0-4.09-.12-8.18-.09-12.26a36.82,36.82,0,0,0-.68-9.42,13.46,13.46,0,0,0-4.9-7.74,16.13,16.13,0,0,0-6.52-3,14.78,14.78,0,0,0-13.7,3.69c-3.57,3.31-4.89,7.67-4.68,12.44.09,2.07.09,4.11,0,6.18-.17,3.42,0,6.86,0,10.29s0,6.77,0,10.16v6.3a6.21,6.21,0,0,1,.9.46c.63.46,1.37.86,1.55,1.7a4.22,4.22,0,0,1-1.81,4.68,2.37,2.37,0,0,1-1.76.31,4.22,4.22,0,0,1-2.67-2,2.8,2.8,0,0,1,.94-4.25,1.56,1.56,0,0,0,1-1.65c0-4.8,0-9.59.07-14.38,0-.48,0-1,0-1.45,0-3.83,0-7.66-.08-11.48,0-3.47.29-6.93-.64-10.37a13.66,13.66,0,0,0-4.86-7.62,14.44,14.44,0,0,0-6.53-3c-2.27-.34-4.54-.71-6.8,0a31,31,0,0,0-3,1.11,13.75,13.75,0,0,0-7.54,8.07,19.48,19.48,0,0,0-1.07,8.94,23.17,23.17,0,0,1,0,2.5c-.06,2.06-.2,4.12-.2,6.18,0,2.29.17,4.57.16,6.86,0,4.88-.07,9.76-.15,14.64,0,.55,0,.89.62,1.13a3,3,0,0,1,1.93,3.47,3.86,3.86,0,0,1-2.37,3.25,2.88,2.88,0,0,1-3-.77c-2-1.74-2.18-5,.69-5.76.07,0,.11-.12.36-.39,0-2,0-4.25,0-6.48s-.06-4.74,0-7.12c0-3.51.06-7,.08-10.54,0-2.73-.1-5.45,0-8.17a21.18,21.18,0,0,0-1.13-7.65,13.62,13.62,0,0,0-9.08-8.72,15.24,15.24,0,0,0-11.46.42,14.87,14.87,0,0,0-7.82,8.32,15.49,15.49,0,0,0-.87,7.12c.1,1.31.2,2.63.17,3.94-.06,2.84-.25,5.68-.3,8.52-.06,3.08,0,6.15,0,9.23,0,1.53.09,3.06.11,4.6,0,2.13,0,4.27,0,6.41.37.19.7.32,1,.51a2.78,2.78,0,0,1,1.49,1.89,4.42,4.42,0,0,1-1.18,3.9,2.6,2.6,0,0,1-2.5.82,4.26,4.26,0,0,1-3-2.72,2.48,2.48,0,0,1,.91-3.25c1.27-.55,1.38-1.43,1.23-2.55a7.08,7.08,0,0,1,0-.92c0-5.8.08-11.6.1-17.4,0-3.42,0-6.84,0-10.25,0-2.8.23-5.6-.53-8.39A13.69,13.69,0,0,0,708,5.4a15.68,15.68,0,0,0-6.28-2.95,15.05,15.05,0,0,0-10.27,1.14,14.17,14.17,0,0,0-4,2.78c-3.35,3.59-4.5,8-4.42,12.73,0,1.27.14,2.53.13,3.8,0,1.1-.2,2.2-.2,3.29,0,3.13.13,6.25.13,9.37s-.1,6.52-.14,9.78c0,2.06,0,4.12,0,6.17,1.75.67,2.79,1.7,2.57,3.59a4,4,0,0,1-2.24,3.35c-1.19.58-2.22,0-3.16-.67a4.61,4.61,0,0,1-.84-1,2.79,2.79,0,0,1,1-4.49,1.35,1.35,0,0,0,.84-1.2,9.21,9.21,0,0,0,0-1c-.06-3.34-.16-6.68-.17-10,0-1.67.23-3.34.24-5,0-3.87,0-7.74-.08-11.62,0-3.42.19-6.83-.7-10.23a13.49,13.49,0,0,0-4.87-7.73,14.48,14.48,0,0,0-6.8-3c-2.23-.31-4.49-.71-6.67,0a23.17,23.17,0,0,0-5.12,2.38,13.43,13.43,0,0,0-5.74,8.39,21.47,21.47,0,0,0-.63,6.78,27.78,27.78,0,0,1,.07,3.16c0,1.09-.2,2.19-.19,3.28,0,3.08.16,6.16.18,9.24,0,2.15-.12,4.31-.14,6.46,0,3.12,0,6.24,0,9.36l.49.28c2.09,1.1,2.46,2.18,1.77,4.43-.55,1.78-2,3-3.94,2.3a4,4,0,0,1-1.91-1.54c-1.35-1.88-1-3.65.93-4.7a1.3,1.3,0,0,0,.78-1.23c0-.31,0-.62,0-.93,0-3.42-.21-6.86-.12-10.28.08-3.07.25-6.12.16-9.2-.13-3.92-.06-7.84,0-11.76a21.16,21.16,0,0,0-1.12-7.13,13.68,13.68,0,0,0-9.16-8.81,15.24,15.24,0,0,0-11.46.46,14.59,14.59,0,0,0-7.67,8.13,19.3,19.3,0,0,0-1.1,8.93,23.32,23.32,0,0,1,0,2.51c-.06,2.06-.21,4.12-.21,6.19,0,3.91.1,7.83.12,11.74,0,3.52,0,7,0,10.62,0,0,0,0,0,0a4,4,0,0,0,.45.26,3,3,0,0,1,2,3.47,3.89,3.89,0,0,1-2.35,3.27,2.83,2.83,0,0,1-3-.73,3.87,3.87,0,0,1-1.5-3.48,2.58,2.58,0,0,1,1.87-2.16.89.89,0,0,0,.56-.94c0-.88,0-1.76,0-2.64,0-3.56,0-7.12,0-10.68,0-1.8.16-3.6.16-5.4,0-4.53-.09-9.06-.07-13.59a21.93,21.93,0,0,0-1.11-7.13,13.68,13.68,0,0,0-9.13-8.85,15.05,15.05,0,0,0-19.23,8.64,14.44,14.44,0,0,0-1,5.67c0,1.67.13,3.34.11,5,0,2.19-.15,4.39-.17,6.58,0,3.78,0,7.56,0,11.34,0,3.5.1,7,.09,10.51a1.06,1.06,0,0,0,.71,1.2,2.75,2.75,0,0,1,1.82,2.08A4.39,4.39,0,0,1,587,57.8a2.57,2.57,0,0,1-2.64.76A4.36,4.36,0,0,1,582,56.64a2.76,2.76,0,0,1,.87-4.25,1.56,1.56,0,0,0,.9-1.7c0-1.27,0-2.54,0-3.81,0-5,.07-9.94.08-14.9,0-3,0-6.06,0-9.09-.06-3.28.36-6.57-.52-9.83a13.67,13.67,0,0,0-5-7.7,14.74,14.74,0,0,0-6.42-2.94c-2.31-.36-4.64-.73-6.93,0a30.12,30.12,0,0,0-4.1,1.76c-3.48,1.7-5.41,4.75-6.58,8.22a21.38,21.38,0,0,0-.9,6c-.14,4.31-.07,8.62-.07,12.94,0,4.09,0,8.18,0,12.28v7.84c2.68,1.5,2.72,2.12,2.36,4.46a3.46,3.46,0,0,1-3,2.79,4.24,4.24,0,0,1-3.64-2.82,5.77,5.77,0,0,1,0-2.19c.21-1.1,1.36-1.26,2.19-1.85a17.49,17.49,0,0,0,.14-1.8c0-3.34-.15-6.68-.16-10,0-1.76.22-3.52.22-5.28,0-4.26,0-8.53,0-12.8a34.49,34.49,0,0,0-.73-8.77,13.66,13.66,0,0,0-5.14-7.87,14.47,14.47,0,0,0-6.31-2.86c-2.31-.36-4.64-.74-6.93,0a29.71,29.71,0,0,0-4.1,1.78,13,13,0,0,0-6.55,8.39,19.85,19.85,0,0,0-.71,9.26,5.3,5.3,0,0,1,0,1.05c-.06,1.54-.19,3.08-.17,4.61,0,2.91.19,5.81.16,8.71,0,3.53-.11,7.07-.18,10.6h-2.08c0-2.3-.13-4.61-.14-6.92,0-1.54.17-3.08.17-4.62,0-5.63,0-11.26,0-16.9a20.71,20.71,0,0,0-1.2-7,13.66,13.66,0,0,0-8.94-8.53,15.16,15.16,0,0,0-11.45.35,14.53,14.53,0,0,0-7.87,8.27,19.64,19.64,0,0,0-1.06,8.82,23.09,23.09,0,0,1,0,2.76c0,1.1-.21,2.2-.2,3.29,0,3.34.17,6.69.17,10,0,3-.14,6-.19,9,0,2,0,4,0,6,2.3,1.29,2.67,1.77,2.56,3.68a3.75,3.75,0,0,1-2.19,3.35,2.73,2.73,0,0,1-3-.57,3.84,3.84,0,0,1-1.62-3.41,2.57,2.57,0,0,1,1.84-2.31.91.91,0,0,0,.6-.92c0-.4,0-.79,0-1.19,0-3.34-.12-6.68-.11-10,0-1.62.26-3.24.25-4.87,0-3.91-.09-7.82-.15-11.73-.05-3.46.24-6.92-.69-10.36a13.57,13.57,0,0,0-4.86-7.62,15.36,15.36,0,0,0-6.26-3,15,15,0,0,0-10.28,1.11,13.73,13.73,0,0,0-3.9,2.67A15.67,15.67,0,0,0,455.9,19a32.66,32.66,0,0,1,.11,4.08c0,2-.21,3.94-.22,5.92,0,3.21,0,6.42,0,9.63,0,4,0,8.07,0,12.11a.93.93,0,0,0,.64,1,3,3,0,0,1,1.94,3.47A3.88,3.88,0,0,1,456,58.43a2.87,2.87,0,0,1-3-.76,5.77,5.77,0,0,1-1.22-1.55,2.8,2.8,0,0,1,1.06-3.77,1.64,1.64,0,0,0,1-1.76c-.07-2-.06-4-.05-6,0-4.18.1-8.36.12-12.54,0-3.38,0-6.77,0-10.15,0-3,.25-6-.55-8.91a13.65,13.65,0,0,0-4.85-7.63,14.61,14.61,0,0,0-6.65-3c-2.27-.34-4.56-.72-6.81,0a31.56,31.56,0,0,0-4.11,1.76c-3.46,1.71-5.4,4.75-6.58,8.22a17.75,17.75,0,0,0-.83,7.15,32.65,32.65,0,0,1,.08,3.28c-.06,3.56-.17,7.11-.21,10.66-.05,4-.05,8-.05,12,0,2,.08,4,.12,6,2.78,1.47,2.63,2.29,2.35,4.29a3.46,3.46,0,0,1-2.87,2.9,4.17,4.17,0,0,1-3.76-2.83,5.78,5.78,0,0,1,.08-2.19c.22-1.1,1.39-1.24,2.2-1.85,0-.62.12-1.28.12-1.93-.05-3.29-.15-6.59-.15-9.88,0-1.72.22-3.43.22-5.14,0-4-.1-8.09-.07-12.13a37.89,37.89,0,0,0-.7-9.56,13.34,13.34,0,0,0-5-7.81,15.63,15.63,0,0,0-6.43-2.95,15.06,15.06,0,0,0-10.14,1.24,14.1,14.1,0,0,0-4,2.8c-3.32,3.62-4.46,8-4.33,12.76,0,1.23.13,2.46.11,3.68s-.19,2.2-.19,3.29c0,6,0,12.06,0,18.09v7.26c1.79.67,2.79,1.8,2.54,3.71a3.89,3.89,0,0,1-2.33,3.28A2.94,2.94,0,0,1,388,57.7a5.19,5.19,0,0,1-.84-1c-1.26-1.7-.9-3.55,1-4.49a1.44,1.44,0,0,0,.87-1.32,7.1,7.1,0,0,0,0-.92c-.06-3.34-.16-6.68-.16-10,0-1.72.22-3.43.22-5.14,0-3.88,0-7.75-.07-11.62,0-3.38.17-6.75-.69-10.1a13.57,13.57,0,0,0-5-7.82,14.6,14.6,0,0,0-6.43-2.93c-2.31-.35-4.63-.7-6.93,0a17.33,17.33,0,0,0-5.13,2.36,14.09,14.09,0,0,0-5.74,8.42,21.48,21.48,0,0,0-.64,6.78,27.69,27.69,0,0,1,.09,3c0,1.32-.21,2.63-.2,3.95,0,2.9.16,5.8.17,8.7,0,2.16-.11,4.32-.13,6.47,0,3.12,0,6.24,0,9.38l.49.27c2.1,1.1,2.48,2.16,1.79,4.41-.58,1.86-2.1,3-4.05,2.29a4.19,4.19,0,0,1-1.88-1.59c-1.26-1.78-.93-3.6,1-4.61a1.28,1.28,0,0,0,.8-1.22c0-.35,0-.7,0-1-.05-3.34-.14-6.68-.14-10,0-1.58.28-3.16.28-4.74,0-3.91-.1-7.82-.15-11.73-.05-3.46.22-6.92-.69-10.36A13.61,13.61,0,0,0,351,5.32a14.53,14.53,0,0,0-6.54-3,15.6,15.6,0,0,0-6.8,0,22.38,22.38,0,0,0-3.08,1.16A14,14,0,0,0,326.69,13a14.88,14.88,0,0,0-.38,6.27,33.47,33.47,0,0,1-.14,5.92c-.1,3.61,0,7.22,0,10.82,0,3.43-.08,6.86-.08,10.28,0,1.7.11,3.4.17,5.13,1.71.67,2.78,1.76,2.51,3.69a3.93,3.93,0,0,1-2.31,3.29,2.92,2.92,0,0,1-3.05-.69,5.27,5.27,0,0,1-.93-1.11,2.81,2.81,0,0,1,.89-4.35,1.34,1.34,0,0,0,.83-1.33c0-2.4,0-4.8,0-7.2,0-5,.05-10,.06-15,0-1.85,0-3.69-.07-5.54-.08-3.41.38-6.83-.55-10.22a13.72,13.72,0,0,0-4.77-7.53,14.55,14.55,0,0,0-7-3.14c-2.18-.29-4.38-.62-6.54.06a17.61,17.61,0,0,0-5.13,2.37c-4.8,3.45-6.35,8.4-6.4,14,0,1.71,0,3.42,0,5.13,0,1.23-.11,2.46-.1,3.69,0,2.81.17,5.62.16,8.43,0,4.87-.06,9.75-.14,14.63,0,.56.05.88.61,1.12a3,3,0,0,1,1.93,3.47A3.9,3.9,0,0,1,294,58.38a2.79,2.79,0,0,1-3.05-.64c-2.1-1.7-2.29-5,.49-5.78.08,0,.14-.09.33-.23,0-.55.14-1.2.13-1.85,0-3.33-.13-6.66-.13-10,0-1.71.22-3.43.22-5.14,0-4.08-.11-8.17-.08-12.26a37.17,37.17,0,0,0-.69-9.41,13.43,13.43,0,0,0-4.89-7.74,16.12,16.12,0,0,0-6.53-3A14.82,14.82,0,0,0,266.07,6c-3.56,3.3-4.89,7.66-4.67,12.43.09,2.07.09,4.11,0,6.18-.16,3.43-.05,6.86-.05,10.29s0,6.78,0,10.17v6.29a6.65,6.65,0,0,1,.9.47c.63.46,1.37.85,1.56,1.69A4.23,4.23,0,0,1,262,58.21a2.37,2.37,0,0,1-1.76.31,4.18,4.18,0,0,1-2.66-2,2.79,2.79,0,0,1,.93-4.25,1.58,1.58,0,0,0,1-1.66c0-4.79,0-9.58.07-14.37,0-.49,0-1,0-1.45,0-3.83,0-7.66-.08-11.49,0-3.46.29-6.92-.64-10.36A13.61,13.61,0,0,0,254,5.34a14.51,14.51,0,0,0-6.53-3c-2.27-.33-4.55-.7-6.81,0a26.38,26.38,0,0,0-3,1.11,13.65,13.65,0,0,0-7.53,8.07A19.44,19.44,0,0,0,229,20.4a21,21,0,0,1,0,2.51c-.06,2.06-.2,4.12-.2,6.18,0,2.28.17,4.57.17,6.85,0,4.89-.08,9.77-.16,14.65,0,.55,0,.88.62,1.12a3,3,0,0,1,1.93,3.47A3.83,3.83,0,0,1,229,58.43a2.87,2.87,0,0,1-3-.76c-2-1.74-2.19-5,.68-5.76.07,0,.12-.13.36-.4,0-2,0-4.25,0-6.47,0-2.38-.07-4.75-.06-7.12,0-3.52.06-7,.08-10.55,0-2.72-.1-5.45,0-8.17a21.37,21.37,0,0,0-1.13-7.64,13.64,13.64,0,0,0-9.09-8.72,15.15,15.15,0,0,0-11.46.42,14.87,14.87,0,0,0-7.82,8.32,15.58,15.58,0,0,0-.87,7.11,37.16,37.16,0,0,1,.17,3.95c-.06,2.84-.24,5.68-.3,8.52,0,3.07,0,6.15,0,9.22,0,1.54.1,3.07.11,4.6,0,2.14,0,4.27,0,6.42a11,11,0,0,1,1,.51,2.75,2.75,0,0,1,1.5,1.89A4.45,4.45,0,0,1,198,57.69a2.58,2.58,0,0,1-2.51.82,4.26,4.26,0,0,1-3-2.72,2.49,2.49,0,0,1,.91-3.25c1.27-.54,1.38-1.43,1.24-2.55a7,7,0,0,1,0-.92c0-5.8.08-11.6.1-17.4,0-3.41,0-6.83,0-10.25,0-2.8.23-5.59-.53-8.38a13.69,13.69,0,0,0-4.92-7.72,15.55,15.55,0,0,0-6.28-2.95,15,15,0,0,0-10.27,1.14,14.49,14.49,0,0,0-4,2.77c-3.35,3.59-4.5,8-4.42,12.73,0,1.27.14,2.54.13,3.81,0,1.09-.2,2.19-.19,3.29,0,3.12.13,6.24.13,9.37s-.11,6.51-.15,9.77c0,2.06,0,4.12,0,6.18,1.74.67,2.78,1.69,2.56,3.59a3.94,3.94,0,0,1-2.23,3.34c-1.2.58-2.23,0-3.17-.66a4.67,4.67,0,0,1-.84-1,2.79,2.79,0,0,1,1-4.48,1.36,1.36,0,0,0,.85-1.2,9.38,9.38,0,0,0,0-1.06c-.06-3.34-.16-6.68-.16-10,0-1.67.23-3.34.23-5,0-3.88,0-7.75-.07-11.62,0-3.42.18-6.84-.7-10.23a13.55,13.55,0,0,0-4.88-7.74A14.58,14.58,0,0,0,150,2.28c-2.23-.3-4.49-.71-6.66.05a23.2,23.2,0,0,0-5.12,2.38,13.51,13.51,0,0,0-5.75,8.4,21.71,21.71,0,0,0-.63,6.78,30,30,0,0,1,.08,3.15c0,1.1-.21,2.19-.2,3.29,0,3.08.16,6.15.18,9.23,0,2.16-.12,4.31-.13,6.47,0,3.11,0,6.23,0,9.36l.5.28c2.08,1.1,2.46,2.18,1.76,4.42-.55,1.78-2,3-3.94,2.3a4,4,0,0,1-1.91-1.54c-1.35-1.88-1-3.64.93-4.7a1.28,1.28,0,0,0,.78-1.23c0-.31,0-.61,0-.92-.05-3.43-.22-6.86-.13-10.29.08-3.06.25-6.12.16-9.2-.12-3.91-.06-7.83,0-11.75a20.92,20.92,0,0,0-1.12-7.13,13.68,13.68,0,0,0-9.16-8.82,15.2,15.2,0,0,0-11.46.47,14.52,14.52,0,0,0-7.66,8.12,19.5,19.5,0,0,0-1.11,8.94,20.86,20.86,0,0,1,0,2.5C99.35,24.91,99.2,27,99.2,29c0,3.92.1,7.83.13,11.75,0,3.51,0,7,0,10.62,0,0,0,0,0,0a3.57,3.57,0,0,0,.45.27,3,3,0,0,1,2,3.46,3.87,3.87,0,0,1-2.34,3.27,2.85,2.85,0,0,1-3-.73,3.85,3.85,0,0,1-1.49-3.47,2.57,2.57,0,0,1,1.86-2.17.91.91,0,0,0,.57-.94c0-.87,0-1.75,0-2.63,0-3.56,0-7.12,0-10.68,0-1.81.16-3.61.16-5.41,0-4.53-.1-9.06-.08-13.59a22,22,0,0,0-1.1-7.13,13.7,13.7,0,0,0-9.14-8.84,15,15,0,0,0-19.23,8.64,14.59,14.59,0,0,0-1,5.67c0,1.67.13,3.33.12,5,0,2.19-.16,4.38-.18,6.57,0,3.78,0,7.56,0,11.34,0,3.51.1,7,.09,10.52a1.06,1.06,0,0,0,.71,1.19,2.79,2.79,0,0,1,1.82,2.08,4.34,4.34,0,0,1-1.23,3.87,2.61,2.61,0,0,1-2.65.77,4.44,4.44,0,0,1-2.42-1.92,2.77,2.77,0,0,1,.88-4.26,1.55,1.55,0,0,0,.9-1.69c0-1.27,0-2.55,0-3.82,0-5,.06-9.93.08-14.9,0-3,0-6.05-.05-9.08-.06-3.28.37-6.57-.52-9.83a13.62,13.62,0,0,0-5-7.7,14.68,14.68,0,0,0-6.42-2.94c-2.32-.37-4.65-.73-6.93,0a28.61,28.61,0,0,0-4.11,1.77c-3.48,1.69-5.4,4.74-6.58,8.22a21.36,21.36,0,0,0-.9,6c-.14,4.31-.07,8.63-.07,12.94,0,4.1,0,8.19,0,12.28,0,2.64,0,5.27,0,7.85,2.69,1.49,2.72,2.12,2.37,4.45a3.47,3.47,0,0,1-3,2.79,4.22,4.22,0,0,1-3.64-2.82,5.53,5.53,0,0,1,.06-2.18c.21-1.11,1.35-1.27,2.19-1.86,0-.57.14-1.18.13-1.79,0-3.34-.15-6.68-.16-10,0-1.76.22-3.51.23-5.27,0-4.27,0-8.54,0-12.81A35,35,0,0,0,32,13.07a13.59,13.59,0,0,0-5.14-7.86,14.48,14.48,0,0,0-6.31-2.87c-2.31-.35-4.64-.73-6.92,0A28.13,28.13,0,0,0,9.49,4.12a13,13,0,0,0-6.55,8.4,19.83,19.83,0,0,0-.71,9.26,4.66,4.66,0,0,1,0,1C2.13,24.36,2,25.9,2,27.44c0,2.9.2,5.8.16,8.7-.07,6.9-.26,13.79-.35,20.68,0,2.37.11,4.73.17,7.1,0,.94,0,1.88.07,3,1.14-.2,2.09-.34,3-.53a13.08,13.08,0,0,0,5.5-2.41,18.21,18.21,0,0,0,4.31-4.62,12.78,12.78,0,0,0,1.66-4,41.21,41.21,0,0,0,.66-10.23c-.13-3.56,0-7.13,0-10.7q0-8.37,0-16.76c0-.42.13-.92-.39-1.16-1.62-.75-2-2.24-2.28-3.77a2.51,2.51,0,0,1,.58-2.22,3.56,3.56,0,0,1,3.23-1.44A3.08,3.08,0,0,1,21,11.36a4.91,4.91,0,0,1-1.14,4.78,1.87,1.87,0,0,0-.65,1.47c0,2.16,0,4.32,0,6.48,0,2.42.18,4.83.15,7.25-.05,4.62-.23,9.24-.3,13.86,0,2.15.06,4.3.16,6.46a14.91,14.91,0,0,0,2.94,9c3.21,4,7.22,6.37,12.5,6.13a21.75,21.75,0,0,0,3-.43,12.82,12.82,0,0,0,5.51-2.41,18,18,0,0,0,4.3-4.62,12.61,12.61,0,0,0,1.67-4,41.8,41.8,0,0,0,.66-10.24c-.13-3.6-.15-7.22,0-10.82.21-6.21.16-12.41-.08-18.64a10.26,10.26,0,0,1-1.29-.85,3.09,3.09,0,0,1-1.29-3.24A3.52,3.52,0,0,1,50,9.1a3,3,0,0,1,3.15,1.45,2.54,2.54,0,0,1,0,3.28c-.31.47-.7.89-1,1.35-.17.24-.43.5-.43.76q-.08,4.16-.05,8.3c0,2.42.19,4.83.17,7.25,0,4.62-.17,9.24-.22,13.85,0,2,.11,3.95.13,5.92a14.65,14.65,0,0,0,2.92,9.38c3.16,4,7.14,6.35,12.37,6.14a18.11,18.11,0,0,0,5.51-1.14,15.53,15.53,0,0,0,7.7-6.76,15,15,0,0,0,2-8.49C82.11,47.93,82,45.47,82,43c0-5.28.15-10.56.19-15.84,0-3,0-5.9,0-8.85a2.17,2.17,0,0,0-1.23-2.21,3,3,0,0,1-1.37-3.31,2.51,2.51,0,0,1,2.23-2.24,6.73,6.73,0,0,0,1-.29,22.42,22.42,0,0,1,2,1,1.75,1.75,0,0,1,.82.93,3.57,3.57,0,0,1-.54,3.25,3.69,3.69,0,0,0-1,3.37A32.24,32.24,0,0,1,84,22.51c0,2.85.1,5.71.11,8.56,0,5.33,0,10.65,0,16,0,1.62.15,3.25.07,4.86a12.47,12.47,0,0,0,2,7.65A17,17,0,0,0,90.19,64c4.12,3,8.65,3.46,13.43,2.07a14,14,0,0,0,6.29-4A14.45,14.45,0,0,0,114,54.45a50.51,50.51,0,0,0,.5-8.42c0-4.89,0-9.78,0-14.67V15.76a17.26,17.26,0,0,1-1.63-1.14,2.94,2.94,0,0,1-.77-3.78,3.58,3.58,0,0,1,4.09-1.62,3.09,3.09,0,0,1,1.69,4.48,7.45,7.45,0,0,1-1.1,1.46,1.31,1.31,0,0,0-.44,1c0,3.39,0,6.78.07,10.17,0,1.76.11,3.52.09,5.28,0,2.24-.16,4.48-.17,6.73,0,4.61-.09,9.24.07,13.85a17.32,17.32,0,0,0,1.09,5.26,14.46,14.46,0,0,0,5.29,6.61c4.08,3,8.59,3.36,13.32,2a14.18,14.18,0,0,0,6.29-4,14.29,14.29,0,0,0,4.12-7.79,51,51,0,0,0,.47-8.56c0-3.16-.11-6.33-.11-9.5q0-9.12.08-18.23a1.78,1.78,0,0,0-.95-1.81,3.23,3.23,0,0,1-1-4.57,3,3,0,0,1,2.74-1.25,5.33,5.33,0,0,1,2.43,1.18,1.55,1.55,0,0,1,.49,1,4,4,0,0,1-1.18,3.6,1.78,1.78,0,0,0-.61,1.5c0,2.82,0,5.63,0,8.45,0,1.67.14,3.34.12,5,0,2.86-.21,5.72-.17,8.58,0,3.69-.35,7.37,0,11.07a41.66,41.66,0,0,0,.42,4.18c.92,4.77,3.84,8,8,10.28a13.44,13.44,0,0,0,9.08,1.3,14.11,14.11,0,0,0,8.29-4.24,16.59,16.59,0,0,0,2.22-2.61,15.83,15.83,0,0,0,1.93-4.28,42.31,42.31,0,0,0,.69-10.37c-.09-4.57.06-9.15.07-13.72,0-5.24,0-10.47-.07-15.61a14.41,14.41,0,0,1-1.34-.87c-2-1.71-2-4,.46-5.38a3.68,3.68,0,0,1,1.38-.41c1.36-.16,2.2.65,2.94,1.65a2.29,2.29,0,0,1,.15,2.7c-.35.61-.82,1.14-1.21,1.72-.19.27-.46.57-.46.87-.05,2.59-.07,5.19,0,7.79s.16,5.1.14,7.65c0,4.58-.18,9.15-.23,13.73,0,2.11.1,4.21.14,6.32a14.74,14.74,0,0,0,2.82,9c3.22,4.16,7.32,6.51,12.69,6.26a16.34,16.34,0,0,0,3.26-.48,14,14,0,0,0,5.23-2.41,18.49,18.49,0,0,0,4.2-4.54,15,15,0,0,0,1.72-4.09c.83-3.1.51-6.3.51-9.46,0-2.59-.08-5.18-.07-7.78,0-3.91.11-7.83.13-11.74,0-2.77-.05-5.55-.05-8.32a1.7,1.7,0,0,0-1-1.69,3.15,3.15,0,0,1-1.64-3.44c.2-1.38,1.94-2.83,3.22-2.52a9.62,9.62,0,0,1,2.43,1.24,1.09,1.09,0,0,1,.44.77,4.75,4.75,0,0,1-.53,3.16,4.61,4.61,0,0,0-1.06,3.57c0,.22,0,.44,0,.66,0,2.23-.05,4.46-.05,6.7,0,3.52.08,7,.08,10.56,0,5.4,0,10.8,0,16.19a2.68,2.68,0,0,0,0,.4c.65,5.42,3.64,9.23,8.35,11.75a13.29,13.29,0,0,0,9,1.24A14.8,14.8,0,0,0,238.66,63c3-2.76,5-6,5.22-10.15.12-2.68.21-5.36.23-8q.09-10.1.09-20.21c0-3-.08-6-.12-8.91a5.47,5.47,0,0,1-1.27-.83,6.45,6.45,0,0,1-1.3-1.92,2.55,2.55,0,0,1,1-2.92,3.23,3.23,0,0,1,3.3-.79c1.6.56,2.68,2.5,2.09,3.87a5,5,0,0,1-1.14,1.74,2.33,2.33,0,0,0-.75,2c0,2.69,0,5.37,0,8.06,0,2.2.2,4.39.18,6.59,0,4.66-.18,9.32-.23,14,0,1.89.13,3.78.09,5.66a16.21,16.21,0,0,0,1.24,6.69,15,15,0,0,0,5,6.19c4.14,3.09,8.71,3.51,13.54,2.07a14,14,0,0,0,6.18-3.9c2.07-2.18,3.76-4.57,4.12-7.63.27-2.36.45-4.73.49-7.1.07-3.86,0-7.73,0-11.6q0-8.85,0-17.7a1.85,1.85,0,0,0-1.05-1.9A3.07,3.07,0,0,1,274,12.83c.2-1.4,1.91-2.84,3.21-2.51a9,9,0,0,1,2.52,1.33,1.33,1.33,0,0,1,.38.93,4.32,4.32,0,0,1-1.21,3.71,1.76,1.76,0,0,0-.42,1c-.1,1.18-.17,2.37-.16,3.55,0,2.11.09,4.21.1,6.32,0,2.81,0,5.63,0,8.45,0,3.91-.07,7.82-.07,11.73,0,1.31.08,2.62.14,3.94a32.45,32.45,0,0,0,.22,3.27c.77,5,3.76,8.33,8,10.66a13.37,13.37,0,0,0,9.08,1.31,14.07,14.07,0,0,0,8.29-4.23,16.52,16.52,0,0,0,2.21-2.61,16.2,16.2,0,0,0,2-4.27,39.94,39.94,0,0,0,.7-9.59c0-4.89,0-9.77,0-14.66V15.72a5.71,5.71,0,0,1-1.36-.88,5.83,5.83,0,0,1-1.31-2c-.44-1.67.84-3.27,2.74-3.69a3,3,0,0,1,3.19,1.38,2.4,2.4,0,0,1,.22,3c-.37.59-.83,1.12-1.24,1.69-.16.23-.4.5-.4.76q0,4.62,0,9.24c0,2.24.16,4.48.16,6.72,0,2.72-.14,5.45-.15,8.17,0,3.52.14,7,0,10.55a22.31,22.31,0,0,0,.47,4.7A10.65,10.65,0,0,0,313,59.5,17.71,17.71,0,0,0,317.2,64a13.8,13.8,0,0,0,7.05,2.73,17.24,17.24,0,0,0,7.37-1.09c3.46-1.26,5.83-3.79,7.73-6.72a14.75,14.75,0,0,0,2-8.35c0-2.5-.18-5-.16-7.48,0-3.48.16-7,.22-10.43,0-1.89,0-3.78,0-5.67,0-3.08-.09-6.16-.12-9.24a1.35,1.35,0,0,0-.85-1.46,2.77,2.77,0,0,1-.82-.64,3,3,0,0,1,1.22-5.06c.38-.11.75-.24,1.09-.35a20.85,20.85,0,0,0,1.91.93,1.44,1.44,0,0,1,1,1.14,4.53,4.53,0,0,1-.55,3.16,4.2,4.2,0,0,0-1,3.33V19c0,2.9-.11,5.8-.12,8.69,0,2.73.07,5.45.08,8.18q0,8.49,0,17a7,7,0,0,0,0,.79c.58,5.35,3.54,9.09,8.11,11.62a13.38,13.38,0,0,0,9.22,1.32,14.7,14.7,0,0,0,7.63-3.61c2.75-2.57,4.77-5.54,5.11-9.38.23-2.49.35-5,.38-7.51,0-4.93,0-9.86,0-14.79V15.74c-.59-.37-1-.63-1.45-.94A3.33,3.33,0,0,1,371,11.43,3.67,3.67,0,0,1,374,9.08a3,3,0,0,1,2.94,1.37,2.45,2.45,0,0,1,.23,3.15c-.35.55-.81,1-1.17,1.58a2.18,2.18,0,0,0-.39,1q0,5,0,9.9c0,1.72.15,3.43.13,5.15-.08,4.66-.23,9.32-.29,14,0,1.85.16,3.69.12,5.53A19.64,19.64,0,0,0,376,55c.93,4.77,3.84,8,7.95,10.28A13.53,13.53,0,0,0,393,66.56a14.17,14.17,0,0,0,8.29-4.24,17.14,17.14,0,0,0,2.22-2.61,16,16,0,0,0,1.92-4.14,37.34,37.34,0,0,0,.78-9.32c0-3.47-.13-7-.14-10.42,0-2.42.16-4.84.16-7.26,0-3.92-.05-7.83-.08-11.8a12,12,0,0,1-1.08-.62,3.33,3.33,0,0,1-1.39-3.33c.21-1.37,2-2.82,3.23-2.5a8.83,8.83,0,0,1,2.43,1.23,1.24,1.24,0,0,1,.49.9,4.34,4.34,0,0,1-1.26,3.81,1.39,1.39,0,0,0-.51,1.14c0,2.34-.05,4.67,0,7s.13,4.93.11,7.39c0,4.44-.18,8.89-.22,13.33,0,2.15.11,4.3.15,6.46a14.59,14.59,0,0,0,2.86,9c3.28,4.2,7.44,6.51,12.87,6.2a18.26,18.26,0,0,0,2.73-.44,13.35,13.35,0,0,0,5.6-2.51,18.51,18.51,0,0,0,4.1-4.42A12.78,12.78,0,0,0,438,55.58a40.4,40.4,0,0,0,.75-9.45c0-4.84,0-9.68-.05-14.52,0-5.33,0-10.65,0-15.9-.5-.31-.88-.52-1.23-.77A3.41,3.41,0,0,1,436,12.83a3.39,3.39,0,0,1,4-3.71,3.13,3.13,0,0,1,2,4.63,3.29,3.29,0,0,1-.77,1.05,2.16,2.16,0,0,0-.76,1.94c0,2.73,0,5.46,0,8.18,0,2.33.17,4.66.16,7,0,4.48-.17,9-.21,13.45,0,1.89.18,3.78.14,5.66a14.62,14.62,0,0,0,2.91,9.62c3.24,4.13,7.38,6.47,12.76,6.13a17.94,17.94,0,0,0,5.12-1.12,15.87,15.87,0,0,0,7.7-6.77,14.75,14.75,0,0,0,2-8.23c0-2.5-.18-5-.17-7.5,0-5.32.16-10.64.2-16,0-3.08-.08-6.16-.08-9.24a1.65,1.65,0,0,0-1-1.67,3.23,3.23,0,0,1-1.14-4.65c.32-.54,2.35-1.5,2.84-1.3a14.26,14.26,0,0,1,2.11,1,1.53,1.53,0,0,1,.66.94,3.82,3.82,0,0,1-.62,3.25,3.33,3.33,0,0,0-1,3.12,32.58,32.58,0,0,1-.09,3.94c0,2.86.13,5.72.13,8.57,0,5.24,0,10.47,0,15.71,0,1.67.18,3.34.08,5a12.68,12.68,0,0,0,1,5.91,15.42,15.42,0,0,0,4.82,6c4.14,3.21,8.75,3.66,13.63,2.25A14,14,0,0,0,498.84,62a14.33,14.33,0,0,0,4.06-7.67,53.56,53.56,0,0,0,.49-8.29V15.76a14.27,14.27,0,0,1-1.63-1.12c-1.18-1.14-1.63-2.66-.67-4s2.88-2.06,4.18-1.31c1.63.95,2.75,2.52,1.44,4.47a9.27,9.27,0,0,1-1.06,1.35,1.31,1.31,0,0,0-.44,1c0,2.78,0,5.55,0,8.32,0,2.2.19,4.4.19,6.6,0,3.25-.14,6.51-.16,9.76,0,3.56,0,7.11,0,10.67a14.15,14.15,0,0,0,1.11,5.92,15.28,15.28,0,0,0,10.78,9.09l.45.09v.8h6.17v-1l.14,0A13.09,13.09,0,0,0,529.38,64a18,18,0,0,0,4.3-4.61,12.77,12.77,0,0,0,1.67-4A41.77,41.77,0,0,0,536,45.19c-.12-3.56,0-7.13,0-10.69,0-5.59,0-11.18,0-16.77,0-.42.13-.92-.39-1.16-1.61-.74-2-2.23-2.27-3.77a2.51,2.51,0,0,1,.57-2.21,3.62,3.62,0,0,1,3.24-1.45,3.07,3.07,0,0,1,2.65,2.3,4.89,4.89,0,0,1-1.13,4.79A1.85,1.85,0,0,0,538,17.7c0,2.16,0,4.31,0,6.47,0,2.42.18,4.84.15,7.26-.06,4.61-.23,9.23-.3,13.85,0,2.15.06,4.31.15,6.46a15,15,0,0,0,2.95,9c3.2,4,7.22,6.37,12.49,6.12a20.26,20.26,0,0,0,3-.43,13,13,0,0,0,5.51-2.4,18,18,0,0,0,4.3-4.62,12.67,12.67,0,0,0,1.67-4,41.74,41.74,0,0,0,.65-10.24c-.12-3.6-.14-7.22,0-10.82.21-6.21.15-12.41-.08-18.63a10.65,10.65,0,0,1-1.29-.85,3.1,3.1,0,0,1-1.29-3.25,3.49,3.49,0,0,1,2.85-2.45,3,3,0,0,1,3.15,1.44,2.55,2.55,0,0,1,0,3.28c-.31.48-.7.9-1,1.36-.18.23-.43.5-.44.75,0,2.77-.07,5.54,0,8.31,0,2.42.19,4.83.17,7.24,0,4.62-.17,9.24-.22,13.86,0,2,.11,4,.13,5.92a14.61,14.61,0,0,0,2.92,9.38c3.16,4,7.13,6.34,12.36,6.13a17.59,17.59,0,0,0,5.52-1.14A15.46,15.46,0,0,0,599,59a14.93,14.93,0,0,0,2-8.49c-.06-2.46-.18-4.92-.17-7.38,0-5.28.15-10.56.2-15.84,0-3,0-5.9,0-8.85a2.19,2.19,0,0,0-1.23-2.22,2.94,2.94,0,0,1-1.38-3.31,2.53,2.53,0,0,1,2.24-2.24,6.23,6.23,0,0,0,.95-.29c.71.35,1.4.63,2,1a1.83,1.83,0,0,1,.82.93,3.56,3.56,0,0,1-.54,3.25,3.67,3.67,0,0,0-1,3.37,30.27,30.27,0,0,1-.08,3.68c0,2.85.11,5.7.11,8.55,0,5.33,0,10.66,0,16,0,1.62.16,3.25.08,4.87a12.45,12.45,0,0,0,2,7.64A16.87,16.87,0,0,0,609,64.08c4.11,3,8.64,3.46,13.42,2.07a14,14,0,0,0,6.29-4,14.47,14.47,0,0,0,4.12-7.64,50.63,50.63,0,0,0,.5-8.43c0-4.88,0-9.77,0-14.66V15.85c-.64-.45-1.18-.75-1.63-1.14a2.93,2.93,0,0,1-.77-3.78A3.55,3.55,0,0,1,635,9.3a3.09,3.09,0,0,1,1.7,4.48,7.13,7.13,0,0,1-1.11,1.46,1.32,1.32,0,0,0-.43,1c0,3.39,0,6.78.07,10.17,0,1.75.11,3.51.09,5.27,0,2.25-.17,4.49-.18,6.73,0,4.62-.08,9.24.08,13.85a17.38,17.38,0,0,0,1.09,5.27,14.32,14.32,0,0,0,5.29,6.6c4.08,3,8.59,3.37,13.32,2a14.06,14.06,0,0,0,6.29-4,14.26,14.26,0,0,0,4.12-7.78,52.17,52.17,0,0,0,.47-8.56c0-3.17-.11-6.34-.11-9.51q0-9.12.07-18.23a1.76,1.76,0,0,0-.94-1.8,3.23,3.23,0,0,1-1-4.58,3,3,0,0,1,2.74-1.25,5.3,5.3,0,0,1,2.42,1.18,1.54,1.54,0,0,1,.5,1,4.07,4.07,0,0,1-1.18,3.61,1.75,1.75,0,0,0-.61,1.49c0,2.82,0,5.64,0,8.46,0,1.67.13,3.34.12,5,0,2.86-.21,5.72-.18,8.57,0,3.69-.34,7.38,0,11.08a39.42,39.42,0,0,0,.41,4.18c.93,4.77,3.85,8,8,10.27a13.41,13.41,0,0,0,9.09,1.31,14.13,14.13,0,0,0,8.29-4.25,14.59,14.59,0,0,0,4.15-6.88,42.89,42.89,0,0,0,.69-10.38c-.09-4.57.06-9.14.06-13.72,0-5.23,0-10.47-.06-15.61a11.22,11.22,0,0,1-1.34-.87c-2-1.71-2-4,.46-5.38a3.87,3.87,0,0,1,1.38-.41c1.36-.15,2.19.66,2.94,1.65a2.29,2.29,0,0,1,.14,2.71c-.34.6-.81,1.13-1.2,1.71a2,2,0,0,0-.47.87c0,2.6-.06,5.2,0,7.79s.17,5.1.15,7.65c0,4.58-.19,9.16-.23,13.73,0,2.11.09,4.22.14,6.33a14.63,14.63,0,0,0,2.82,9c3.22,4.17,7.31,6.52,12.69,6.26a14.83,14.83,0,0,0,3.25-.48A13.69,13.69,0,0,0,724.14,64a18.64,18.64,0,0,0,4.2-4.53,15.57,15.57,0,0,0,1.72-4.1c.83-3.1.5-6.29.5-9.45,0-2.6-.08-5.19-.06-7.78,0-3.92.11-7.83.13-11.75,0-2.77,0-5.54,0-8.31a1.69,1.69,0,0,0-1-1.69A3.15,3.15,0,0,1,728,12.91c.2-1.37,1.94-2.83,3.21-2.51a9.48,9.48,0,0,1,2.44,1.23,1.15,1.15,0,0,1,.44.78,4.84,4.84,0,0,1-.53,3.16,4.61,4.61,0,0,0-1.07,3.57c0,.22,0,.44,0,.66,0,2.23-.05,4.46,0,6.69,0,3.52.07,7.05.08,10.57,0,5.39,0,10.79,0,16.19a2.56,2.56,0,0,0,0,.39c.65,5.43,3.63,9.24,8.34,11.75a13.31,13.31,0,0,0,9,1.24,14.65,14.65,0,0,0,7.64-3.58c3-2.76,5-6,5.22-10.14q.2-4,.24-8,.07-10.11.09-20.21c0-3-.08-6-.12-8.91a5.34,5.34,0,0,1-1.28-.83A6.75,6.75,0,0,1,760.28,13a2.55,2.55,0,0,1,1-2.93,3.24,3.24,0,0,1,3.3-.78c1.6.55,2.67,2.49,2.09,3.86a5.05,5.05,0,0,1-1.14,1.75,2.31,2.31,0,0,0-.75,2c0,2.68,0,5.37,0,8.05,0,2.2.19,4.4.17,6.59,0,4.67-.17,9.33-.23,14,0,1.89.14,3.78.1,5.67a16.35,16.35,0,0,0,1.23,6.68,14.9,14.9,0,0,0,5,6.19c4.13,3.1,8.71,3.52,13.54,2.08a14,14,0,0,0,6.18-3.91c2.07-2.18,3.76-4.57,4.12-7.63.27-2.35.45-4.72.49-7.09.07-3.87,0-7.74,0-11.61q0-8.84,0-17.69a1.82,1.82,0,0,0-1-1.9,3.1,3.1,0,0,1-1.54-3.37c.21-1.4,1.92-2.84,3.22-2.52a9.25,9.25,0,0,1,2.52,1.33,1.41,1.41,0,0,1,.38.93,4.32,4.32,0,0,1-1.21,3.71,1.73,1.73,0,0,0-.42,1c-.1,1.19-.17,2.37-.17,3.56,0,2.1.1,4.21.11,6.31,0,2.82,0,5.64,0,8.45,0,3.91-.07,7.82-.07,11.73,0,1.32.08,2.63.14,3.94a29.6,29.6,0,0,0,.22,3.27c.77,5,3.76,8.34,8,10.67a13.41,13.41,0,0,0,9.09,1.31,14.14,14.14,0,0,0,8.29-4.24,16.45,16.45,0,0,0,2.21-2.6,16.06,16.06,0,0,0,2-4.28,38.9,38.9,0,0,0,.7-9.58c0-4.89,0-9.78,0-14.67,0-5.19,0-10.38,0-15.46a6.18,6.18,0,0,1-1.35-.88,5.87,5.87,0,0,1-1.31-2c-.45-1.67.84-3.27,2.73-3.69A3.06,3.06,0,0,1,831,10.57a2.39,2.39,0,0,1,.23,3c-.38.59-.84,1.12-1.24,1.69a1.61,1.61,0,0,0-.4.76c0,3.08,0,6.16,0,9.24,0,2.24.16,4.48.15,6.72,0,2.73-.14,5.45-.15,8.18,0,3.52.14,7,0,10.55a21.67,21.67,0,0,0,.47,4.7,10.68,10.68,0,0,0,1.65,4.13,17.76,17.76,0,0,0,4.2,4.53,13.81,13.81,0,0,0,7,2.74,17.12,17.12,0,0,0,7.37-1.1c3.46-1.26,5.83-3.79,7.73-6.71a14.7,14.7,0,0,0,2-8.36c0-2.49-.17-5-.15-7.48,0-3.48.16-7,.21-10.43,0-1.89,0-3.78,0-5.67,0-3.08-.09-6.15-.11-9.23a1.34,1.34,0,0,0-.85-1.46,2.8,2.8,0,0,1-.82-.65,3,3,0,0,1,1.22-5c.37-.11.74-.25,1.08-.36.67.33,1.27.69,1.92.94a1.43,1.43,0,0,1,1,1.14,4.5,4.5,0,0,1-.56,3.16,4.18,4.18,0,0,0-1,3.32.66.66,0,0,1,0,.14c0,2.89-.11,5.79-.11,8.69,0,2.72.06,5.45.07,8.17,0,5.66,0,11.33,0,17a7,7,0,0,0,0,.79c.58,5.35,3.53,9.08,8.11,11.61a13.38,13.38,0,0,0,9.22,1.33A14.85,14.85,0,0,0,887,63c2.75-2.57,4.76-5.54,5.11-9.38q.33-3.75.37-7.52c.06-4.93,0-9.85,0-14.78V15.82c-.59-.37-1-.62-1.46-.93a3.37,3.37,0,0,1-1.24-3.37,3.7,3.7,0,0,1,3-2.36,3.06,3.06,0,0,1,3,1.38,2.43,2.43,0,0,1,.22,3.14c-.35.56-.8,1-1.16,1.59a2.22,2.22,0,0,0-.4,1q0,4.95,0,9.9c0,1.71.15,3.43.12,5.14-.07,4.67-.22,9.33-.29,14,0,1.84.17,3.69.13,5.53a19.64,19.64,0,0,0,.39,4.19c.93,4.76,3.83,8,8,10.28a13.46,13.46,0,0,0,9.09,1.31,14.06,14.06,0,0,0,8.28-4.24,16.44,16.44,0,0,0,2.22-2.6,16,16,0,0,0,1.93-4.15,37.3,37.3,0,0,0,.78-9.32c0-3.47-.14-6.94-.14-10.42,0-2.42.15-4.84.16-7.26,0-3.91,0-7.83-.08-11.8a9.89,9.89,0,0,1-1.08-.61,3.37,3.37,0,0,1-1.4-3.34c.22-1.37,2-2.81,3.23-2.5a8.92,8.92,0,0,1,2.44,1.24,1.24,1.24,0,0,1,.49.89,4.37,4.37,0,0,1-1.26,3.82,1.34,1.34,0,0,0-.51,1.14c0,2.33-.05,4.66,0,7s.14,4.92.12,7.38c0,4.45-.18,8.89-.22,13.34,0,2.15.1,4.3.15,6.45a14.56,14.56,0,0,0,2.86,9c3.27,4.19,7.44,6.5,12.86,6.19a16.86,16.86,0,0,0,2.73-.43,13.57,13.57,0,0,0,5.61-2.51,18.55,18.55,0,0,0,4.1-4.43,12.73,12.73,0,0,0,1.71-3.82,41,41,0,0,0,.75-9.45c0-4.85,0-9.69-.05-14.53,0-5.32,0-10.64,0-15.89-.5-.31-.88-.52-1.23-.77a3.48,3.48,0,0,1-1.46-2.12,3.39,3.39,0,0,1,4-3.71,3.14,3.14,0,0,1,2,4.63,3.44,3.44,0,0,1-.77,1.06,2.14,2.14,0,0,0-.76,1.94c0,2.73,0,5.45,0,8.18,0,2.33.17,4.66.16,7,0,4.49-.17,9-.21,13.46,0,1.88.18,3.77.14,5.65a14.49,14.49,0,0,0,2.91,9.62c3.24,4.14,7.38,6.48,12.75,6.13a17.6,17.6,0,0,0,5.13-1.12c3.45-1.29,5.8-3.82,7.69-6.76a14.77,14.77,0,0,0,2-8.23c0-2.5-.18-5-.17-7.5,0-5.32.16-10.65.19-16,0-3.08-.07-6.16-.07-9.24a1.66,1.66,0,0,0-1-1.68,3.23,3.23,0,0,1-1.15-4.65c.33-.53,2.35-1.49,2.85-1.29a12.53,12.53,0,0,1,2.11,1,1.47,1.47,0,0,1,.65.94,3.72,3.72,0,0,1-.62,3.24,3.34,3.34,0,0,0-1,3.12,32.7,32.7,0,0,1-.09,3.95c0,2.85.13,5.71.13,8.57,0,5.23,0,10.47,0,15.71,0,1.66.17,3.34.08,5a12.57,12.57,0,0,0,1,5.92,15.39,15.39,0,0,0,4.82,6c4.14,3.21,8.74,3.67,13.63,2.26a14.2,14.2,0,0,0,6.39-4.05,14.39,14.39,0,0,0,4.06-7.68,53.49,53.49,0,0,0,.49-8.29V31.34c0-5.2,0-10.39,0-15.5a11.34,11.34,0,0,1-1.62-1.12c-1.19-1.13-1.63-2.66-.67-4s2.87-2.06,4.17-1.3c1.64.95,2.76,2.51,1.44,4.47a8.49,8.49,0,0,1-1,1.34,1.29,1.29,0,0,0-.44,1c0,2.77,0,5.55,0,8.32,0,2.2.19,4.4.18,6.59,0,3.26-.13,6.51-.16,9.77,0,3.55,0,7.11,0,10.66a14.35,14.35,0,0,0,1.1,5.93,15.3,15.3,0,0,0,10.79,9.09c.49.12,1,.17,1.57.26,0-.39.07-.65.07-.91C1037.52,60.35,1037.53,54.72,1037.49,49.1Z" style="fill:#fff"/><path d="M1037.73,10.72a17.4,17.4,0,0,0-1.7-3.19,20,20,0,0,0-1.57-2,15.83,15.83,0,0,0-5.51-4,16.51,16.51,0,0,0-8.14-1.21,17.05,17.05,0,0,0-13,7.78c-.76,1.1-1.34,2.34-1.95,3.44-.72-1.23-1.42-2.6-2.28-3.86A15.66,15.66,0,0,0,988.38.23a16.88,16.88,0,0,0-12.58,7.1c-.9,1.19-1.6,2.54-2.35,3.75-.7-1.17-1.37-2.4-2.15-3.56-3-4.48-7.17-7.1-12.71-7.31a17,17,0,0,0-10.84,3,26.06,26.06,0,0,0-3.19,3,13.09,13.09,0,0,0-3.1,4.84,2.86,2.86,0,0,1-.38.54,6.22,6.22,0,0,1-.29-.56c-2-4.34-4.83-7.72-9.39-9.68a16,16,0,0,0-8-1.07,17,17,0,0,0-13,8c-.67,1-1.19,2.1-1.77,3.13-.76-1.28-1.44-2.6-2.26-3.83C902.77,2.21,897.7-.32,891.22.23a17.07,17.07,0,0,0-13.13,7.83,36.25,36.25,0,0,0-1.9,3.42c-.74-1.25-1.43-2.58-2.25-3.82C870.89,3.05,866.68.4,861.05.2a18.77,18.77,0,0,0-4.85.42,17.38,17.38,0,0,0-10.7,7.61c-.63.92-1.12,1.93-1.68,2.91-.71-1.2-1.37-2.43-2.15-3.57C838.6,3,834.43.41,828.85.2a17.41,17.41,0,0,0-10.73,3,18.71,18.71,0,0,0-4.15,4,11,11,0,0,0-2.23,4c0,.14-.19.24-.23.29-.78-1.32-1.48-2.64-2.29-3.89A15.59,15.59,0,0,0,794.08.22,16.87,16.87,0,0,0,781.4,7.39c-.89,1.21-1.59,2.57-2.37,3.82-.71-1.18-1.4-2.5-2.23-3.71C773.14,2.13,768-.35,761.56.24a17,17,0,0,0-13.07,7.93c-.72,1.07-1.27,2.26-1.85,3.3-.74-1.26-1.45-2.63-2.29-3.9A15.56,15.56,0,0,0,729.16.23c-6.09.54-10.6,3.69-13.74,8.87-.41.68-.74,1.41-1.1,2.1C713.6,10,713,8.78,712.2,7.66,709.13,3.07,704.94.41,699.31.2a17.31,17.31,0,0,0-10.73,3,19.11,19.11,0,0,0-4.15,4,12.36,12.36,0,0,0-2.26,4c0,.09-.16.15-.22.2-.78-1.32-1.46-2.64-2.29-3.87C676.6,3,672.44.39,666.85.21a18.6,18.6,0,0,0-5.1.48,17.52,17.52,0,0,0-11.21,8.74c-.39.68-.69,1.43-1.07,2.23a5.05,5.05,0,0,1-.33-.58A17.44,17.44,0,0,0,638.81,1a9.75,9.75,0,0,0-2.26-.67,28,28,0,0,0-4.48-.07,17,17,0,0,0-12.6,7.07A47,47,0,0,0,617,11.41c-.68-1.19-1.39-2.56-2.24-3.83C611.09,2.19,606-.33,599.53.23c-6.1.53-10.61,3.68-13.77,8.85-.41.68-.73,1.41-1.1,2.12-.73-1.22-1.38-2.4-2.13-3.53A15.4,15.4,0,0,0,569.65.21a16.63,16.63,0,0,0-10.71,3,28.38,28.38,0,0,0-3.29,3,13.53,13.53,0,0,0-3,4.61c-.1.22-.23.42-.38.69a3.19,3.19,0,0,1-.29-.43A19.81,19.81,0,0,0,546.92,4,16.27,16.27,0,0,0,539.7.35a15.9,15.9,0,0,0-5.38-.08c-5.9.65-10.18,3.84-13.24,8.78a12.5,12.5,0,0,0-1.5,3.34,17.88,17.88,0,0,0-2.31-4.94,16.56,16.56,0,0,0-7.08-6.1A16.55,16.55,0,0,0,502,.15a17,17,0,0,0-13,7.78c-.76,1.1-1.33,2.34-1.95,3.43-.71-1.22-1.42-2.59-2.27-3.86A15.7,15.7,0,0,0,469.62.14,16.88,16.88,0,0,0,457,7.24c-.9,1.2-1.59,2.54-2.35,3.76-.7-1.17-1.37-2.41-2.15-3.56-3-4.48-7.17-7.1-12.71-7.32A17,17,0,0,0,429,3.17a26,26,0,0,0-3.18,2.94A13.16,13.16,0,0,0,422.69,11a2.21,2.21,0,0,1-.38.53l-.29-.55c-2-4.34-4.83-7.73-9.38-9.68a16,16,0,0,0-8-1.08,17,17,0,0,0-13,8c-.66,1-1.19,2.09-1.77,3.13-.75-1.29-1.44-2.61-2.26-3.83C384,2.13,378.93-.4,372.45.14A17.08,17.08,0,0,0,359.32,8c-.74,1.08-1.29,2.31-1.91,3.42-.73-1.26-1.42-2.58-2.24-3.82C352.12,3,347.91.31,342.28.11a18.81,18.81,0,0,0-4.85.43,17.4,17.4,0,0,0-10.7,7.6c-.62.92-1.12,1.94-1.67,2.91-.72-1.19-1.37-2.42-2.15-3.57C319.83,3,315.67.33,310.09.11a17.49,17.49,0,0,0-10.74,3,18.63,18.63,0,0,0-4.14,4,11.13,11.13,0,0,0-2.24,4c0,.14-.19.24-.23.3-.77-1.33-1.47-2.65-2.29-3.89A15.55,15.55,0,0,0,275.31.14a16.82,16.82,0,0,0-12.67,7.17c-.9,1.21-1.61,2.56-2.37,3.82-.71-1.19-1.41-2.5-2.24-3.72A15.68,15.68,0,0,0,242.8.15a17.12,17.12,0,0,0-13.08,7.94c-.72,1.07-1.27,2.25-1.85,3.29-.73-1.26-1.44-2.62-2.29-3.9A15.56,15.56,0,0,0,210.39.15C204.3.68,199.79,3.84,196.66,9c-.42.67-.75,1.4-1.1,2.1-.73-1.22-1.37-2.42-2.12-3.54C190.36,3,186.17.32,180.54.11a17.39,17.39,0,0,0-10.73,3,19.39,19.39,0,0,0-4.15,4,12.29,12.29,0,0,0-2.25,4c0,.09-.16.15-.23.2-.77-1.32-1.46-2.64-2.29-3.86C157.83,3,153.67.3,148.08.12a19,19,0,0,0-5.1.49,17.49,17.49,0,0,0-11.21,8.74c-.4.68-.68,1.42-1.07,2.23-.15-.27-.25-.42-.32-.58A17.41,17.41,0,0,0,120.05.88a9,9,0,0,0-2.26-.67A26.94,26.94,0,0,0,113.3.14,17,17,0,0,0,100.7,7.2a45.94,45.94,0,0,0-2.51,4.12c-.69-1.18-1.39-2.55-2.25-3.82C92.32,2.11,87.23-.42,80.76.15,74.66.68,70.16,3.83,67,9c-.42.68-.74,1.42-1.11,2.12-.72-1.21-1.38-2.4-2.13-3.53A15.4,15.4,0,0,0,50.88.12a16.7,16.7,0,0,0-10.71,3,27.5,27.5,0,0,0-3.28,3,13.61,13.61,0,0,0-3,4.61c-.09.21-.23.41-.38.68a4.85,4.85,0,0,1-.29-.42,19.85,19.85,0,0,0-5.06-7.16A16.39,16.39,0,0,0,20.93.27,15.9,15.9,0,0,0,15.55.18,16.66,16.66,0,0,0,4.7,5.76,22.5,22.5,0,0,0,2.31,9a13.55,13.55,0,0,0-.95,1.81A9.36,9.36,0,0,0,.54,13.9C.19,18.5-.09,22.06,0,23V68.11c0,.26.44,0,.6,0C2,68,3.38,68,4.76,67.84l.56,0A13.77,13.77,0,0,0,13.9,63a45.62,45.62,0,0,0,2.82-3.66c.42-.54.81-1.08,1.18-1.58,1,1.45,2,2.79,3,4.15a14.85,14.85,0,0,0,4.49,4.23,16.25,16.25,0,0,0,9.83,2.4,15.31,15.31,0,0,0,4.4-.74,19.25,19.25,0,0,0,8.56-6.4c.72-1,1.36-2,2-3.07.19-.28.39-.56.64-.9l.47.78a27,27,0,0,0,2.49,3.88c3.72,4.14,8.32,6.4,14,6,.3,0,.62,0,.93,0a15.25,15.25,0,0,0,10.8-5.37,17,17,0,0,0,3.38-5.94,15,15,0,0,1,1,1.84c1,2.78,3,4.7,5.21,6.5A14.41,14.41,0,0,0,99.33,68.6a16.4,16.4,0,0,0,7.23-1.82,19.87,19.87,0,0,0,6.27-5.93,42.57,42.57,0,0,0,2.53-4.47c.22.41.46.82.65,1.25a16.53,16.53,0,0,0,3.3,5.2c2.83,2.75,5.93,4.87,10,5.5a16.19,16.19,0,0,0,8.9-1.26,10.07,10.07,0,0,0,4-2.7c1.29-1.54,2.6-3.09,3.8-4.7a33.55,33.55,0,0,0,1.77-3,2.71,2.71,0,0,1,.29.35,22.47,22.47,0,0,0,6.25,8.06,15.38,15.38,0,0,0,10.84,3.4,14.91,14.91,0,0,0,12.17-6.9c1-1.45,1.93-2.93,2.95-4.49.3.52.59,1,.87,1.49A20,20,0,0,0,190,67.18a10.29,10.29,0,0,0,6.12,1.17c.79-.12,1.58-.15,2.37-.25a16.24,16.24,0,0,0,10-4.67,28.8,28.8,0,0,0,3.37-4.55c.24-.38.49-.75.85-1.3,3.43,7,8.73,11.08,16.34,10.92S242,64.2,245,56.86c.32.72.5,1.16.7,1.58a16.94,16.94,0,0,0,10.42,9.46,17.58,17.58,0,0,0,8.09.37,14.28,14.28,0,0,0,6.15-2.58,19.55,19.55,0,0,0,6.31-7.32c.19-.37.44-.7.73-1.16a8.77,8.77,0,0,1,.5.81,18.65,18.65,0,0,0,3.29,4.76,17.87,17.87,0,0,0,5.56,4.16,15.74,15.74,0,0,0,6.37,1.51,14.12,14.12,0,0,0,9.81-2.81,27.07,27.07,0,0,0,4.5-4.45c.7-.89,1.23-1.9,1.85-2.86a9.24,9.24,0,0,1,.65-.77c3.43,6.68,8.5,10.77,16.17,10.8s12.69-4.12,16.27-10.61c.17.22.31.37.42.54.78,1.16,1.51,2.37,2.35,3.5a15.53,15.53,0,0,0,9,6,16.48,16.48,0,0,0,13.95-2.47,24.59,24.59,0,0,0,2.83-2.58,12.75,12.75,0,0,0,3.35-4.84c.05-.13.2-.21.25-.27.6,1,1.14,2,1.71,2.88a19.39,19.39,0,0,0,6.12,5.74,15,15,0,0,0,11.15,2.11A19.35,19.35,0,0,0,399.74,66a12.79,12.79,0,0,0,3.08-2.45,15.2,15.2,0,0,0,3.81-6.26c0-.11.15-.2.3-.4.27.51.52.95.73,1.41a16.59,16.59,0,0,0,12.6,10,16.5,16.5,0,0,0,17.44-7.9c.56-1.07,1.19-2.11,1.84-3.26a4.94,4.94,0,0,1,.58.84,19.83,19.83,0,0,0,3.56,5.38,15.18,15.18,0,0,0,7.86,4.82c2.66.67,5.32.25,8-.14,5.11-.74,8.41-3.91,11-8a22.21,22.21,0,0,0,1.22-2.55c.14.12.24.17.27.24a15.21,15.21,0,0,0,4.2,6.15,15,15,0,0,0,6.69,4A18.09,18.09,0,0,0,494,67.42a17.37,17.37,0,0,0,8.52-6.77c.53-.81,1.05-1.64,1.64-2.57.22.44.33.72.49,1a21,21,0,0,0,3.11,4.4,22.53,22.53,0,0,0,6.66,4.2,14.33,14.33,0,0,0,5.23,1c.5,0,1.16-.06,1.92-.16a23.64,23.64,0,0,0,2.73-.57c1.55-.45,5.55-1.56,8.33-4.78.63-.73,1.67-2.12,2.83-3.66.4-.53.8-1.07,1.16-1.58,1,1.46,2,2.8,3,4.16a14.82,14.82,0,0,0,4.49,4.22,16.08,16.08,0,0,0,9.82,2.4,15.1,15.1,0,0,0,4.41-.74,19.2,19.2,0,0,0,8.55-6.39c.73-1,1.37-2.05,2.05-3.08.18-.28.39-.55.64-.89.2.33.33.56.47.77a26.83,26.83,0,0,0,2.49,3.89c3.72,4.14,8.31,6.4,14,6,.31,0,.61,0,.92,0a15.27,15.27,0,0,0,10.8-5.37,17.29,17.29,0,0,0,3.39-5.94,15,15,0,0,1,1,1.84c1,2.78,3,4.7,5.21,6.5a14.38,14.38,0,0,0,10.26,3.45,16.46,16.46,0,0,0,7.22-1.82,19.9,19.9,0,0,0,6.28-5.93,41.92,41.92,0,0,0,2.52-4.48c.22.42.46.83.66,1.25a16.29,16.29,0,0,0,3.3,5.21c2.83,2.74,5.93,4.86,10,5.5A16.15,16.15,0,0,0,657,67.16a10,10,0,0,0,4-2.7c1.3-1.55,2.6-3.09,3.81-4.71a28.9,28.9,0,0,0,1.76-3,1.92,1.92,0,0,1,.29.36,22.66,22.66,0,0,0,6.26,8.05,15.37,15.37,0,0,0,10.83,3.4,14.93,14.93,0,0,0,12.18-6.89c1-1.45,1.93-2.94,2.95-4.5.3.52.59,1,.86,1.49a20,20,0,0,0,8.88,8.57,10.39,10.39,0,0,0,6.13,1.17c.78-.13,1.58-.15,2.36-.26a16.26,16.26,0,0,0,10-4.66A28.7,28.7,0,0,0,730.64,59c.24-.38.49-.76.85-1.3,3.43,7,8.73,11.07,16.33,10.91s12.92-4.3,15.91-11.64c.32.73.5,1.16.7,1.58A16.92,16.92,0,0,0,774.84,68a17.63,17.63,0,0,0,8.1.38,14.33,14.33,0,0,0,6.15-2.58,19.58,19.58,0,0,0,6.31-7.33c.19-.36.44-.7.73-1.15a6.7,6.7,0,0,1,.49.8,18.27,18.27,0,0,0,3.3,4.76A17.79,17.79,0,0,0,805.48,67a15.9,15.9,0,0,0,6.37,1.51,14.14,14.14,0,0,0,9.81-2.81,26.69,26.69,0,0,0,4.49-4.46c.7-.88,1.23-1.9,1.85-2.85.16-.24.37-.44.65-.78,3.44,6.69,8.5,10.77,16.17,10.81s12.7-4.13,16.27-10.61c.18.21.31.36.43.53.78,1.17,1.51,2.38,2.35,3.5a15.47,15.47,0,0,0,9,6,16.45,16.45,0,0,0,14-2.48,24.5,24.5,0,0,0,2.83-2.57A12.83,12.83,0,0,0,893,58c.05-.13.2-.22.26-.28.59,1,1.12,2,1.7,2.88a19.32,19.32,0,0,0,6.12,5.75,15,15,0,0,0,11.14,2.1A19.24,19.24,0,0,0,918.5,66a12.89,12.89,0,0,0,3.08-2.45,15.09,15.09,0,0,0,3.81-6.26c0-.12.15-.21.3-.41.28.52.53.95.74,1.41a16.6,16.6,0,0,0,12.59,10,15.64,15.64,0,0,0,11.1-1.73,15.44,15.44,0,0,0,6.34-6.17c.57-1.07,1.19-2.11,1.85-3.27a6.16,6.16,0,0,1,.58.84,19.67,19.67,0,0,0,3.56,5.38,15.13,15.13,0,0,0,7.86,4.83c2.65.67,5.31.25,8-.14,5.12-.75,8.41-3.91,11-8a26,26,0,0,0,1.22-2.55c.14.12.24.16.26.23A15.23,15.23,0,0,0,995,63.85a15,15,0,0,0,6.69,4,18.09,18.09,0,0,0,11.13-.39,17.23,17.23,0,0,0,8.51-6.77c.54-.81,1-1.64,1.65-2.57.21.44.33.73.49,1a21.6,21.6,0,0,0,3.1,4.4,22.87,22.87,0,0,0,6.66,4.2c.41.18.8.33,1.16.45a10.27,10.27,0,0,0,3.19.52,12.17,12.17,0,0,0,1.52-.07V18.26A18.78,18.78,0,0,0,1037.73,10.72ZM1037.52,66c0,.26,0,.52-.07.92-.57-.1-1.08-.15-1.57-.27a16.85,16.85,0,0,1-1.66-.49,14.64,14.64,0,0,1-5.5-3.34,16.86,16.86,0,0,1-3.62-5.26c-.1-.22-.19-.45-.28-.68a11.52,11.52,0,0,1-.47-1.62c-.09-.39-.16-.78-.22-1.18,0-.12,0-.23,0-.35a3.91,3.91,0,0,1,0-.48,14.35,14.35,0,0,1-.06-1.61c0-3.56,0-7.11,0-10.66,0-3.26.16-6.52.16-9.77V31c0-1.07,0-2.13-.08-3.19s-.09-2.14-.1-3.21c0-2.36,0-4.72,0-7.08,0-.41,0-.82,0-1.24a1.15,1.15,0,0,1,0-.33.85.85,0,0,1,.1-.28,1.48,1.48,0,0,1,.31-.41,9.62,9.62,0,0,0,1-1.22l.08-.12c1.31-2,.2-3.53-1.44-4.48-1.29-.75-3.19-.05-4.17,1.31s-.52,2.86.67,4a12.51,12.51,0,0,0,1.62,1.12h0V46.13a53.49,53.49,0,0,1-.49,8.29c0,.19-.06.38-.1.56a11.63,11.63,0,0,1-.59,2,17.58,17.58,0,0,1-4.77,6.47,13.41,13.41,0,0,1-5,2.71c-.43.12-.85.24-1.28.33l-.63.13c-.42.08-.83.14-1.25.19a13.79,13.79,0,0,1-10.47-2.9,15.42,15.42,0,0,1-4.82-6,12.55,12.55,0,0,1-1-5.91c.1-1.66-.08-3.33-.08-5,0-5.23.05-10.47,0-15.71,0-2.86-.12-5.71-.13-8.57a32.53,32.53,0,0,0,.09-3.94,3.32,3.32,0,0,1,1-3.12,3.74,3.74,0,0,0,.62-3.24.61.61,0,0,0,0-.13,1,1,0,0,0-.11-.27,2.27,2.27,0,0,0-.18-.25,1.46,1.46,0,0,0-.33-.29c-.16-.11-.33-.2-.51-.3a14.55,14.55,0,0,0-1.6-.74,4.47,4.47,0,0,0-2.55,1l-.13.11-.1.1-.07.09a3.23,3.23,0,0,0,1.15,4.65,1.66,1.66,0,0,1,1,1.68c0,1.39,0,2.77,0,4.15,0,1.69.05,3.39,0,5.08,0,5.33-.16,10.65-.19,16,0,2.5.15,5,.17,7.49a14.67,14.67,0,0,1-2,8.23,20.08,20.08,0,0,1-3.26,4c-.15.15-.31.29-.48.43a13.41,13.41,0,0,1-4,2.34A18,18,0,0,1,975,66.85c-5.37.34-9.51-2-12.75-6.13a14.51,14.51,0,0,1-2.91-9.62c0-1.88-.16-3.77-.14-5.65,0-4.49.17-9,.21-13.46,0-2.33-.14-4.66-.16-7,0-2.73.06-5.46,0-8.19a2.12,2.12,0,0,1,.76-1.93,3.44,3.44,0,0,0,.77-1.06,3.12,3.12,0,0,0-.78-4,3.18,3.18,0,0,0-1-.52,2.29,2.29,0,0,0-.28-.09,3.09,3.09,0,0,0-2.17.28,4,4,0,0,0-.49.3,3.11,3.11,0,0,0-.28.23.52.52,0,0,0-.11.1,1.75,1.75,0,0,0-.23.24,3,3,0,0,0-.77,2.57,3.29,3.29,0,0,0,.95,1.68,2.61,2.61,0,0,0,.24.23l.27.2c.17.12.36.24.56.36l.67.42c0,5.24,0,10.56,0,15.88v0c0,4.84,0,9.67,0,14.5,0,1,0,2,0,3,0,.36,0,.72,0,1.08s0,.69-.06,1-.07.93-.12,1.4c0,.26-.06.52-.1.78-.1.73-.23,1.45-.4,2.16a8.83,8.83,0,0,1-.3,1,11.78,11.78,0,0,1-.59,1.37l-.1.21c-.23.43-.46.85-.72,1.25a18.51,18.51,0,0,1-4.1,4.42,13.38,13.38,0,0,1-5.61,2.51,17.85,17.85,0,0,1-2.73.44,14.11,14.11,0,0,1-7.61-1.6,13.27,13.27,0,0,1-1.44-.89,13.78,13.78,0,0,1-1.35-1.07c-.22-.19-.44-.39-.65-.6a19.68,19.68,0,0,1-1.81-2,14.58,14.58,0,0,1-2.86-9c-.05-2.16-.16-4.3-.15-6.46,0-4.44.18-8.88.22-13.33,0-.76,0-1.51,0-2.27,0-1.71-.09-3.42-.1-5.12,0-2.33.05-4.66,0-7a1.37,1.37,0,0,1,.51-1.14,4.32,4.32,0,0,0,1.26-3.81s0-.08,0-.12a2,2,0,0,0-.08-.26l-.06-.13a1.88,1.88,0,0,0-.16-.23l-.09-.09-.09-.07a8.75,8.75,0,0,0-2.44-1.23,2.7,2.7,0,0,0-2.37.95l-.19.2a4.25,4.25,0,0,0-.31.43,2.45,2.45,0,0,0-.36.92,3.35,3.35,0,0,0,1.4,3.33,10.72,10.72,0,0,0,1.08.62c0,4,.09,7.89.08,11.8,0,2.42-.17,4.84-.16,7.26,0,3.47.15,7,.14,10.42a37.34,37.34,0,0,1-.78,9.32,14,14,0,0,1-1.35,3.15c-.18.34-.38.67-.57,1a8.3,8.3,0,0,1-1,1.34c-.19.22-.39.43-.59.63l-.3.32-.29.31a4.57,4.57,0,0,1-.44.44,14.18,14.18,0,0,1-7.85,3.8c-.48.08-1,.15-1.43.19A13.7,13.7,0,0,1,905,66.3a12.64,12.64,0,0,1-2.28-1c-4.12-2.26-7-5.51-8-10.28a19.64,19.64,0,0,1-.39-4.19c0-1.34-.07-2.69-.11-4,0-.5,0-1,0-1.49.07-4.67.22-9.33.29-14,0-1.71-.1-3.43-.12-5.14q0-4.95,0-9.91a2,2,0,0,1,.4-1,9.15,9.15,0,0,1,.59-.8,8.79,8.79,0,0,0,.57-.79,2.45,2.45,0,0,0-.22-3.15,3.58,3.58,0,0,0-.26-.29l-.27-.27a2.66,2.66,0,0,0-2.41-.81,3.69,3.69,0,0,0-3,2.35,1.94,1.94,0,0,0-.09,1,3.05,3.05,0,0,0,.2.76,4,4,0,0,0,.86,1.35,2.09,2.09,0,0,0,.28.24l.32.22.71.45.42.26V31.33c0,4.93,0,9.86,0,14.79,0,2.51-.15,5-.37,7.51,0,.24-.05.48-.08.71-.07.47-.17.92-.28,1.36a13.51,13.51,0,0,1-.68,1.91,14.2,14.2,0,0,1-1.74,2.86q-.41.54-.87,1.05A20.77,20.77,0,0,1,887,63l-.41.37a13.6,13.6,0,0,1-4.1,2.39,19.47,19.47,0,0,1-3.11.84,13.38,13.38,0,0,1-9.22-1.32,16.47,16.47,0,0,1-5.55-4.75,13.25,13.25,0,0,1-1.34-2.31A14.78,14.78,0,0,1,862,53.68a6.89,6.89,0,0,1,0-.79c0-5.66,0-11.32,0-17,0-2.73-.08-5.45-.07-8.18,0-2.17,0-4.34.08-6.52,0-.72,0-1.45,0-2.17v-.13a4.18,4.18,0,0,1,1-3.32,4.55,4.55,0,0,0,.56-3.16,1.46,1.46,0,0,0-1-1.15l-.48-.2c-.32-.15-.63-.31-.95-.48l-.49-.25c-.34.11-.7.24-1.08.35a3.7,3.7,0,0,0-.5.19,3,3,0,0,0-.82.57,3,3,0,0,0,.1,4.3,2.77,2.77,0,0,0,.82.64,1.35,1.35,0,0,1,.85,1.46c0,1.54,0,3.08,0,4.62s0,3.08.07,4.62c0,.6,0,1.2,0,1.8,0,1.29,0,2.58,0,3.87,0,2.61-.13,5.21-.18,7.82,0,.87,0,1.74,0,2.61,0,1.77.07,3.54.12,5.31,0,.14,0,.28,0,.42,0,.58,0,1.17,0,1.75s0,1.29-.06,1.94a5,5,0,0,1-.05.53c0,.33-.07.66-.12,1s-.06.38-.1.57-.13.65-.22,1A11.81,11.81,0,0,1,858.12,59c-1.9,2.93-4.27,5.46-7.73,6.72a17.43,17.43,0,0,1-7.37,1.1c-.32,0-.65-.06-1-.12a11.45,11.45,0,0,1-1.86-.44,12.64,12.64,0,0,1-1.76-.7A16.08,16.08,0,0,1,836,64.11a18.07,18.07,0,0,1-4.19-4.53,9.74,9.74,0,0,1-1.09-2.13c-.12-.3-.22-.6-.31-.91s-.1-.37-.14-.55a5.23,5.23,0,0,1-.12-.54c0-.17-.06-.33-.08-.5a.24.24,0,0,1,0-.08c0-.24-.08-.49-.11-.73s-.09-.53-.12-.8v0c0-.36-.08-.72-.1-1.08s0-.68,0-1v-.45c0-.37,0-.73,0-1.1,0-1.8,0-3.6,0-5.4q0-2,0-4c0-.68,0-1.36,0-2.05,0-2,.12-4.08.12-6.13,0-2.24-.13-4.48-.15-6.72,0-3.08,0-6.16,0-9.24a1.56,1.56,0,0,1,.4-.76c.4-.57.86-1.11,1.24-1.69a2.39,2.39,0,0,0-.23-3,3,3,0,0,0-3.18-1.38,4.13,4.13,0,0,0-1.39.58,4.7,4.7,0,0,0-.44.34,2.92,2.92,0,0,0-.71.94,3.29,3.29,0,0,0-.17.39,2.6,2.6,0,0,0-.1,1.11,1.91,1.91,0,0,0,.06.33,3.37,3.37,0,0,0,.54,1.07c.24.34.52.67.78,1a5.63,5.63,0,0,0,1.35.87h0c0,3.39,0,6.83,0,10.28,0,1.73,0,3.46,0,5.19s0,3.67,0,5.5c0,3.06,0,6.11,0,9.16v1.58c0,.68,0,1.35,0,2s0,1.27-.08,1.9-.13,1.46-.24,2.18-.22,1.28-.37,1.91a8.42,8.42,0,0,1-.35,1.11c-.14.37-.3.73-.47,1.09s-.35.7-.55,1.05-.39.69-.59,1a16.91,16.91,0,0,1-2.21,2.6,14.17,14.17,0,0,1-8.29,4.24,13.47,13.47,0,0,1-9.09-1.32,18.05,18.05,0,0,1-4.19-3.09c-.2-.19-.39-.4-.58-.61a14,14,0,0,1-1.48-2,12.88,12.88,0,0,1-1.09-2.31,13.68,13.68,0,0,1-.66-2.63,29.76,29.76,0,0,1-.22-3.27c0-.62-.07-1.25-.09-1.87,0-.31,0-.62,0-.93s0-.76,0-1.14c0-2,0-3.91,0-5.87l0-5.86c0-1,0-2,0-3,0-1.83,0-3.65,0-5.47,0-.53,0-1.05,0-1.58,0-1.05-.05-2.11-.07-3.16,0-.53,0-1.05,0-1.58,0-1.18.07-2.37.17-3.55a1.7,1.7,0,0,1,.42-1,4.32,4.32,0,0,0,1.21-3.71,1.37,1.37,0,0,0-.38-.93A9,9,0,0,0,796,10.4c-1.3-.33-3,1.11-3.22,2.51a3.09,3.09,0,0,0,1.54,3.37,2.06,2.06,0,0,1,.74.63,1.41,1.41,0,0,1,.19.39.14.14,0,0,0,0,.06,1.55,1.55,0,0,1,.05.23,3.65,3.65,0,0,1,0,.59q0,8.85,0,17.7c0,3.87.09,7.74,0,11.61,0,2.36-.22,4.74-.49,7.09a10.56,10.56,0,0,1-1.42,4.14,18.71,18.71,0,0,1-2.71,3.49,13.89,13.89,0,0,1-6.17,3.9c-4.83,1.44-9.41,1-13.54-2.07a15,15,0,0,1-5-6.19,16.37,16.37,0,0,1-1.23-6.69c0-1.88-.12-3.77-.1-5.66,0-3.5.14-7,.19-10.49,0-1.17,0-2.33.05-3.5,0-.5,0-1,0-1.5l0-1c0-.75-.06-1.5-.08-2.26s0-1.23-.05-1.85c0-2.69,0-5.37,0-8.06a2.33,2.33,0,0,1,.75-2,5,5,0,0,0,1.14-1.74,2.76,2.76,0,0,0-.48-2.64,3.09,3.09,0,0,0-.33-.39,3.4,3.4,0,0,0-1.28-.84,3.23,3.23,0,0,0-3.3.79,2.53,2.53,0,0,0-1,2.92,4.81,4.81,0,0,0,.73,1.25c.18.23.38.46.57.67a1.9,1.9,0,0,0,.25.24,5.75,5.75,0,0,0,.66.39l.36.21c0,1.46,0,2.93.07,4.42,0,.74,0,1.49,0,2.24s0,1.49,0,2.24q0,10.11-.09,20.21c0,1.34,0,2.68-.08,4s-.09,2.68-.15,4a12.78,12.78,0,0,1-1.25,5,17.2,17.2,0,0,1-4,5.18,14.8,14.8,0,0,1-7.64,3.58l-.81.13a14.39,14.39,0,0,1-4.4-.06l-.77-.16a12.82,12.82,0,0,1-2.25-.79c-.25-.11-.5-.23-.74-.36-4.71-2.52-7.69-6.32-8.34-11.75a2.83,2.83,0,0,1,0-.29v-.11c0-2.32,0-4.64,0-7s0-4.65,0-7V37.05c0-.88,0-1.76,0-2.64,0-2.64-.05-5.28-.06-7.92,0-1.24,0-2.48,0-3.71l0-3c0-.22,0-.44,0-.66s0-.23,0-.34a9,9,0,0,1,.07-1.21,2.83,2.83,0,0,1,.14-.52,3.23,3.23,0,0,1,.15-.34c.16-.3.38-.65.7-1.16a4.81,4.81,0,0,0,.53-3.16.8.8,0,0,0-.05-.21,1.15,1.15,0,0,0-.1-.23.8.8,0,0,0-.13-.19.35.35,0,0,0-.11-.1.08.08,0,0,0,0-.05l-.89-.53a5.79,5.79,0,0,0-1.55-.69c-1.27-.32-3,1.14-3.21,2.51a3.82,3.82,0,0,0,.06,1.48,2.8,2.8,0,0,0,.13.41,3.33,3.33,0,0,0,.42.7,2.13,2.13,0,0,0,.29.31c.11.1.22.2.34.29l.4.25a1.7,1.7,0,0,1,1,1.69c0,2.77.06,5.55,0,8.32,0,3.92-.11,7.83-.13,11.75,0,2.59.06,5.18.06,7.77,0,3.16.33,6.36-.5,9.46a15.37,15.37,0,0,1-1.72,4.09,18.68,18.68,0,0,1-4.2,4.54,14,14,0,0,1-5.24,2.41,15.24,15.24,0,0,1-2.43.42l-.82.06a13.93,13.93,0,0,1-10.88-4.21c-.42-.42-.83-.86-1.23-1.33-.19-.23-.39-.47-.58-.72a14.68,14.68,0,0,1-2.82-9c0-1.58-.11-3.16-.13-4.75,0-.52,0-1,0-1.57,0-3.43.13-6.86.19-10.3,0-1.14,0-2.29.05-3.43,0-1.95-.06-3.91-.11-5.87l0-1.79c0-2.59,0-5.18,0-7.78a2,2,0,0,1,.47-.87c.39-.58.86-1.11,1.2-1.72a2.27,2.27,0,0,0-.14-2.7c-.09-.11-.17-.23-.26-.33a2.8,2.8,0,0,0-.28-.31,2.68,2.68,0,0,0-2.4-1,3.68,3.68,0,0,0-1.38.41,4.25,4.25,0,0,0-1.16.92.9.9,0,0,0-.15.19,2.57,2.57,0,0,0-.38,2.64A3.36,3.36,0,0,0,696,14h0a5.24,5.24,0,0,0,.54.64,3.26,3.26,0,0,0,.33.31,14.41,14.41,0,0,0,1.34.87c0,5.14.07,10.38.06,15.61,0,4.57-.15,9.15-.06,13.72a42.81,42.81,0,0,1-.69,10.37,16.06,16.06,0,0,1-1.94,4.29,16.37,16.37,0,0,1-2.21,2.6,13,13,0,0,1-3.77,2.82c-.35.17-.7.33-1.06.47a17.46,17.46,0,0,1-3.46,1l-.72.11a13.84,13.84,0,0,1-6.09-.45c-.26-.08-.51-.17-.77-.27h0a13.37,13.37,0,0,1-1.49-.7,15.19,15.19,0,0,1-7.24-7.75,15,15,0,0,1-.72-2.52c-.07-.35-.12-.7-.17-1.05s-.07-.69-.1-1c0-.17,0-.35,0-.53,0-.52-.07-1-.12-1.57q0-.42-.06-.84c-.21-3.42.12-6.82.07-10.23,0-2.86.15-5.72.18-8.58,0-.47,0-.94,0-1.41,0-1.2-.09-2.4-.1-3.6,0-2.82,0-5.64,0-8.45a1.77,1.77,0,0,1,.61-1.5,3.87,3.87,0,0,0,1.19-3.36,1.94,1.94,0,0,0,0-.24,1.6,1.6,0,0,0,0-.29,1.28,1.28,0,0,0-.44-.74L668,11a3.73,3.73,0,0,0-.6-.35h0a2.16,2.16,0,0,0-.92-.25,4.88,4.88,0,0,0-1.12.13l-.37.11a2.49,2.49,0,0,0-1,.67,1.8,1.8,0,0,0-.26.34,3.24,3.24,0,0,0,.35,4,3.05,3.05,0,0,0,.68.54,2,2,0,0,1,.26.18,1.51,1.51,0,0,1,.49.57,1.25,1.25,0,0,1,.15.46,1,1,0,0,1,0,.25,1.88,1.88,0,0,1,0,.34l-.06,9.12q0,4.56,0,9.12c0,3.17.06,6.34.11,9.51,0,1.08,0,2.17,0,3.24,0,.51,0,1-.06,1.54-.05.72-.11,1.43-.18,2.15q-.09.81-.21,1.62a12.06,12.06,0,0,1-.74,2.73,9,9,0,0,1-.45,1,15,15,0,0,1-1.47,2.34,19.67,19.67,0,0,1-1.47,1.72c-.22.23-.44.45-.67.67l-.37.34a13.74,13.74,0,0,1-1.84,1.4,12.74,12.74,0,0,1-2.5,1.26q-.43.17-.9.3c-4.73,1.39-9.24,1-13.32-2a14.39,14.39,0,0,1-5.29-6.61,17.32,17.32,0,0,1-1.09-5.26c0-.85-.05-1.7-.06-2.56-.08-3.76,0-7.53,0-11.29,0-.56,0-1.12,0-1.69,0-1.12.08-2.24.11-3.36,0-.56,0-1.12,0-1.68,0-1.76-.07-3.52-.09-5.28,0-3.39,0-6.78-.07-10.16a1.3,1.3,0,0,1,.43-1,7.5,7.5,0,0,0,1.11-1.46A3.09,3.09,0,0,0,635,9.3a3.56,3.56,0,0,0-4.08,1.62,2.71,2.71,0,0,0-.23,2.35,3.08,3.08,0,0,0,.29.61c.06.1.13.19.2.29s.15.18.24.27a2.13,2.13,0,0,0,.26.26,19,19,0,0,0,1.64,1.14V31.45c0,4.88,0,9.77,0,14.66a50.51,50.51,0,0,1-.5,8.42,12.69,12.69,0,0,1-.57,2.16c-.12.35-.26.68-.41,1l-.24.49a16.25,16.25,0,0,1-2.15,3.15c-.24.29-.49.56-.75.84a14,14,0,0,1-6.28,4c-4.79,1.39-9.32,1-13.44-2.07a14.36,14.36,0,0,1-1.72-1.49c-.18-.17-.36-.36-.53-.54a19.64,19.64,0,0,1-1.85-2.4,12.47,12.47,0,0,1-2-7.65c0-.66,0-1.32,0-2s0-1.28-.07-1.92c0-.32,0-.64,0-1V40.28c0-3,0-6.08,0-9.13,0-2.14-.05-4.28-.08-6.42,0-.71,0-1.43,0-2.14,0-.4,0-.8,0-1.2a13.6,13.6,0,0,0,0-2.47,3.85,3.85,0,0,1,.35-2.45,4.18,4.18,0,0,1,.68-.92,2.24,2.24,0,0,0,.33-.43l.12-.24a4.2,4.2,0,0,0,.17-.5,5,5,0,0,0-.07-2.08,1.46,1.46,0,0,0-.56-.75l-.26-.19-.48-.27c-.5-.26-1-.49-1.55-.74a6.23,6.23,0,0,1-.95.29,2.51,2.51,0,0,0-2.23,2.24,2.92,2.92,0,0,0,1.37,3.31,2.09,2.09,0,0,1,1.21,1.8c0,.13,0,.27,0,.41,0,3,.05,5.9,0,8.85-.05,5.28-.17,10.57-.2,15.85,0,.68,0,1.37,0,2,0,1.18.07,2.37.1,3.55,0,.59,0,1.18,0,1.77A14.89,14.89,0,0,1,599,59a19.48,19.48,0,0,1-3.25,4c-.32.29-.64.57-1,.83s-.7.51-1.07.74a11.66,11.66,0,0,1-1.15.64,12.72,12.72,0,0,1-1.25.54,18.17,18.17,0,0,1-5.52,1.14c-5.23.21-9.2-2.15-12.36-6.14a13.14,13.14,0,0,1-2.68-6.24c-.06-.41-.11-.82-.15-1.24s-.07-.83-.08-1.26c0-.21,0-.42,0-.64,0-.46,0-.92,0-1.37,0-1.52-.12-3-.1-4.55,0-4.61.19-9.23.22-13.85,0-2.41-.15-4.83-.17-7.25,0-2.77,0-5.53,0-8.3a.53.53,0,0,1,.1-.29,2,2,0,0,1,.12-.19c.07-.09.15-.18.21-.27.34-.46.72-.89,1-1.36a4.64,4.64,0,0,0,.25-.42,3.79,3.79,0,0,0,.18-.42,2.32,2.32,0,0,0-.31-2.24l-.15-.2-.39-.45-.15-.15A2.94,2.94,0,0,0,570,9.21a2.53,2.53,0,0,0-1.29,0,4.84,4.84,0,0,0-.51.14,4.08,4.08,0,0,0-.9.41,3.25,3.25,0,0,0-1.44,1.91,2.55,2.55,0,0,0,0,1.45,3.15,3.15,0,0,0,.5,1,3.07,3.07,0,0,0,.24.29l.27.28a3.45,3.45,0,0,0,.28.26,9.59,9.59,0,0,0,1.29.85c.23,6.23.29,12.43.08,18.64-.13,3.6-.11,7.22,0,10.82a41.8,41.8,0,0,1-.65,10.24,12.77,12.77,0,0,1-1.67,4A17.82,17.82,0,0,1,561.91,64a12.79,12.79,0,0,1-5.5,2.41,21.68,21.68,0,0,1-3,.43,14.22,14.22,0,0,1-5-.63,15.91,15.91,0,0,1-1.54-.61l-.74-.38a15,15,0,0,1-1.41-.88,14.58,14.58,0,0,1-1.33-1c-.21-.19-.43-.39-.63-.59s-.41-.4-.62-.62c-.4-.43-.8-.89-1.18-1.37a15,15,0,0,1-2.95-9c-.09-2.16-.18-4.31-.15-6.46,0-1.16,0-2.31.07-3.46.05-2.32.12-4.62.17-6.94,0-1.15.05-2.3.06-3.46,0-1.86-.07-3.72-.12-5.59,0-.55,0-1.11,0-1.66v-.84c0-1.88,0-3.76,0-5.63a1.74,1.74,0,0,1,.38-1.16,3.82,3.82,0,0,1,.27-.32,3.8,3.8,0,0,0,.33-.37,4.54,4.54,0,0,0,.83-1.62,5.5,5.5,0,0,0,0-2.79,2.88,2.88,0,0,0-.35-.83,3.05,3.05,0,0,0-2.31-1.47,3.59,3.59,0,0,0-3.24,1.44,2.53,2.53,0,0,0-.57,2.22,6.8,6.8,0,0,0,.93,2.65,3,3,0,0,0,.35.43,3.54,3.54,0,0,0,1,.69.6.6,0,0,1,.2.14.54.54,0,0,1,.16.26s0,0,0,0a1.49,1.49,0,0,1,0,.52,1.85,1.85,0,0,0,0,.23c0,5.59,0,11.18,0,16.76,0,3.57-.09,7.13,0,10.7a41.69,41.69,0,0,1-.65,10.23,12.67,12.67,0,0,1-1.67,4,18,18,0,0,1-4.3,4.62,13.07,13.07,0,0,1-5.51,2.41l-.14,0-1.13.2a13.77,13.77,0,0,1-5,0l-.4-.08h0l-.8-.21c-.57-.17-1.1-.36-1.59-.55-.3-.11-.58-.25-.86-.38l-.63-.32c-.27-.15-.54-.29-.79-.45l-.57-.36c-.34-.23-.59-.42-.74-.53a4.82,4.82,0,0,1-.43-.36.91.91,0,0,1-.16-.13c-.15-.13-.3-.26-.45-.41a1.8,1.8,0,0,1-.2-.19,6.82,6.82,0,0,1-.53-.55.17.17,0,0,1-.07-.08,5.39,5.39,0,0,1-.4-.45,4.7,4.7,0,0,1-.35-.43,3.15,3.15,0,0,1-.22-.29,4.84,4.84,0,0,1-.33-.46,16.41,16.41,0,0,1-1.2-2c-.16-.31-.31-.63-.46-1a14.2,14.2,0,0,1-1.11-5.93c0-1.77,0-3.55,0-5.33s0-3.55,0-5.33c0-.81,0-1.63,0-2.44.05-2.45.12-4.89.13-7.33,0-.55,0-1.1,0-1.64,0-1.1-.08-2.2-.12-3.3,0-.55,0-1.1,0-1.65,0-2.77,0-5.55,0-8.32a1.31,1.31,0,0,1,.44-1,9.18,9.18,0,0,0,1.06-1.34c1.31-2,.19-3.52-1.44-4.47a3.31,3.31,0,0,0-3.89.95c-.1.11-.19.23-.28.35a3,3,0,0,0-.4.77,3.12,3.12,0,0,0,1.06,3.23,6.88,6.88,0,0,0,1.17.83l.46.29V46a53.62,53.62,0,0,1-.49,8.3,12.5,12.5,0,0,1-.95,3.18A16.37,16.37,0,0,1,498.84,62a14.2,14.2,0,0,1-6.39,4.05,15.73,15.73,0,0,1-8.9.21c-.36-.11-.72-.23-1.08-.37s-.71-.3-1.06-.47a15,15,0,0,1-2.59-1.62c-.26-.2-.52-.41-.76-.63A15,15,0,0,1,474,57.8a12.7,12.7,0,0,1-1-5.92c.1-1.66-.08-3.33-.08-5,0-5.23.06-10.47,0-15.7,0-2.86-.11-5.71-.13-8.58a32.49,32.49,0,0,0,.09-3.94,3.32,3.32,0,0,1,1-3.11,3.82,3.82,0,0,0,.62-3.25,1.5,1.5,0,0,0-.66-.94,12.53,12.53,0,0,0-2.11-1c-.49-.2-2.52.76-2.84,1.29A3.24,3.24,0,0,0,470,16.27a1.64,1.64,0,0,1,1,1.67c0,3.08.1,6.16.08,9.24,0,5.32-.17,10.65-.2,16,0,2.5.15,5,.17,7.5a19.23,19.23,0,0,1-.41,4.37,15.16,15.16,0,0,1-.43,1.5L470,57a8.94,8.94,0,0,1-.43,1l-.25.47c-.09.15-.18.3-.28.45A24.61,24.61,0,0,1,467.53,61a14.34,14.34,0,0,1-6.18,4.64,17.88,17.88,0,0,1-2.53.76c-.43.09-.86.17-1.29.23l-.65.08c-.22,0-.43.05-.65.06a14.65,14.65,0,0,1-2.83-.09,7.91,7.91,0,0,1-.85-.13,5.84,5.84,0,0,1-.83-.18,7.32,7.32,0,0,1-.8-.23,11.33,11.33,0,0,1-1.55-.61,13.82,13.82,0,0,1-1.87-1.06c-.19-.13-.38-.26-.56-.41a8.34,8.34,0,0,1-.75-.58,19,19,0,0,1-2.72-2.85,13,13,0,0,1-1.86-3.23,14.81,14.81,0,0,1-1-4.74c0-.41,0-.83,0-1.26,0-.13,0-.26,0-.39v-.4c0-1.74-.17-3.5-.15-5.25,0-4.49.18-9,.21-13.46,0-2.33-.14-4.65-.16-7s0-4.76,0-7.15V16.58a2.82,2.82,0,0,1,0-.42,1.7,1.7,0,0,1,0-.22.31.31,0,0,1,0-.13.83.83,0,0,1,.06-.21s0-.11.07-.17a1,1,0,0,1,.08-.14.76.76,0,0,1,.08-.11A1.19,1.19,0,0,1,441,15a2.19,2.19,0,0,1,.22-.2,3.52,3.52,0,0,0,.77-1.05,3.27,3.27,0,0,0,.4-1.2,3.06,3.06,0,0,0-.79-2.48,3.21,3.21,0,0,0-1.08-.77,3.13,3.13,0,0,0-.54-.19,3.22,3.22,0,0,0-2.81.69L437,10a3.08,3.08,0,0,0-1,2.81,3.21,3.21,0,0,0,.94,1.68,4.29,4.29,0,0,0,.51.43c.35.25.73.46,1.23.77,0,5.25,0,10.57,0,15.89,0,4.84.05,9.68.05,14.53a40.4,40.4,0,0,1-.75,9.45A12.48,12.48,0,0,1,436.52,59c-.09.16-.18.3-.27.45a14.59,14.59,0,0,1-.88,1.23h0q-.47.59-1,1.14c-.35.37-.71.72-1.08,1.06s-.76.67-1.16,1a13.51,13.51,0,0,1-5.61,2.51,16.74,16.74,0,0,1-2.72.43c-5.43.31-9.59-2-12.87-6.19a14.6,14.6,0,0,1-2.86-9c0-2.15-.16-4.3-.15-6.46,0-4.44.18-8.88.22-13.32,0-2.47-.1-4.93-.11-7.39,0-1.44,0-2.88,0-4.32,0-.9,0-1.79,0-2.68a2.13,2.13,0,0,1,0-.37,1.35,1.35,0,0,1,.47-.77,3.19,3.19,0,0,0,.63-.71,1.87,1.87,0,0,0,.22-.39,2.83,2.83,0,0,0,.17-.4c0-.09.06-.19.08-.28a5,5,0,0,0,.16-1c0-.34,0-.67,0-1a.5.5,0,0,0,0-.12,1.37,1.37,0,0,0-.21-.5l-.09-.11a.86.86,0,0,0-.18-.16,9.15,9.15,0,0,0-2.43-1.24c-1.27-.31-3,1.14-3.23,2.5a3.34,3.34,0,0,0,1.39,3.34,3.48,3.48,0,0,0,.38.23l.37.2.33.19c0,4,.09,7.88.08,11.8,0,1.21,0,2.42-.08,3.63L406.1,34c0,.6,0,1.2,0,1.8v0c0,1.67,0,3.34.07,5s.08,3.59.07,5.39c0,1.17,0,2.34,0,3.51,0,.78-.07,1.56-.15,2.34a22.72,22.72,0,0,1-.58,3.46,11,11,0,0,1-.57,1.61,22.85,22.85,0,0,1-1.36,2.54,17.56,17.56,0,0,1-2.22,2.6A14.11,14.11,0,0,1,393,66.55a13.46,13.46,0,0,1-9.09-1.31A14.31,14.31,0,0,1,376,55a20.13,20.13,0,0,1-.37-2.87q0-.66,0-1.32c0-1.85-.15-3.69-.12-5.53,0-3.5.14-7,.22-10.49l.06-3.5c0-.82,0-1.64,0-2.46s-.07-1.78-.08-2.68q0-5,0-9.9a1.7,1.7,0,0,1,.25-.79l.15-.24c.09-.14.18-.27.28-.4.29-.4.61-.77.88-1.19a2.45,2.45,0,0,0-.23-3.15,2.27,2.27,0,0,0-.26-.28,3.78,3.78,0,0,0-.54-.52,2.55,2.55,0,0,0-.61-.37,2.26,2.26,0,0,0-.33-.13,2.49,2.49,0,0,0-1-.1l-.24,0-.51.11a4,4,0,0,0-.9.38A3.75,3.75,0,0,0,371,11.42a2.55,2.55,0,0,0,.1,1.81,3.77,3.77,0,0,0,.37.72,3.88,3.88,0,0,0,.23.33,3.45,3.45,0,0,0,.26.28,1.94,1.94,0,0,0,.27.24c.42.31.87.56,1.46.94V31.25c0,1.52,0,3,0,4.55q0,4.05,0,8.08c0,.72,0,1.44,0,2.15l0,1.88c-.06,1.88-.17,3.77-.34,5.64a12.38,12.38,0,0,1-.56,2.72,13.1,13.1,0,0,1-1.44,3,18.43,18.43,0,0,1-1.2,1.63,22.46,22.46,0,0,1-1.91,2,14.78,14.78,0,0,1-7.63,3.61,13.84,13.84,0,0,1-6.93-.33,12.65,12.65,0,0,1-2.28-1c-4.58-2.52-7.54-6.26-8.12-11.62a6.77,6.77,0,0,1,0-.78q0-8.51,0-17c0-2.72-.09-5.45-.08-8.17,0-2.9.08-5.8.12-8.69,0-.05,0-.09,0-.13,0-.45,0-.78,0-1,.05-.83.25-1.12,1-2.28a4.49,4.49,0,0,0,.55-3.16,1.41,1.41,0,0,0-1-1.14c-.65-.25-1.25-.61-1.91-.94l-1.08.36a3.07,3.07,0,0,0-1.88,1.5,2.89,2.89,0,0,0-.28.86,3,3,0,0,0,.93,2.69,2.8,2.8,0,0,0,.82.65,1.26,1.26,0,0,1,.57.41,1,1,0,0,1,.19.36,2.09,2.09,0,0,1,.1.69c0,1.54,0,3.08.05,4.62s0,3.08.05,4.61c0,1.89,0,3.78,0,5.67,0,.87,0,1.74-.05,2.61-.06,2.61-.15,5.21-.16,7.82s.13,5,.16,7.49a14.75,14.75,0,0,1-2,8.35c-1.9,2.92-4.27,5.45-7.73,6.71a17.1,17.1,0,0,1-7.37,1.1A13.81,13.81,0,0,1,317.2,64a15.22,15.22,0,0,1-2.3-2.08,19.47,19.47,0,0,1-1.45-1.81l-.45-.64a4.8,4.8,0,0,1-.3-.48,7.79,7.79,0,0,1-.52-1,11.11,11.11,0,0,1-.83-2.66,22.31,22.31,0,0,1-.47-4.7c.09-3.51-.05-7,0-10.55,0-2.72.14-5.45.15-8.18,0-1.12,0-2.24-.07-3.36s-.08-2.24-.09-3.36q0-4.62,0-9.23c0-.26.24-.53.4-.76l.31-.43.5-.66c.16-.2.3-.4.44-.61a2.41,2.41,0,0,0-.24-3,3.73,3.73,0,0,0-.26-.3,2.88,2.88,0,0,0-2.92-1.08,4.07,4.07,0,0,0-1.83.92l-.2.2a2.72,2.72,0,0,0-.34.42,3.72,3.72,0,0,0-.21.39,2.48,2.48,0,0,0-.16,1.76,5.78,5.78,0,0,0,1.31,2.05,6,6,0,0,0,1.36.88V31.19c0,4.88,0,9.77,0,14.66a39.85,39.85,0,0,1-.7,9.58,12.26,12.26,0,0,1-1.09,2.73c-.28.53-.57,1-.87,1.55a8,8,0,0,1-1,1.35c-.38.42-.8.83-1.18,1.25a14.11,14.11,0,0,1-8.29,4.24,13.38,13.38,0,0,1-9.08-1.31c-4.25-2.33-7.24-5.7-8-10.67a32.25,32.25,0,0,1-.22-3.27c-.06-1.31-.14-2.62-.14-3.94,0-3.91.05-7.82.07-11.73,0-2.81,0-5.63,0-8.45,0-2.1-.1-4.21-.1-6.31,0-1.19.07-2.37.16-3.55a1.82,1.82,0,0,1,.42-1,4.31,4.31,0,0,0,1.21-3.7,2.11,2.11,0,0,0-.07-.4,1,1,0,0,0-.23-.46.27.27,0,0,0-.08-.07l-.3-.2a7.8,7.8,0,0,0-2.22-1.14,2.64,2.64,0,0,0-2.38.95l-.18.2-.16.21q-.15.22-.27.45a2.33,2.33,0,0,0-.22.71,3.08,3.08,0,0,0,1.53,3.37l.29.18a2.54,2.54,0,0,1,.24.2,1.93,1.93,0,0,1,.52,1.52c0,2.94,0,5.9,0,8.85s0,5.9,0,8.85c0,3.87.09,7.73,0,11.6,0,1.18-.07,2.37-.16,3.55s-.19,2.37-.33,3.54c-.36,3.06-2.05,5.45-4.12,7.63a14.61,14.61,0,0,1-4.44,3.25,14.47,14.47,0,0,1-1.74.65,20.28,20.28,0,0,1-2.57.6s0,0,0,0q-.63.09-1.26.15a16.16,16.16,0,0,1-2.41,0c-.33,0-.65-.06-1-.11l-.17,0a12.53,12.53,0,0,1-1.88-.45,11.66,11.66,0,0,1-1.74-.69,11.1,11.1,0,0,1-1-.54,15.77,15.77,0,0,1-1.51-1,16.72,16.72,0,0,1-2.26-2,13.31,13.31,0,0,1-1.27-1.54,13.08,13.08,0,0,1-1.48-2.64,14.33,14.33,0,0,1-.54-1.51q-.12-.39-.21-.78c-.13-.52-.23-1-.31-1.57a16.56,16.56,0,0,1-.17-2.82c0-1.88-.11-3.78-.09-5.67,0-4.66.19-9.32.23-14,0-2.19-.16-4.39-.18-6.59,0-2,0-4,0-5.95,0-.7,0-1.4,0-2.1a2.32,2.32,0,0,1,.75-2,4.49,4.49,0,0,0,.92-1.27c.08-.16.16-.32.23-.48a2.7,2.7,0,0,0-.4-2.5,3.43,3.43,0,0,0-.24-.33,3.58,3.58,0,0,0-.56-.54l-.21-.15a2.46,2.46,0,0,0-.45-.25l-.24-.1a3.18,3.18,0,0,0-.51-.13,3.39,3.39,0,0,0-2.79.92,4.09,4.09,0,0,0-.47.46,3.79,3.79,0,0,0-.3.4,2.23,2.23,0,0,0-.29.65,1.5,1.5,0,0,0-.06.29,1.67,1.67,0,0,0,0,.5,1.63,1.63,0,0,0,.08.43,1.52,1.52,0,0,0,.06.2,3.82,3.82,0,0,0,.23.51c.1.17.21.34.32.5l.28.36c.15.19.3.37.46.55a2.3,2.3,0,0,0,.57.43c.22.13.46.25.7.4,0,2.93.12,5.92.12,8.91q0,10.11-.09,20.21c0,2-.07,4-.15,6l-.09,2a12.42,12.42,0,0,1-.15,1.52,12.19,12.19,0,0,1-.54,2.12,12,12,0,0,1-.55,1.33,17.58,17.58,0,0,1-4,5.18A14.71,14.71,0,0,1,231,66.54a13.6,13.6,0,0,1-7.5-.56,16.07,16.07,0,0,1-1.47-.68l-.86-.48a15.31,15.31,0,0,1-5.8-5.83,7.68,7.68,0,0,1-.41-.81,12.66,12.66,0,0,1-.67-1.75,15.64,15.64,0,0,1-.46-1.88c-.06-.3-.1-.59-.14-.9,0,0,0-.07,0-.11s0,0,0-.07,0-.21,0-.31l0-8.1q0-4,0-8.09c0-1.77,0-3.54,0-5.31s0-3.51,0-5.26v-.91c0-1.93,0-3.85,0-5.78,0-.22,0-.44,0-.66a4.61,4.61,0,0,1,1.06-3.57,4.77,4.77,0,0,0,.53-3.16,1.11,1.11,0,0,0-.44-.78,9.48,9.48,0,0,0-2.44-1.23,2.84,2.84,0,0,0-2.55,1.16,4.25,4.25,0,0,0-.31.43,2.4,2.4,0,0,0-.34.92c0,.11,0,.21,0,.31a3.09,3.09,0,0,0,.93,2.6c.11.1.22.2.34.29l.4.25a1.69,1.69,0,0,1,1,1.69c0,2.77.07,5.54.05,8.31,0,3.92-.11,7.83-.13,11.75,0,2.59.07,5.18.07,7.78,0,3.16.32,6.36-.51,9.45a15.24,15.24,0,0,1-1.72,4.1,18.44,18.44,0,0,1-4.2,4.53,11.85,11.85,0,0,1-3.84,2c-.46.15-.92.28-1.39.41-.26.07-.53.14-.8.19a16.85,16.85,0,0,1-2.46.29c-5.37.26-9.47-2.09-12.69-6.26a14.7,14.7,0,0,1-2.82-9c0-2.1-.16-4.21-.14-6.32q0-3.42.12-6.86t.11-6.86c0-2.55-.12-5.11-.14-7.66s0-5.19,0-7.79c0-.29.27-.59.46-.87s.41-.57.62-.85a8.22,8.22,0,0,0,.58-.87,2.9,2.9,0,0,0,.28-.63,2.23,2.23,0,0,0-.42-2.07,3.16,3.16,0,0,0-2.94-1.65,4.44,4.44,0,0,0-1.06.26,3.18,3.18,0,0,0-.32.16l-.45.28a4.08,4.08,0,0,0-.39.31c-1.57,1.38-1.35,3.3.38,4.78a11.22,11.22,0,0,0,1.34.87c0,1.29,0,2.58,0,3.88,0,2.59,0,5.2,0,7.81,0,1.3,0,2.61,0,3.92,0,4.58-.16,9.15-.07,13.72a42.4,42.4,0,0,1-.69,10.38,16,16,0,0,1-1.93,4.28,17.05,17.05,0,0,1-2.22,2.61,14.11,14.11,0,0,1-8.29,4.24,13.42,13.42,0,0,1-9.09-1.31c-4.1-2.26-7-5.5-7.95-10.27-.27-1.39-.29-2.79-.42-4.18-.34-3.7.05-7.38,0-11.08,0-2.85.14-5.71.17-8.57,0-1.67-.1-3.34-.12-5,0-2.82,0-5.64,0-8.46a1.75,1.75,0,0,1,.61-1.49,3.73,3.73,0,0,0,.56-.64,2.12,2.12,0,0,0,.21-.36,3.8,3.8,0,0,0,.42-1.53,4.89,4.89,0,0,0,0-1.08,1.68,1.68,0,0,0-.39-.94.28.28,0,0,0-.1-.09l-.59-.39a3.66,3.66,0,0,0-1.84-.79A3,3,0,0,0,145,11.61a3.24,3.24,0,0,0,1,4.58,2,2,0,0,1,.47.36,1.54,1.54,0,0,1,.17.19,1.61,1.61,0,0,1,.29.9c0,.11,0,.23,0,.35q0,4.56-.05,9.12c0,3,0,6.07,0,9.11,0,2.38,0,4.76.08,7.13,0,.79,0,1.59,0,2.38,0,1.06,0,2.13,0,3.18,0,.31,0,.6,0,.9,0,.57,0,1.15-.1,1.72a.22.22,0,0,1,0,.08c0,.3-.05.59-.08.89-.06.6-.13,1.19-.22,1.79-.06.39-.14.77-.23,1.13s-.2.73-.32,1.08a9,9,0,0,1-.41,1h0a13.24,13.24,0,0,1-.68,1.29,16.11,16.11,0,0,1-1.73,2.41c-.24.28-.5.56-.76.84a14.69,14.69,0,0,1-4.52,3.31,12.92,12.92,0,0,1-1.77.67c-.43.13-.85.24-1.28.33a14.51,14.51,0,0,1-9-.6c-.34-.14-.68-.3-1-.47s-.67-.36-1-.57l-.49-.32-.49-.34A18.37,18.37,0,0,1,120.36,62a14.44,14.44,0,0,1-1.65-2.09,11.67,11.67,0,0,1-1.19-2.4,18.55,18.55,0,0,1-.76-2.6c-.09-.44-.17-.89-.23-1.33s-.09-.9-.11-1.34c-.15-4.61-.09-9.23-.07-13.85,0-2.24.15-4.49.17-6.73,0-1.75-.07-3.51-.09-5.27q0-3.39,0-6.78,0-1.7,0-3.39a1.33,1.33,0,0,1,.44-1,7.45,7.45,0,0,0,1.1-1.46,3.09,3.09,0,0,0-1.69-4.48,2.88,2.88,0,0,0-1.43-.14,3.66,3.66,0,0,0-1.3.45,3.42,3.42,0,0,0-.4.26,3.65,3.65,0,0,0-.36.31,3.25,3.25,0,0,0-.6.74h0a2.69,2.69,0,0,0-.23,2.34,3.43,3.43,0,0,0,1,1.44,19.34,19.34,0,0,0,1.63,1.14v15.6c0,4.89,0,9.78,0,14.66a50.44,50.44,0,0,1-.5,8.42,14.48,14.48,0,0,1-4.11,7.65,14.07,14.07,0,0,1-6.3,4c-4.77,1.39-9.3,1-13.42-2.07a16.83,16.83,0,0,1-4.1-4.44,12.44,12.44,0,0,1-2-7.64C84.19,50.29,84,48.66,84,47c0-5.32,0-10.65,0-16,0-2.86-.1-5.71-.11-8.56,0-.25,0-.51,0-.76a22.75,22.75,0,0,0,.09-2.47,3.42,3.42,0,0,0,0-.45,3.69,3.69,0,0,1,1-3.37,3.56,3.56,0,0,0,.54-3.25,1.83,1.83,0,0,0-.82-.93c-.63-.39-1.32-.67-2-1a6.73,6.73,0,0,1-1,.29,2.52,2.52,0,0,0-2.23,2.24,3.26,3.26,0,0,0,.13,1.9,2.73,2.73,0,0,0,1.24,1.41,2.19,2.19,0,0,1,1.23,2.22c0,2.57,0,5.15,0,7.72v1.13c0,1.32,0,2.64,0,4C82.1,35.09,82,39.05,82,43c0,2.46.11,4.92.17,7.38a15,15,0,0,1-2,8.49,15.46,15.46,0,0,1-7.7,6.75c-.45.17-.9.31-1.35.45a18.61,18.61,0,0,1-2.06.48l-.7.1c-.47.06-.93.1-1.4.12h0c-5.22.21-9.2-2.15-12.36-6.14A12.88,12.88,0,0,1,52.06,55c-.09-.4-.15-.81-.2-1.22a18.94,18.94,0,0,1-.16-2.52c0-2-.15-3.95-.13-5.92,0-4.62.19-9.23.22-13.86,0-2.41-.15-4.82-.17-7.24,0-1.78,0-3.56,0-5.34,0-1,0-2,0-3a.45.45,0,0,1,.05-.19.93.93,0,0,1,.11-.19,1.33,1.33,0,0,1,.14-.19l.14-.18c.33-.46.72-.88,1-1.36a2.54,2.54,0,0,0,0-3.28A3,3,0,0,0,50,9.1a5.11,5.11,0,0,0-1,.32,3.6,3.6,0,0,0-.82.5,3.2,3.2,0,0,0-1,1.63,2.91,2.91,0,0,0,1,3l.29.27a6.23,6.23,0,0,0,1,.65l.33.2c.24,6.22.29,12.42.08,18.63-.09,2.61-.11,5.23-.06,7.84,0,1,0,2,.08,3a41.26,41.26,0,0,1-.66,10.24,12.67,12.67,0,0,1-1.67,4,18,18,0,0,1-4.3,4.62,13,13,0,0,1-5.51,2.4,20.32,20.32,0,0,1-3,.43c-5.28.25-9.29-2.09-12.5-6.12a14.94,14.94,0,0,1-2.94-9c0-.59-.05-1.19-.08-1.78-.06-1.56-.1-3.12-.07-4.68l.06-3.46c.08-3.47.19-6.93.23-10.39,0-.77,0-1.54,0-2.31,0-1.65-.12-3.3-.13-5s0-3.42,0-5.13c0-.44,0-.89,0-1.34a1.87,1.87,0,0,1,.65-1.47A4.92,4.92,0,0,0,21,11.35a3.12,3.12,0,0,0-.92-1.52,3.65,3.65,0,0,0-.37-.29,3.21,3.21,0,0,0-1.37-.49,3.59,3.59,0,0,0-3.23,1.45l-.15.19a2.86,2.86,0,0,0-.4.8,2.67,2.67,0,0,0,0,1.23c.31,1.53.66,3,2.28,3.76a.71.71,0,0,1,.28.22l.05.1,0,.08a.14.14,0,0,1,0,.07,2.11,2.11,0,0,1,0,.26c0,.15,0,.29,0,.43V34.41c0,1.05,0,2.11,0,3.16,0,1.71,0,3.42,0,5.13v.11c0,.76,0,1.53.05,2.29s.06,1.76.06,2.64A42,42,0,0,1,17,52.5c0,.31-.07.63-.12,1-.09.63-.2,1.26-.34,1.89a12.83,12.83,0,0,1-1.66,4,16.93,16.93,0,0,1-3.09,3.61c-.39.36-.8.7-1.22,1a11.38,11.38,0,0,1-1.92,1.2c-.23.12-.46.22-.69.32a14.87,14.87,0,0,1-2.89.88l-.25,0h0c-.63.12-1.27.22-2,.34l-.82.14h0q0-.8,0-1.53l0-1.43L1.94,62,1.88,60.1v0c0-1.09-.06-2.17,0-3.25.09-6.89.28-13.79.35-20.68,0-2.9-.14-5.8-.16-8.7,0-1.54.11-3.08.17-4.62a4.64,4.64,0,0,0,0-1.05,17.74,17.74,0,0,1-.14-5.24,24.17,24.17,0,0,1,.85-4c.13-.45.28-.88.44-1.31A14.66,14.66,0,0,1,5.11,7.92h0A11.83,11.83,0,0,1,9.49,4.12,29.31,29.31,0,0,1,13.6,2.34a9.47,9.47,0,0,1,2.92-.42c.32,0,.63,0,.95,0s.43,0,.65.06.59,0,.89.1l.5.07,1,.15A14.47,14.47,0,0,1,26.83,5.2a12.7,12.7,0,0,1,1.81,1.6,13.87,13.87,0,0,1,3,5.08c.13.39.25.78.35,1.19s.24,1,.32,1.53c.05.22.08.43.11.65s.1.73.13,1.09.06.64.08,1,0,.55,0,.82c.06,1.23.05,2.47.05,3.71,0,1.83,0,3.66,0,5.49q0,3.65,0,7.31c0,.43,0,.86,0,1.29,0,.23,0,.46,0,.69,0,.63-.08,1.26-.11,1.89,0,.47,0,.93,0,1.4,0,1.67,0,3.34.06,5s.07,3.34.09,5c0,.6-.09,1.21-.13,1.79-.84.59-2,.75-2.19,1.85a5.58,5.58,0,0,0-.06,2.19,2.93,2.93,0,0,0,.7,1.29,7.16,7.16,0,0,0,.45.45,5,5,0,0,0,.52.39,3.67,3.67,0,0,0,2,.69,3.47,3.47,0,0,0,3-2.79c.35-2.34.32-3-2.37-4.46V43.5c0-4.09,0-8.19,0-12.28,0-1.08,0-2.16,0-3.24,0-2.07,0-4.15,0-6.22,0-.7,0-1.4,0-2.09,0-.47,0-.93,0-1.4,0-.75.06-1.51.14-2.27a17.47,17.47,0,0,1,.75-3.7A15.18,15.18,0,0,1,39.22,6a9.66,9.66,0,0,1,1-.87,9.39,9.39,0,0,1,1.17-.76c.2-.11.41-.23.63-.33a29.72,29.72,0,0,1,4.11-1.76c2.28-.72,4.61-.35,6.93,0a14.8,14.8,0,0,1,6.42,2.94,13.65,13.65,0,0,1,5,7.7c.89,3.26.46,6.55.52,9.83.06,3,.06,6.06.05,9.09,0,5-.06,9.93-.08,14.9,0,1.27,0,2.54,0,3.81a2,2,0,0,1-.18,1,1.48,1.48,0,0,1-.28.35,1.61,1.61,0,0,1-.45.31,3.12,3.12,0,0,0-.65.45,3.16,3.16,0,0,0-.48.57,2.9,2.9,0,0,0,.26,3.23A5.68,5.68,0,0,0,64.55,58a3.78,3.78,0,0,0,.69.37h0l.39.13A2.51,2.51,0,0,0,68,58a3.45,3.45,0,0,0,.28-.26c.11-.11.21-.22.31-.34a4.52,4.52,0,0,0,.66-1.11,3.17,3.17,0,0,0,.14-.4,5.53,5.53,0,0,0,.15-.83,4.78,4.78,0,0,0,0-1.19,2.23,2.23,0,0,0-.63-1.28,4.06,4.06,0,0,0-.55-.46L68,51.92l-.33-.17-.2-.1c-.42-.25-.51-.53-.51-1.09,0-3.5-.07-7-.09-10.52,0-3.77,0-7.56,0-11.33,0-2.19.16-4.39.18-6.58,0-1.66-.12-3.33-.12-5,0-.48,0-1,0-1.45s.08-.9.15-1.35l0-.2a11.26,11.26,0,0,1,.5-2c.08-.23.16-.46.26-.68a15.08,15.08,0,0,1,7.53-8.11A14.39,14.39,0,0,1,83.13,2q.68.06,1.35.18l.67.13a18.32,18.32,0,0,1,2,.55l.81.28a15.1,15.1,0,0,1,1.53.68,13.43,13.43,0,0,1,6.8,7.88,21.92,21.92,0,0,1,1.1,7.13c0,4.53.07,9.06.08,13.59,0,1.8-.15,3.6-.16,5.4,0,3.56,0,7.12,0,10.69,0,.44,0,.87,0,1.31s0,.88,0,1.32a1.49,1.49,0,0,1-.06.43.81.81,0,0,1-.5.51,2.57,2.57,0,0,0-1.86,2.17,3.25,3.25,0,0,0,0,.44,3.93,3.93,0,0,0,1.52,3,2.83,2.83,0,0,0,3,.73,3.88,3.88,0,0,0,2.35-3.27,3,3,0,0,0-2-3.47c-.15-.07-.3-.17-.45-.26,0,0,0,0,0,0h0c0-3.6,0-7.1,0-10.61,0-3.92-.13-7.84-.13-11.75,0-2.06.15-4.13.21-6.19a20.81,20.81,0,0,0,0-2.5,19.46,19.46,0,0,1,1.11-8.94,14.57,14.57,0,0,1,7.66-8.13,15.24,15.24,0,0,1,11.46-.46,13.89,13.89,0,0,1,8.13,6.46,12,12,0,0,1,.73,1.53c.11.27.21.54.31.82q.27.81.48,1.65a21,21,0,0,1,.63,5.49c0,3.91-.12,7.84,0,11.75.09,3.07-.08,6.13-.16,9.2,0,2.07,0,4.15,0,6.23,0,1.35.08,2.7.1,4.05h0c0,.3,0,.61,0,.92a1.6,1.6,0,0,1-.05.39,1.11,1.11,0,0,1-.24.47,1.62,1.62,0,0,1-.49.37c-2,1.05-2.28,2.82-.93,4.7A4.09,4.09,0,0,0,130,58.39a2.68,2.68,0,0,0,2.67-.36,3.21,3.21,0,0,0,.69-.73,4.43,4.43,0,0,0,.58-1.22c.69-2.24.32-3.32-1.76-4.42l-.12-.06-.24-.14-.14-.08c0-3.12,0-6.24,0-9.36,0-2.15.15-4.31.13-6.46,0-3.08-.15-6.16-.18-9.23,0-1.1.17-2.19.2-3.29,0-.67,0-1.35,0-2q0-.57-.06-1.14c0-.24,0-.47-.05-.7,0,0,0,0,0,0a18.58,18.58,0,0,1,.07-2.48,25.2,25.2,0,0,1,.6-3.56,13.49,13.49,0,0,1,5.75-8.39c.19-.13.39-.25.59-.37.4-.24.82-.46,1.24-.67l.65-.3c.43-.2.87-.38,1.31-.55s.88-.34,1.32-.49c2.18-.76,4.44-.36,6.67-.05a14.58,14.58,0,0,1,6.8,3.05,13.55,13.55,0,0,1,4.88,7.73c.88,3.4.67,6.81.7,10.23,0,3.88.09,7.75.07,11.62,0,.44,0,.88,0,1.32s-.05.79-.08,1.19-.06.78-.07,1.17-.05.89-.05,1.33c0,.84,0,1.67,0,2.5,0,2.51.1,5,.14,7.52a6.77,6.77,0,0,1,0,.78,2.45,2.45,0,0,1,0,.27,1.36,1.36,0,0,1,0,.2,1.32,1.32,0,0,1-.09.3,1.4,1.4,0,0,1-.72.7,2.8,2.8,0,0,0-1,4.49l.39.54a2.52,2.52,0,0,0,.45.47l.5.35a3,3,0,0,0,1.88.55h0a1.58,1.58,0,0,0,.42-.09,2.69,2.69,0,0,0,.32-.13A3.94,3.94,0,0,0,166.73,55a2.87,2.87,0,0,0-.85-2.58,2.74,2.74,0,0,0-.4-.34,5.55,5.55,0,0,0-.48-.29,5.78,5.78,0,0,0-.83-.38c0-2.05,0-4.11,0-6.18,0-3.25.14-6.51.15-9.77s-.12-6.24-.13-9.36c0-1.1.19-2.2.19-3.3,0-1.27-.11-2.53-.13-3.8-.08-4.78,1.07-9.14,4.42-12.73a10.75,10.75,0,0,1,1.88-1.56c.34-.22.68-.43,1-.63s.71-.39,1.07-.58A13.81,13.81,0,0,1,180.06,2a20.74,20.74,0,0,1,2.87.38l.87.2a14.51,14.51,0,0,1,2.46.93,17.17,17.17,0,0,1,1.52.83c.49.3,1,.63,1.43,1l.47.37a10.87,10.87,0,0,1,.87.79A14.41,14.41,0,0,1,194.13,13c.76,2.78.49,5.58.53,8.37,0,2,0,4.05,0,6.07,0,1.4,0,2.79,0,4.19q0,4.35-.06,8.7t0,8.7a7.07,7.07,0,0,0,0,.92c.14,1.12,0,2-1.23,2.55a1.51,1.51,0,0,0-.49.33,1.37,1.37,0,0,0-.2.22,2.75,2.75,0,0,0-.23,2.7,4.28,4.28,0,0,0,3,2.72l.31.05a2.33,2.33,0,0,0,1.54-.35,4,4,0,0,0,.66-.52A4,4,0,0,0,199,55.85a5.44,5.44,0,0,0,.1-2.06,1.65,1.65,0,0,0-.06-.32,2.16,2.16,0,0,0-.27-.55,2.86,2.86,0,0,0-.65-.65,5.88,5.88,0,0,0-.51-.36l-.22-.14-.49-.25-.27-.13c0-2.14,0-4.28,0-6.42,0-1.53-.1-3.06-.11-4.59,0-3.07,0-6.14,0-9.22h0c.06-2.82.24-5.64.3-8.46,0-.73,0-1.46,0-2.19,0-.26,0-.53-.05-.8l-.06-.79c0-.19,0-.38,0-.57s0-.35,0-.53a16.58,16.58,0,0,1,.35-4.4,11.1,11.1,0,0,1,.58-1.83,15.75,15.75,0,0,1,3.55-5.43,14.78,14.78,0,0,1,1.65-1.39,17,17,0,0,1,1.91-1.17l.7-.34a14.64,14.64,0,0,1,9.44-1,18.94,18.94,0,0,1,2,.55,16.55,16.55,0,0,1,3,1.33,14.08,14.08,0,0,1,1.34.88,13.17,13.17,0,0,1,4.72,6.5,21.37,21.37,0,0,1,1.13,7.64c-.11,2.73,0,5.45,0,8.18,0,3.51-.07,7-.08,10.54v.64c0,2.17,0,4.32.05,6.48,0,.74,0,1.48,0,2.22v4.26c-.24.27-.29.37-.36.39-2.87.77-2.7,4-.68,5.76a2.85,2.85,0,0,0,3,.77,3.86,3.86,0,0,0,2.37-3.25,3,3,0,0,0-.73-2.66,2.06,2.06,0,0,0-.34-.31,3.74,3.74,0,0,0-.86-.5c-.57-.24-.62-.58-.62-1.12.08-4.89.15-9.77.16-14.65,0-2.29-.17-4.57-.17-6.86,0-2.06.14-4.12.2-6.18a23.16,23.16,0,0,0,0-2.5,21.65,21.65,0,0,1,.33-6.49,16.43,16.43,0,0,1,.74-2.45,17,17,0,0,1,2-3.74,12.88,12.88,0,0,1,5.51-4.33c.49-.2,1-.4,1.47-.59s1-.37,1.49-.52a12.72,12.72,0,0,1,5.28-.17l1.52.22a12.09,12.09,0,0,1,3.48,1.1,16.13,16.13,0,0,1,1.57.88c.51.32,1,.67,1.49,1A13.61,13.61,0,0,1,258.8,13c.94,3.43.61,6.89.64,10.36.05,3.82.06,7.66.08,11.48,0,.49,0,1,0,1.45,0,4.8-.07,9.58-.07,14.38a1.56,1.56,0,0,1-1,1.65,2.71,2.71,0,0,0-1.38,3.36,3.21,3.21,0,0,0,.44.89,8.09,8.09,0,0,0,.82,1,3.51,3.51,0,0,0,1.85,1,2.34,2.34,0,0,0,1.15,0,3,3,0,0,0,.61-.28,4.76,4.76,0,0,0,.7-.53,4.33,4.33,0,0,0,1.12-4.14c-.19-.84-.93-1.24-1.55-1.7a7,7,0,0,0-.91-.46v-6.3c0-3.39,0-6.77,0-10.16s-.12-6.87.05-10.29c.1-2.07.1-4.11,0-6.18-.22-4.78,1.11-9.13,4.67-12.44A16.11,16.11,0,0,1,269,3.85a12.94,12.94,0,0,1,1.22-.64A14.52,14.52,0,0,1,277.88,2a18.43,18.43,0,0,1,1.89.29,15.66,15.66,0,0,1,5,2c.51.32,1,.66,1.48,1a13.6,13.6,0,0,1,1.34,1.16,13.84,13.84,0,0,1,1.13,1.3,14.47,14.47,0,0,1,2.43,5.27,37.25,37.25,0,0,1,.69,9.42c0,3.06,0,6.12.07,9.17,0,1,0,2.06,0,3.09,0,.43,0,.85,0,1.28,0,.64-.08,1.29-.12,1.93,0,.43-.05.86-.06,1.29,0,.21,0,.43,0,.64,0,3.33.1,6.65.13,10,0,.65-.09,1.3-.13,1.85-.19.14-.25.22-.33.24a3.31,3.31,0,0,0-.93.41,2.54,2.54,0,0,0-.36.29c-1.35,1.28-.89,3.71.8,5.07a2.81,2.81,0,0,0,3.05.65,3.73,3.73,0,0,0,1.82-1.72,4.58,4.58,0,0,0,.44-1.47,3.77,3.77,0,0,0-.07-1.55,3,3,0,0,0-1.85-1.93l-.18-.09a1.29,1.29,0,0,1-.25-.2,1.2,1.2,0,0,1-.18-.82c.08-4.88.14-9.76.14-14.64,0-2.81-.13-5.62-.16-8.43,0-1.22.09-2.45.1-3.69v-.48c0-1.55,0-3.1,0-4.65q0-1,.09-2.07a19.92,19.92,0,0,1,.68-3.93,16.34,16.34,0,0,1,.64-1.82,13.8,13.8,0,0,1,3.33-4.83,14.12,14.12,0,0,1,1.65-1.37,17.9,17.9,0,0,1,5.13-2.38c2.16-.67,4.36-.34,6.54-.06a14.15,14.15,0,0,1,6.26,2.57c.26.19.52.38.77.58a11.61,11.61,0,0,1,1.28,1.13l.39.41c.25.28.49.57.71.87a15.61,15.61,0,0,1,2.4,5.11c.93,3.4.47,6.82.55,10.23.05,1.85.08,3.69.07,5.53,0,2.51,0,5,0,7.52s0,5,0,7.52c0,1.94,0,3.88,0,5.83v1.38a1.35,1.35,0,0,1-.83,1.33,2.8,2.8,0,0,0-.89,4.34,5,5,0,0,0,.93,1.11,2.91,2.91,0,0,0,3.05.69,3.73,3.73,0,0,0,1.29-.92,3.28,3.28,0,0,0,.57-.84,4.57,4.57,0,0,0,.45-1.52,2.92,2.92,0,0,0-.84-2.68l-.19-.18a5.4,5.4,0,0,0-1.48-.84c-.06-1.72-.17-3.42-.17-5.12,0-.86,0-1.72,0-2.57,0-1.72,0-3.43.05-5.14,0-.86,0-1.71,0-2.57,0-3.61-.06-7.21,0-10.82a34.45,34.45,0,0,0,.14-5.92,15.19,15.19,0,0,1,0-4.31,13.36,13.36,0,0,1,.4-2,16,16,0,0,1,.52-1.57,13.87,13.87,0,0,1,.64-1.47,13.37,13.37,0,0,1,6.7-6.51,24,24,0,0,1,2.3-.92l.78-.24c.23-.07.46-.13.7-.18a17.4,17.4,0,0,1,6.1.2,14.51,14.51,0,0,1,6.54,3A13.67,13.67,0,0,1,355.87,13a17.35,17.35,0,0,1,.36,1.71,25.08,25.08,0,0,1,.27,2.58l0,.59c.05,1.55,0,3.1,0,4.65v.83c0,1,0,2,.05,2.93,0,2.93.11,5.87.11,8.8,0,1-.11,2-.19,3,0,.39-.06.79-.08,1.18,0,.2,0,.39,0,.59,0,.83,0,1.67,0,2.5s0,1.68,0,2.51c0,1.67.07,3.34.09,5,0,.35,0,.71,0,1.06a1.28,1.28,0,0,1-.8,1.22c-1.91,1-2.24,2.83-1,4.6a4.22,4.22,0,0,0,1.88,1.6,2.75,2.75,0,0,0,3-.48,3,3,0,0,0,.34-.37,3.3,3.3,0,0,0,.3-.43,2.82,2.82,0,0,0,.25-.49,4.81,4.81,0,0,0,.2-.53,6.09,6.09,0,0,0,.31-1.71,2.73,2.73,0,0,0,0-.41h0a2.25,2.25,0,0,0-.76-1.38,5.42,5.42,0,0,0-.79-.6h0l-.51-.29-.48-.28c0-1.57,0-3.13,0-4.69s0-3.12,0-4.68c0-2.16.15-4.31.13-6.47,0-2.9-.15-5.8-.17-8.7,0-1.32.17-2.63.2-3.95a27.62,27.62,0,0,0-.09-3,21.45,21.45,0,0,1,.64-6.78,13.84,13.84,0,0,1,3.72-6.71c.14-.15.3-.31.46-.46a16.1,16.1,0,0,1,1.56-1.25A17.33,17.33,0,0,1,370,2.31c2.3-.69,4.62-.34,6.93,0a14.49,14.49,0,0,1,6.43,2.93,13.54,13.54,0,0,1,5,7.82c.86,3.35.67,6.72.69,10.09,0,3.88.09,7.75.07,11.62,0,1.72-.23,3.43-.22,5.14,0,3.34.1,6.68.16,10a4.7,4.7,0,0,1,0,.65,2.44,2.44,0,0,1,0,.27,1.49,1.49,0,0,1-.48,1.07,1.41,1.41,0,0,1-.18.14l-.21.12a2.78,2.78,0,0,0-1,4.48l.39.55a2.62,2.62,0,0,0,.22.25,1.58,1.58,0,0,0,.23.22,3,3,0,0,0,3.06.72,3.89,3.89,0,0,0,2.33-3.29,4.1,4.1,0,0,0,0-.85,4.51,4.51,0,0,0-.09-.53c0-.08-.05-.17-.08-.25a3.82,3.82,0,0,0-.21-.46,3.91,3.91,0,0,0-.3-.41,3.15,3.15,0,0,0-.37-.36,4.27,4.27,0,0,0-1-.6c-.18-.09-.37-.17-.57-.25V44.17c0-6,0-12.06,0-18.09,0-1.1.18-2.19.19-3.29s-.08-2.45-.11-3.68c-.13-4.79,1-9.14,4.33-12.76a8.89,8.89,0,0,1,.89-.85c.31-.26.64-.5,1-.73a23.23,23.23,0,0,1,2.11-1.23,15,15,0,0,1,10.13-1.23,15.62,15.62,0,0,1,6.43,2.94,13.4,13.4,0,0,1,5,7.81,37.47,37.47,0,0,1,.7,9.56c0,4.05.08,8.09.07,12.13,0,1.72-.23,3.43-.22,5.14,0,3.3.11,6.59.15,9.89,0,.65-.08,1.3-.12,1.92-.81.62-2,.76-2.2,1.86a5.74,5.74,0,0,0-.08,2.18,4.18,4.18,0,0,0,3.76,2.84,3.48,3.48,0,0,0,2.87-2.9c.28-2,.43-2.83-2.35-4.29,0-2-.11-4-.12-6,0-4,0-8,.05-12,0-3.55.15-7.11.21-10.66a32.85,32.85,0,0,0-.08-3.29,17.7,17.7,0,0,1,.83-7.14,17.34,17.34,0,0,1,2.05-4.24,13.26,13.26,0,0,1,1.24-1.54c.15-.16.31-.32.47-.47a11.81,11.81,0,0,1,1.59-1.27h0a13,13,0,0,1,1.22-.7h0A29.6,29.6,0,0,1,435,2.32c2.24-.73,4.54-.35,6.8,0a10.77,10.77,0,0,1,1.13.23,12,12,0,0,1,2.41.87,18,18,0,0,1,3.12,1.94A13.63,13.63,0,0,1,453.31,13c.8,3,.51,5.94.55,8.91l0,4.18q0,3,0,6c0,4.17-.09,8.35-.12,12.53,0,2,0,4,.05,6a1.71,1.71,0,0,1-.28,1.16.28.28,0,0,1-.08.12,2.15,2.15,0,0,1-.65.48,2.07,2.07,0,0,0-.32.19,3.08,3.08,0,0,0-.27.24,2.86,2.86,0,0,0-.47,3.34A6.15,6.15,0,0,0,453,57.67a2.89,2.89,0,0,0,3,.76,3.68,3.68,0,0,0,1.32-.9,4,4,0,0,0,.58-.83,5.29,5.29,0,0,0,.36-1c0-.17.07-.35.1-.54s0-.21,0-.31a2.94,2.94,0,0,0-.77-2.34,2.06,2.06,0,0,0-.34-.31,4,4,0,0,0-.86-.5,1.18,1.18,0,0,1-.41-.28,1,1,0,0,1-.23-.73c0-4,0-8.07,0-12.11,0-3.21-.06-6.42,0-9.63,0-2,.18-3.94.22-5.91,0-.93,0-1.85,0-2.77,0-.44,0-.88-.09-1.31a17.91,17.91,0,0,1-.11-1.91,15.66,15.66,0,0,1,4.41-10.91,13.5,13.5,0,0,1,3.9-2.66,14.5,14.5,0,0,1,9.3-1.29c.33,0,.65.11,1,.18a12.47,12.47,0,0,1,1.72.47,13.66,13.66,0,0,1,2.11.93,18.35,18.35,0,0,1,2.44,1.56,12.15,12.15,0,0,1,3,3.36c.2.32.38.65.56,1s.33.69.48,1,.29.72.41,1.09.24.76.35,1.14a25.77,25.77,0,0,1,.7,6.81c0,1.18,0,2.36,0,3.55,0,2.93.11,5.86.14,8.8,0,1,0,2,0,2.93,0,1.62-.25,3.25-.25,4.87s0,3.48,0,5.22.05,3.2.07,4.81c0,.39,0,.79,0,1.18a.94.94,0,0,1-.59.93l-.38.17a3.73,3.73,0,0,0-.64.42,2.3,2.3,0,0,0-.83,1.72,3.81,3.81,0,0,0,1.62,3.4,2.72,2.72,0,0,0,3,.58A3.77,3.77,0,0,0,490.59,55c.11-1.91-.26-2.39-2.56-3.67,0-1.93,0-3.94,0-6,.05-3,.19-6,.19-9,0-3.35-.14-6.69-.17-10,0-.3,0-.6,0-.89,0-.53.08-1.07.12-1.6,0-.27,0-.53,0-.8s0-.35,0-.52a16.9,16.9,0,0,0,0-2.25,19.66,19.66,0,0,1,1.06-8.82,14.59,14.59,0,0,1,7.87-8.27,15.16,15.16,0,0,1,11.45-.34l.78.28a14.65,14.65,0,0,1,4.7,2.91,7.14,7.14,0,0,1,.55.55,13.45,13.45,0,0,1,2.91,4.79,20.67,20.67,0,0,1,1.2,7v4.22c0,2.11,0,4.23,0,6.34s0,4.23,0,6.34c0,.73-.05,1.46-.09,2.19s-.1,1.61-.09,2.42c0,1.52.05,3,.09,4.56l.06,2.37c0,.73,0,1.45,0,2.18s0,1.44,0,2.16c0,.18,0,.37-.06.55-.84.59-2,.75-2.19,1.86a5.53,5.53,0,0,0-.06,2.18,4.12,4.12,0,0,0,2.32,2.5h0a3,3,0,0,0,1.31.32,1.18,1.18,0,0,0,.26,0l.27-.05A3.64,3.64,0,0,0,523,55.79c.35-2.33.32-3-2.36-4.45l.09-4.51c0-1.76.07-3.53.1-5.3s.06-3.54.08-5.31c0-.9,0-1.8,0-2.7,0-1.33-.08-2.66-.11-4q0-1,0-2c0-1.54.11-3.08.17-4.61a5.33,5.33,0,0,0,0-1.05,19.7,19.7,0,0,1,.71-9.26,14.22,14.22,0,0,1,3.7-6.39A12,12,0,0,1,527,4.92l.6-.37.64-.34a28.54,28.54,0,0,1,4.1-1.78,11.23,11.23,0,0,1,4.92-.29c.67.08,1.34.18,2,.29a12,12,0,0,1,1.72.4,16.4,16.4,0,0,1,4.59,2.46A13.3,13.3,0,0,1,547,6.47a13.94,13.94,0,0,1,3.75,6.68,34.57,34.57,0,0,1,.73,8.77c0,4.27.06,8.54,0,12.81,0,1.75-.22,3.51-.22,5.27,0,3.34.12,6.68.16,10a17.08,17.08,0,0,1-.14,1.79c-.84.59-2,.76-2.19,1.86a5.77,5.77,0,0,0,0,2.19,3.22,3.22,0,0,0,.91,1.51,2.39,2.39,0,0,0,.23.22,4.54,4.54,0,0,0,1.64.94l.28.08a2.36,2.36,0,0,0,.58.07,1.58,1.58,0,0,0,.47-.07,2.64,2.64,0,0,0,.47-.17,3.6,3.6,0,0,0,2-2.56c.26-1.68.31-2.48-.69-3.36l-.34-.27a8.21,8.21,0,0,0-.78-.5c-.17-.11-.35-.21-.55-.32h0c0-2.57,0-5.2,0-7.84,0-4.09,0-8.18,0-12.28,0-4.31-.07-8.63.07-12.94a21.31,21.31,0,0,1,.9-6c1.17-3.48,3.1-6.53,6.58-8.22a30.18,30.18,0,0,1,4.1-1.77c2.29-.72,4.62-.35,6.93,0a14.63,14.63,0,0,1,6.42,2.94,13.63,13.63,0,0,1,5,7.7,13.41,13.41,0,0,1,.3,1.4,10.58,10.58,0,0,1,.15,1.13c0,.25,0,.5.06.76.08,1.27,0,2.54,0,3.82,0,.91,0,1.81,0,2.72.06,3,0,6.06,0,9.09,0,5,0,9.93-.08,14.89,0,1.28,0,2.55,0,3.82a1.55,1.55,0,0,1-.89,1.69,3.22,3.22,0,0,0-.66.46,2.6,2.6,0,0,0-.48.57,2.9,2.9,0,0,0,.26,3.23,4.4,4.4,0,0,0,2.42,1.92,2.59,2.59,0,0,0,2.64-.77,4.38,4.38,0,0,0,1.24-3.87,2.78,2.78,0,0,0-1.83-2.08,2.28,2.28,0,0,1-.32-.18,1.07,1.07,0,0,1-.25-.28,1,1,0,0,1-.1-.32,2.46,2.46,0,0,1,0-.41c0-3.51-.07-7-.09-10.52,0-3.78,0-7.56,0-11.34,0-.55,0-1.09,0-1.64,0-1.1.08-2.19.11-3.29,0-.54,0-1.09,0-1.64,0-1.67-.11-3.33-.11-5a14.44,14.44,0,0,1,1-5.67,15,15,0,0,1,7.53-8.11A14.78,14.78,0,0,1,599,2.08,15.56,15.56,0,0,1,601.22,2q.67,0,1.35.12a18.45,18.45,0,0,1,3.37.78,13.68,13.68,0,0,1,9.13,8.84,22,22,0,0,1,1.11,7.13c0,4.54.07,9.06.07,13.59,0,1.81-.15,3.6-.16,5.4h0c0,2,0,4.07,0,6.1,0,1.53,0,3.05,0,4.58,0,.44,0,.88,0,1.32s0,.88,0,1.32a.89.89,0,0,1-.56.93,3.61,3.61,0,0,0-1.25.79,2.33,2.33,0,0,0-.61,1.38,3.4,3.4,0,0,0,0,.45,3.93,3.93,0,0,0,1.52,3,2.83,2.83,0,0,0,3,.73,3.87,3.87,0,0,0,2.35-3.27,3,3,0,0,0-.47-2.3,3.63,3.63,0,0,0-1.49-1.16,4,4,0,0,1-.45-.26l0,0h0c0-3.59,0-7.11,0-10.62,0-3.92-.12-7.83-.12-11.75,0-2.06.15-4.12.21-6.19a23.17,23.17,0,0,0,0-2.5,19.49,19.49,0,0,1,1.1-8.94,15.1,15.1,0,0,1,3.48-5.28c.33-.32.69-.63,1.06-.93.18-.14.37-.29.57-.43.39-.28.8-.54,1.22-.79s.88-.47,1.34-.69a15.2,15.2,0,0,1,11.46-.46,17.37,17.37,0,0,1,2.34,1,13.41,13.41,0,0,1,6.82,7.85c.12.35.23.7.32,1s.21.75.29,1.13a21.5,21.5,0,0,1,.51,4.95c-.06,3.92-.13,7.84,0,11.76.05,1.84,0,3.68,0,5.52,0,1.22-.1,2.45-.13,3.68,0,.66,0,1.33,0,2,0,2.76.11,5.53.15,8.29,0,.31,0,.61,0,.92a1.26,1.26,0,0,1-.59,1.12l-.19.12-.41.24a2.62,2.62,0,0,0-1.3,2.78,4.22,4.22,0,0,0,.77,1.67,2.56,2.56,0,0,0,.2.26,4.69,4.69,0,0,0,.42.47,3.77,3.77,0,0,0,1.3.82c1.91.68,3.39-.52,3.94-2.31.69-2.24.32-3.32-1.77-4.42l-.49-.28c0-3.12,0-6.25,0-9.36,0-2.16.15-4.31.14-6.46,0-3.08-.15-6.16-.18-9.24,0-1.1.17-2.19.19-3.29a27.55,27.55,0,0,0-.07-3.15,21.45,21.45,0,0,1,.63-6.78,13.76,13.76,0,0,1,3.69-6.74c.31-.3.63-.59,1-.87s.69-.53,1.07-.78a13.3,13.3,0,0,1,1.21-.72c.62-.33,1.27-.63,1.92-.91s1.33-.52,2-.76c2.18-.76,4.44-.35,6.67-.05.32,0,.64.1.95.17a13.27,13.27,0,0,1,2.66.92,16.25,16.25,0,0,1,1.64.9c.53.33,1,.68,1.54,1.06a12.42,12.42,0,0,1,1.33,1.16c.28.28.53.56.78.86A14.1,14.1,0,0,1,680.07,12c.12.37.24.76.34,1.15.15.6.28,1.2.37,1.79a56.82,56.82,0,0,1,.32,8.45c0,3.87.1,7.75.08,11.62,0,1.67-.24,3.33-.24,5,0,3.34.11,6.68.17,10,0,.18,0,.35,0,.53a4.7,4.7,0,0,1,0,.53,2.12,2.12,0,0,1-.08.38,1.43,1.43,0,0,1-.27.46,2,2,0,0,1-.5.35,3.68,3.68,0,0,0-1,.78,2.82,2.82,0,0,0,.07,3.72,4.85,4.85,0,0,0,.84,1c.94.7,2,1.24,3.16.66a4,4,0,0,0,2.24-3.34c.22-1.9-.82-2.92-2.57-3.59,0-2.06,0-4.12,0-6.18,0-3.26.14-6.51.14-9.77s-.11-6.25-.13-9.37c0-1.1.19-2.2.2-3.29,0-1.27-.11-2.54-.13-3.81-.08-4.78,1.07-9.14,4.42-12.73a14.35,14.35,0,0,1,4-2.77A15,15,0,0,1,701.7,2.45a15.55,15.55,0,0,1,6.28,3,13.69,13.69,0,0,1,4.92,7.72c.76,2.79.49,5.58.53,8.38q0,2.57,0,5.13c0,1.7,0,3.41,0,5.12q0,4.36-.05,8.7l-.06,8.7v.31c0,.13,0,.25,0,.38a1.79,1.79,0,0,0,0,.23,3,3,0,0,1-.1,1.51,1.39,1.39,0,0,1-.3.47,1.1,1.1,0,0,1-.22.21,2.61,2.61,0,0,1-.62.37,1.63,1.63,0,0,0-.49.33,2.38,2.38,0,0,0-.66,1.73,3.05,3.05,0,0,0,.06.6,3.22,3.22,0,0,0,.18.58,4.24,4.24,0,0,0,3,2.72,2.56,2.56,0,0,0,2.5-.82,4.4,4.4,0,0,0,1.18-3.89A2.74,2.74,0,0,0,716.42,52a10,10,0,0,0-1-.51c0-2.15,0-4.28,0-6.42,0-1.53-.1-3.06-.11-4.59,0-3.08,0-6.16,0-9.23,0-2.82.24-5.64.3-8.46v-.06c0-.64,0-1.28,0-1.92,0-.12,0-.25,0-.37,0-.43-.05-.87-.09-1.3,0-.05,0-.09,0-.14s0-.39,0-.58,0-.35,0-.53a14.86,14.86,0,0,1,8.74-14.54,15.14,15.14,0,0,1,11.46-.42,13.62,13.62,0,0,1,9.08,8.72,20.94,20.94,0,0,1,1.13,7.64c-.1,2.72,0,5.45,0,8.17,0,3.52-.08,7-.08,10.55,0,1.29,0,2.59,0,3.88,0,1.08,0,2.16,0,3.24v6.47a3.15,3.15,0,0,0-.25.29l-.07.08,0,0a3.08,3.08,0,0,0-1.34.72,2.38,2.38,0,0,0-.31.33,3.39,3.39,0,0,0,.34,4c.09.12.19.23.3.35s.22.22.34.32l.24.2a2.72,2.72,0,0,0,2.8.56,3.79,3.79,0,0,0,1.32-.89,4.21,4.21,0,0,0,1-2.35,3,3,0,0,0-.73-2.67,3.52,3.52,0,0,0-1.2-.81,1.15,1.15,0,0,1-.43-.29,1.19,1.19,0,0,1-.19-.83c.08-4.88.15-9.77.16-14.65,0-.43,0-.85,0-1.28,0-.13,0-.26,0-.39,0-.92-.06-1.85-.09-2.78,0-.19,0-.37,0-.55,0-.44,0-.87,0-1.3,0-.18,0-.37,0-.55,0-2.06.14-4.13.2-6.18a23.34,23.34,0,0,0,0-2.51,21.35,21.35,0,0,1,.33-6.49,16.35,16.35,0,0,1,.75-2.44,20.58,20.58,0,0,1,.9-2,13.08,13.08,0,0,1,6.63-6.11c.73-.31,1.46-.62,2.21-.87q.38-.13.75-.24A9.73,9.73,0,0,1,762.15,2c.32,0,.64,0,1,0s.46,0,.69.06a8.53,8.53,0,0,1,.85.1c.33,0,.67.08,1,.14l.51.07a10.62,10.62,0,0,1,1.79.43,8.82,8.82,0,0,1,.86.31,14.18,14.18,0,0,1,1.62.78,20,20,0,0,1,2.26,1.49A13.63,13.63,0,0,1,777.57,13c.93,3.44.6,6.9.64,10.36,0,3.83.06,7.66.08,11.49v1.45q0,3.6,0,7.18t0,7.19a1.59,1.59,0,0,1-1,1.66,2.79,2.79,0,0,0-.94,4.24,4.18,4.18,0,0,0,2.67,2,2.37,2.37,0,0,0,1.76-.31,4.2,4.2,0,0,0,1.81-4.67c-.18-.85-.92-1.24-1.55-1.7a7.32,7.32,0,0,0-.9-.47V45.16q0-5.08,0-10.17c0-3.43-.11-6.86,0-10.29.09-2.06.09-4.1,0-6.18-.21-4.77,1.11-9.13,4.68-12.43A15.35,15.35,0,0,1,789,3.3c.41-.19.84-.36,1.27-.51a14.68,14.68,0,0,1,5.6-.75,18.2,18.2,0,0,1,2.69.35c.23,0,.47.1.69.17a16.25,16.25,0,0,1,5.84,2.86,13.42,13.42,0,0,1,4.9,7.74,36.79,36.79,0,0,1,.68,9.42c0,4.08.1,8.17.09,12.25,0,1.71-.23,3.43-.23,5.14,0,3.33.1,6.66.14,10,0,.34,0,.69,0,1s-.07.58-.09.84a1.08,1.08,0,0,0-.15.13l-.12.08s0,0-.06,0c-2.77.74-2.58,4.07-.48,5.77a2.79,2.79,0,0,0,3,.64A3.85,3.85,0,0,0,815,55.27a3,3,0,0,0-1.92-3.47,1.25,1.25,0,0,1-.33-.2c-.26-.22-.29-.5-.29-.92.08-4.88.14-9.75.15-14.63,0-2.81-.13-5.62-.16-8.44,0-1.22.09-2.45.09-3.68,0-1.71,0-3.42,0-5.13a18.26,18.26,0,0,1,2.79-10.38,13.09,13.09,0,0,1,2-2.28,13.84,13.84,0,0,1,1.64-1.37,14,14,0,0,1,2.48-1.39c.43-.2.87-.37,1.31-.53s.9-.31,1.35-.45c2.16-.68,4.35-.34,6.54-.06a14.59,14.59,0,0,1,7,3.14A12.27,12.27,0,0,1,839.29,7c.25.28.49.57.71.87A15.3,15.3,0,0,1,842.39,13c.94,3.39.47,6.81.56,10.23,0,1.84.08,3.68.07,5.53q0,7.52-.07,15c0,2.4,0,4.8,0,7.2a1.35,1.35,0,0,1-.83,1.33,3.17,3.17,0,0,0-.36.23,2.66,2.66,0,0,0-.31.26,2.79,2.79,0,0,0-.22,3.86,5.23,5.23,0,0,0,.92,1.11,2.94,2.94,0,0,0,3.06.69,4,4,0,0,0,.92-.57,2.53,2.53,0,0,0,.37-.36,4.27,4.27,0,0,0,1-2.36,3.31,3.31,0,0,0-.14-1.63,2.64,2.64,0,0,0-.36-.66,1.4,1.4,0,0,0-.16-.2.77.77,0,0,0-.18-.18,1.07,1.07,0,0,0-.19-.18A3.54,3.54,0,0,0,846,52a5.94,5.94,0,0,0-1-.52c-.06-1.73-.17-3.42-.17-5.12,0-3.43.06-6.86.08-10.29,0-3.6-.06-7.21,0-10.82,0-.72.08-1.43.14-2.15h0a21.83,21.83,0,0,0,.09-2.56,2.71,2.71,0,0,0,0-.4,7.22,7.22,0,0,0-.08-.8,15.05,15.05,0,0,1,.37-6.27,14,14,0,0,1,7.85-9.55,22.51,22.51,0,0,1,3.09-1.16,15.6,15.6,0,0,1,6.8,0c.31.05.61.11.91.18a12.58,12.58,0,0,1,1.74.55,17.44,17.44,0,0,1,3.89,2.27,13.58,13.58,0,0,1,4.9,7.72c.92,3.44.64,6.9.69,10.37,0,2,.07,3.9.1,5.85s.05,3.92.06,5.87c0,1.58-.28,3.16-.28,4.74,0,3.34.08,6.68.13,10,0,.35,0,.7,0,1.05a1.28,1.28,0,0,1-.8,1.22c-1.91,1-2.25,2.83-1,4.61a4.19,4.19,0,0,0,1.88,1.59,2.85,2.85,0,0,0,1.89.12,2,2,0,0,0,.46-.18,2.85,2.85,0,0,0,1-.79,3.19,3.19,0,0,0,.3-.42,4.71,4.71,0,0,0,.45-1c.69-2.25.3-3.31-1.8-4.41l-.48-.27c0-3.14,0-6.26,0-9.38,0-1,0-2.07.07-3.1s.07-2.25.06-3.37c0-2.9-.15-5.8-.17-8.7,0-1.31.17-2.63.2-4a27.69,27.69,0,0,0-.09-3,21.19,21.19,0,0,1,.64-6.78A14,14,0,0,1,882.09,6c.32-.3.66-.58,1-.85l.54-.4A11.68,11.68,0,0,1,884.85,4a10.56,10.56,0,0,1,1.06-.54l.4-.18c.58-.26,1.19-.48,1.79-.68l.68-.21c2.29-.68,4.61-.33,6.93,0a14.61,14.61,0,0,1,6.43,2.94,12.25,12.25,0,0,1,2.84,3A14.78,14.78,0,0,1,906.77,12c.12.38.24.77.34,1.17h0c.87,3.34.68,6.71.7,10.09,0,3.87.09,7.75.07,11.62,0,.43,0,.86,0,1.28s-.05.86-.08,1.29c0,.21,0,.42,0,.64,0,.43-.05.86-.06,1.29,0,.21,0,.42,0,.64,0,3.34.11,6.68.17,10,0,.31,0,.63,0,.93a1.44,1.44,0,0,1-.87,1.32,3.68,3.68,0,0,0-1,.78,2.53,2.53,0,0,0-.56,2.44,2.58,2.58,0,0,0,.08.26,3.22,3.22,0,0,0,.23.5,4.89,4.89,0,0,0,.33.51c.13.17.26.36.39.54a2.87,2.87,0,0,0,.45.47,2.94,2.94,0,0,0,3.06.72c.17-.08.34-.16.49-.25a3.77,3.77,0,0,0,.81-.66,4.22,4.22,0,0,0,1-2.37c.25-1.91-.76-3-2.54-3.71V44.25c0-6,0-12.06,0-18.09,0-1.09.18-2.19.19-3.29s-.08-2.45-.11-3.68c-.13-4.78,1-9.13,4.33-12.76a14.1,14.1,0,0,1,4-2.8A15,15,0,0,1,928.18,2.4a15.52,15.52,0,0,1,6.42,2.94,13.25,13.25,0,0,1,5,7.81,37.94,37.94,0,0,1,.71,9.56c0,4,.08,8.09.07,12.13,0,1.71-.23,3.42-.23,5.13,0,.83,0,1.66,0,2.48,0,2.48.1,4.95.14,7.41,0,.19,0,.38,0,.57s0,.66-.08,1c0,.12,0,.25,0,.37h0c-.82.61-2,.75-2.19,1.85a5.4,5.4,0,0,0-.08,2.19,4.15,4.15,0,0,0,3.76,2.83,3.46,3.46,0,0,0,2.87-2.9c.18-1.36.31-2.18-.5-3a1.37,1.37,0,0,0-.17-.17l-.21-.18a9.84,9.84,0,0,0-1.47-.92c0-2-.12-4-.12-6q0-6,0-12c0-3.56.15-7.11.21-10.67,0-1.09,0-2.19-.08-3.28a19.13,19.13,0,0,1,.06-3.71c.06-.47.13-.94.22-1.4l.15-.69c.12-.45.25-.91.4-1.35a16.91,16.91,0,0,1,2.43-4.77,11.43,11.43,0,0,1,4.15-3.44,31.62,31.62,0,0,1,4.11-1.77c2.24-.72,4.53-.34,6.8,0a12.8,12.8,0,0,1,4.35,1.52,18.71,18.71,0,0,1,2.31,1.51,12.19,12.19,0,0,1,1.31,1.16,14.16,14.16,0,0,1,3.54,6.47c.8,3,.51,5.93.54,8.91,0,3.38.06,6.77,0,10.15,0,4.18-.09,8.36-.12,12.54,0,2,0,4,0,6a1.65,1.65,0,0,1-.53,1.45,2.1,2.1,0,0,1-.48.32,2.26,2.26,0,0,0-.59.42,2.86,2.86,0,0,0-.46,3.34c.08.14.17.28.26.42a4.37,4.37,0,0,0,.61.79,2.73,2.73,0,0,0,.34.34,2.88,2.88,0,0,0,3,.76,3.75,3.75,0,0,0,1.31-.89,4,4,0,0,0,.32-.4,4.12,4.12,0,0,0,.47-.91,5,5,0,0,0,.26-1.05,3,3,0,0,0-1.94-3.47.92.92,0,0,1-.63-1c0-4,0-8.08,0-12.11,0-3.21-.06-6.42,0-9.63,0-1.49.11-3,.18-4.44,0-.49,0-1,0-1.48s0-.93,0-1.4c0-.29,0-.58,0-.86s0-.67,0-1,0-.55-.07-.82A15.7,15.7,0,0,1,979,6.24a13.78,13.78,0,0,1,3.91-2.67,15,15,0,0,1,10.27-1.11,15.46,15.46,0,0,1,6.27,3,12.11,12.11,0,0,1,1.31,1.15,12,12,0,0,1,1.44,1.75c.11.15.21.31.31.47.2.32.39.65.56,1s.33.68.48,1,.29.72.41,1.09.24.75.34,1.13c.93,3.44.65,6.9.7,10.36v.05c0,2.92.1,5.84.13,8.75,0,1,0,1.95,0,2.93,0,1.62-.24,3.25-.25,4.87,0,3.35.07,6.69.11,10,0,.4,0,.79,0,1.19a.91.91,0,0,1-.6.92,3.3,3.3,0,0,0-1.27.85,2.05,2.05,0,0,0-.4.63,2.9,2.9,0,0,0-.18.83,3.85,3.85,0,0,0,1.63,3.41,2.73,2.73,0,0,0,3,.57,3.78,3.78,0,0,0,2.19-3.35c.11-1.91-.26-2.39-2.57-3.68,0-1.92,0-3.94,0-5.95,0-2.17.12-4.35.16-6.52,0-.82,0-1.64,0-2.46s0-1.67,0-2.51c0-2.5-.12-5-.14-7.52,0-1.09.15-2.19.19-3.28a21.33,21.33,0,0,0,0-2.77c0-.38-.06-.77-.07-1.15a21.6,21.6,0,0,1,.24-4.41,16.93,16.93,0,0,1,.89-3.26,14.51,14.51,0,0,1,7.86-8.27,14.93,14.93,0,0,1,10.78-.56l.68.22c.53.18,1,.37,1.53.59a14,14,0,0,1,4.5,3.14q.36.38.69.78l.32.42a13.19,13.19,0,0,1,1.25,2.05h0a13,13,0,0,1,.65,1.53,20.51,20.51,0,0,1,.86,3.21,20.79,20.79,0,0,1,.34,3.79c0,5.63,0,11.26,0,16.89,0,1.54-.19,3.08-.18,4.62,0,2.28.11,4.55.15,6.83,0,.76,0,1.51,0,2.27,0,4.77,0,9.54,0,14.31Z"/></svg>